<svg width="245" height="249" viewBox="0 0 245 249" fill="none" xmlns="http://www.w3.org/2000/svg">
<path d="M18.5936 206.87L245.258 1" stroke="#0071CE" stroke-width="2" stroke-miterlimit="10" stroke-linecap="round"/>
<path d="M37.3199 211.41L228.642 5.86975" stroke="#1F78BE" stroke-width="2" stroke-miterlimit="10" stroke-linecap="round"/>
<path d="M56.0537 215.941L212.017 10.7395" stroke="#3E81C3" stroke-width="2" stroke-miterlimit="10" stroke-linecap="round"/>
<path d="M74.7776 220.472L195.39 15.6099" stroke="#548BC9" stroke-width="2" stroke-miterlimit="10" stroke-linecap="round"/>
<path d="M93.5039 225.012L178.774 20.4884" stroke="#6695CE" stroke-width="2" stroke-miterlimit="10" stroke-linecap="round"/>
<path d="M112.228 229.544L162.147 25.3588" stroke="#78A0D4" stroke-width="2" stroke-miterlimit="10" stroke-linecap="round"/>
<path d="M130.962 234.075L145.53 30.2285" stroke="#89ACDB" stroke-width="2" stroke-miterlimit="10" stroke-linecap="round"/>
<path d="M149.687 238.614L128.905 35.0983" stroke="#9CB9E1" stroke-width="2" stroke-miterlimit="10" stroke-linecap="round"/>
<path d="M168.412 243.146L112.288 39.9686" stroke="#AEC7E8" stroke-width="2" stroke-miterlimit="10" stroke-linecap="round"/>
<path d="M95.6619 44.839L187.137 247.677" stroke="#C1D5EF" stroke-width="2" stroke-miterlimit="10" stroke-linecap="round"/>
<path d="M85.1472 51.631L198.271 246.177" stroke="#C8D9F0" stroke-width="2" stroke-miterlimit="10" stroke-linecap="round"/>
<path d="M74.625 58.4236L209.407 244.67" stroke="#CFDEF2" stroke-width="2" stroke-miterlimit="10" stroke-linecap="round"/>
<path d="M64.1104 65.2081L220.549 243.163" stroke="#D5E2F4" stroke-width="2" stroke-miterlimit="10" stroke-linecap="round"/>
<path d="M53.5883 72.0007L231.685 241.664" stroke="#DCE7F5" stroke-width="2" stroke-miterlimit="10" stroke-linecap="round"/>
<path d="M43.0736 78.7847L242.819 240.156" stroke="#E3ECF7" stroke-width="2" stroke-miterlimit="10" stroke-linecap="round"/>
<path d="M32.5514 85.5773L253.955 238.648" stroke="#EAF0F9" stroke-width="2" stroke-miterlimit="10" stroke-linecap="round"/>
<path d="M22.0367 92.3699L265.089 237.149" stroke="#F0F5FA" stroke-width="2" stroke-miterlimit="10" stroke-linecap="round"/>
<path d="M11.5146 99.1538L276.224 235.641" stroke="#F7F9FC" stroke-width="2" stroke-miterlimit="10" stroke-linecap="round"/>
<path d="M1 105.946L287.359 234.142" stroke="white" stroke-width="2" stroke-miterlimit="10" stroke-linecap="round"/>
</svg>
