<svg width="218" height="633" viewBox="0 0 218 633" fill="none" xmlns="http://www.w3.org/2000/svg">
<mask id="mask0_251_2997" style="mask-type:luminance" maskUnits="userSpaceOnUse" x="0" y="0" width="1078" height="633">
<path d="M0 0H1078V632.362H0V0Z" fill="white"/>
</mask>
<g mask="url(#mask0_251_2997)">
<path d="M1.45086 201.141L196.079 595.403" stroke="#F5D93F" stroke-width="2" stroke-miterlimit="10" stroke-linecap="round"/>
</g>
<path d="M31.7079 215.066L191.234 599.566" stroke="#F3D33C" stroke-width="2" stroke-miterlimit="10" stroke-linecap="round"/>
<path d="M61.9653 228.977L186.375 603.729" stroke="#EECE3B" stroke-width="2" stroke-miterlimit="10" stroke-linecap="round"/>
<path d="M92.2087 242.901L181.531 607.877" stroke="#EBCA36" stroke-width="2" stroke-miterlimit="10" stroke-linecap="round"/>
<path d="M122.466 256.812L176.671 612.04" stroke="#E8C434" stroke-width="2" stroke-miterlimit="10" stroke-linecap="round"/>
<path d="M152.724 270.737L171.827 616.189" stroke="#E6BF30" stroke-width="2" stroke-miterlimit="10" stroke-linecap="round"/>
<path d="M182.981 284.662L166.982 620.352" stroke="#E1BB2F" stroke-width="2" stroke-miterlimit="10" stroke-linecap="round"/>
<path d="M213.224 298.572L162.123 624.5" stroke="#DFB52B" stroke-width="2" stroke-miterlimit="10" stroke-linecap="round"/>
<path d="M243.481 312.496L157.278 628.663" stroke="#DCB12A" stroke-width="2" stroke-miterlimit="10" stroke-linecap="round"/>
<path d="M258.611 324.507L137.305 630.911" stroke="#DAA900" stroke-width="2" stroke-miterlimit="10" stroke-linecap="round"/>
<path d="M263.614 348.977L125.584 602.626" stroke="#CAA032" stroke-width="2" stroke-miterlimit="10" stroke-linecap="round"/>
<path d="M268.605 373.461L113.88 574.341" stroke="#BA963A" stroke-width="2" stroke-miterlimit="10" stroke-linecap="round"/>
<path d="M273.594 397.932L102.159 546.057" stroke="#AF8E43" stroke-width="2" stroke-miterlimit="10" stroke-linecap="round"/>
<path d="M278.584 422.416L90.4393 517.786" stroke="#A38649" stroke-width="2" stroke-miterlimit="10" stroke-linecap="round"/>
<path d="M283.588 446.886L78.7185 489.502" stroke="#977D4D" stroke-width="2" stroke-miterlimit="10" stroke-linecap="round"/>
<path d="M288.578 471.356L66.9987 461.217" stroke="#8D7753" stroke-width="2" stroke-miterlimit="10" stroke-linecap="round"/>
<path d="M293.568 495.84L55.279 432.932" stroke="#826E56" stroke-width="2" stroke-miterlimit="10" stroke-linecap="round"/>
<path d="M298.558 520.31L43.559 404.647" stroke="#786958" stroke-width="2" stroke-miterlimit="10" stroke-linecap="round"/>
<path d="M31.8381 376.362L303.561 544.78" stroke="#6F6259" stroke-width="2" stroke-miterlimit="10" stroke-linecap="round"/>
</svg>
