<svg width="167" height="300" viewBox="0 0 167 300" fill="none" xmlns="http://www.w3.org/2000/svg">
<path d="M18.7539 249.434L247.487 1" stroke="#0071CE" stroke-width="2" stroke-miterlimit="10" stroke-linecap="round"/>
<path d="M37.6523 254.912L230.721 6.87659" stroke="#1F78BE" stroke-width="2" stroke-miterlimit="10" stroke-linecap="round"/>
<path d="M56.5547 260.379L213.941 12.7532" stroke="#3E81C3" stroke-width="2" stroke-miterlimit="10" stroke-linecap="round"/>
<path d="M75.4531 265.848L197.166 18.6304" stroke="#548BC9" stroke-width="2" stroke-miterlimit="10" stroke-linecap="round"/>
<path d="M94.3477 271.326L180.396 24.5176" stroke="#6695CE" stroke-width="2" stroke-miterlimit="10" stroke-linecap="round"/>
<path d="M113.242 276.794L163.617 30.3948" stroke="#78A0D4" stroke-width="2" stroke-miterlimit="10" stroke-linecap="round"/>
<path d="M132.148 282.262L146.85 36.2714" stroke="#89ACDB" stroke-width="2" stroke-miterlimit="10" stroke-linecap="round"/>
<path d="M151.042 287.74L130.07 42.1479" stroke="#9CB9E1" stroke-width="2" stroke-miterlimit="10" stroke-linecap="round"/>
<path d="M169.941 293.209L113.305 48.0253" stroke="#AEC7E8" stroke-width="2" stroke-miterlimit="10" stroke-linecap="round"/>
<path d="M96.5273 53.9026L188.837 298.677" stroke="#C1D5EF" stroke-width="2" stroke-miterlimit="10" stroke-linecap="round"/>
<path d="M85.9141 62.0989L200.071 296.867" stroke="#C8D9F0" stroke-width="2" stroke-miterlimit="10" stroke-linecap="round"/>
<path d="M75.2969 70.2958L211.309 295.048" stroke="#CFDEF2" stroke-width="2" stroke-miterlimit="10" stroke-linecap="round"/>
<path d="M64.6875 78.483L222.554 293.229" stroke="#D5E2F4" stroke-width="2" stroke-miterlimit="10" stroke-linecap="round"/>
<path d="M54.0664 86.6799L233.789 291.42" stroke="#DCE7F5" stroke-width="2" stroke-miterlimit="10" stroke-linecap="round"/>
<path d="M43.457 94.8665L245.026 289.601" stroke="#E3ECF7" stroke-width="2" stroke-miterlimit="10" stroke-linecap="round"/>
<path d="M32.8398 103.063L256.264 287.781" stroke="#EAF0F9" stroke-width="2" stroke-miterlimit="10" stroke-linecap="round"/>
<path d="M22.2305 111.26L267.501 285.972" stroke="#F0F5FA" stroke-width="2" stroke-miterlimit="10" stroke-linecap="round"/>
<path d="M11.6094 119.447L278.735 284.153" stroke="#F7F9FC" stroke-width="2" stroke-miterlimit="10" stroke-linecap="round"/>
<path d="M1 127.644L289.973 282.344" stroke="white" stroke-width="2" stroke-miterlimit="10" stroke-linecap="round"/>
</svg>
