<svg width="709" height="609" viewBox="0 0 709 609" fill="none" xmlns="http://www.w3.org/2000/svg">
<g clip-path="url(#clip0_251_6620)">
<path d="M419.333 16.0313V111.414H559.674V16.0313H419.333ZM464.648 47.1783H425.251V21.8556H464.648V47.1783ZM553.756 47.1783H514.359V21.8556H553.756V47.1783Z" fill="#FFFDFB" stroke="#0ABAAD" stroke-width="2" stroke-miterlimit="10"/>
<path d="M229.703 118.335H219.22V178.772H229.703V118.335Z" fill="#FFFDFB" stroke="#0ABAAD" stroke-width="2" stroke-miterlimit="10"/>
<path d="M316.275 118.335H305.792V178.772H316.275V118.335Z" fill="#FFFDFB" stroke="#0ABAAD" stroke-width="2" stroke-miterlimit="10"/>
<path d="M373.764 118.335H363.281V178.772H373.764V118.335Z" fill="#FFFDFB" stroke="#0ABAAD" stroke-width="2" stroke-miterlimit="10"/>
<path d="M431.253 118.335H420.77V178.772H431.253V118.335Z" fill="#FFFDFB" stroke="#0ABAAD" stroke-width="2" stroke-miterlimit="10"/>
<path d="M488.743 118.335H478.259V178.772H488.743V118.335Z" fill="#FFFDFB" stroke="#0ABAAD" stroke-width="2" stroke-miterlimit="10"/>
<path d="M546.316 118.335H535.833V178.772H546.316V118.335Z" fill="#FFFDFB" stroke="#0ABAAD" stroke-width="2" stroke-miterlimit="10"/>
<path d="M603.806 118.335H593.322V178.772H603.806V118.335Z" fill="#FFFDFB" stroke="#0ABAAD" stroke-width="2" stroke-miterlimit="10"/>
<path d="M676.09 111.414H16.4014V130.49H676.09V111.414Z" fill="#FFFDFB" stroke="#0ABAAD" stroke-width="2" stroke-miterlimit="10"/>
<path d="M56.8129 130.49H46.3296V190.927H56.8129V130.49Z" fill="#FFFDFB" stroke="#0ABAAD" stroke-width="2" stroke-miterlimit="10"/>
<path d="M143.47 130.49H132.986V190.927H143.47V130.49Z" fill="#FFFDFB" stroke="#0ABAAD" stroke-width="2" stroke-miterlimit="10"/>
<path d="M200.959 130.49H190.476V190.927H200.959V130.49Z" fill="#FFFDFB" stroke="#0ABAAD" stroke-width="2" stroke-miterlimit="10"/>
<path d="M258.448 130.49H247.965V190.927H258.448V130.49Z" fill="#FFFDFB" stroke="#0ABAAD" stroke-width="2" stroke-miterlimit="10"/>
<path d="M315.937 130.49H305.454V190.927H315.937V130.49Z" fill="#FFFDFB" stroke="#0ABAAD" stroke-width="2" stroke-miterlimit="10"/>
<path d="M373.426 130.49H362.943V190.927H373.426V130.49Z" fill="#FFFDFB" stroke="#0ABAAD" stroke-width="2" stroke-miterlimit="10"/>
<path d="M430.915 130.49H420.432V190.927H430.915V130.49Z" fill="#FFFDFB" stroke="#0ABAAD" stroke-width="2" stroke-miterlimit="10"/>
<path d="M579.035 4.72046H400.142V16.0313H579.035V4.72046Z" fill="#FFFDFB" stroke="#0ABAAD" stroke-width="2" stroke-miterlimit="10"/>
<path d="M637.961 300.153H34.8317L5.32617 172.864H701.96L637.961 300.153Z" fill="#FFFDFB" stroke="#0ABAAD" stroke-width="2" stroke-miterlimit="10"/>
<path d="M9.46878 190.927H692.83L701.96 172.864H5.32617L9.46878 190.927Z" fill="#FFFDFB" stroke="#0ABAAD" stroke-width="2" stroke-miterlimit="10"/>
<path d="M559.674 63.7225H419.333V79.3383H559.674V63.7225Z" fill="#FFFDFB" stroke="#0ABAAD" stroke-width="2" stroke-miterlimit="10"/>
<path d="M504.468 25.2319H474.54V111.414H504.468V25.2319Z" fill="#FFFDFB" stroke="#0ABAAD" stroke-width="2" stroke-miterlimit="10"/>
<path d="M637.961 300.153H34.8317L5.32617 172.864H701.96L637.961 300.153Z" fill="#FFFDFB"/>
<mask id="mask0_251_6620" style="mask-type:luminance" maskUnits="userSpaceOnUse" x="5" y="172" width="697" height="129">
<path d="M637.961 300.153H34.8317L5.32617 172.864H701.96L637.961 300.153Z" fill="white"/>
</mask>
<g mask="url(#mask0_251_6620)">
<path d="M2.28271 236.508C2.28271 236.508 339.356 273.142 683.615 236.508H2.28271Z" fill="#FFFDFB"/>
<path d="M2.28271 236.508C2.28271 236.508 339.356 273.142 683.615 236.508" stroke="#0ABAAD" stroke-width="2" stroke-miterlimit="10"/>
<path d="M2.28271 219.964C2.28271 219.964 351.953 256.598 696.127 219.964H2.28271Z" fill="#FFFDFB"/>
<path d="M2.28271 219.964C2.28271 219.964 351.953 256.598 696.127 219.964" stroke="#0ABAAD" stroke-width="2" stroke-miterlimit="10"/>
</g>
<path d="M637.961 300.153H34.8317L5.32617 172.864H701.96L637.961 300.153Z" stroke="#0ABAAD" stroke-width="2" stroke-miterlimit="10"/>
<path d="M222.263 227.983C207.553 227.983 195.717 239.041 195.717 252.631C195.717 266.22 207.637 277.278 222.263 277.278C236.889 277.278 248.81 266.22 248.81 252.631C248.81 239.041 236.889 227.983 222.263 227.983ZM222.263 261.662C216.937 261.662 212.541 257.611 212.541 252.631C212.541 247.65 216.853 243.599 222.263 243.599C227.674 243.599 231.986 247.65 231.986 252.631C231.986 257.611 227.674 261.662 222.263 261.662Z" fill="#FFFDFB" stroke="#0ABAAD" stroke-width="2" stroke-miterlimit="10"/>
<path d="M283.134 225.029C268.424 225.029 256.588 236.086 256.588 249.676C256.588 263.266 268.508 274.324 283.134 274.324C297.76 274.324 309.681 263.266 309.681 249.676C309.681 236.086 297.76 225.029 283.134 225.029ZM283.134 258.708C277.808 258.708 273.412 254.656 273.412 249.676C273.412 244.696 277.724 240.644 283.134 240.644C288.545 240.644 292.857 244.696 292.857 249.676C292.857 254.656 288.545 258.708 283.134 258.708Z" fill="#FFFDFB" stroke="#0ABAAD" stroke-width="2" stroke-miterlimit="10"/>
<path d="M153.108 227.983C138.397 227.983 126.561 239.041 126.561 252.631C126.561 266.22 138.482 277.278 153.108 277.278C167.733 277.278 179.654 266.22 179.654 252.631C179.654 239.041 167.733 227.983 153.108 227.983ZM153.108 261.662C147.781 261.662 143.385 257.611 143.385 252.631C143.385 247.65 147.697 243.599 153.108 243.599C158.518 243.599 162.83 247.65 162.83 252.631C162.83 257.611 158.518 261.662 153.108 261.662Z" fill="#FFFDFB" stroke="#0ABAAD" stroke-width="2" stroke-miterlimit="10"/>
<path d="M83.3595 211.861C68.649 211.861 56.813 222.918 56.813 236.508C56.813 250.098 68.7335 261.156 83.3595 261.156C97.9854 261.156 109.906 250.098 109.906 236.508C109.906 222.918 97.9854 211.861 83.3595 211.861ZM83.3595 245.54C78.0333 245.54 73.637 241.488 73.637 236.508C73.637 231.528 77.9487 227.477 83.3595 227.477C88.7702 227.477 93.0819 231.528 93.0819 236.508C93.0819 241.488 88.7702 245.54 83.3595 245.54Z" fill="#FFFDFB" stroke="#0ABAAD" stroke-width="2" stroke-miterlimit="10"/>
<path d="M499.226 228.152C484.516 228.152 472.68 239.209 472.68 252.799C472.68 266.389 484.6 277.447 499.226 277.447C513.852 277.447 525.773 266.389 525.773 252.799C525.773 239.209 513.852 228.152 499.226 228.152ZM499.226 261.747C493.9 261.747 489.504 257.695 489.504 252.715C489.504 247.735 493.815 243.683 499.226 243.683C504.637 243.683 508.949 247.735 508.949 252.715C508.949 257.695 504.637 261.747 499.226 261.747Z" fill="#FFFDFB" stroke="#0ABAAD" stroke-width="2" stroke-miterlimit="10"/>
<path d="M419.418 49.9638H28.2373V61.2746H419.418V49.9638Z" fill="#FFFDFB" stroke="#0ABAAD" stroke-width="2" stroke-miterlimit="10"/>
<path d="M51.9937 120.192L51.9937 49.8794H40.6649V120.192H51.9937Z" fill="#FFFDFB" stroke="#0ABAAD" stroke-width="2" stroke-miterlimit="10"/>
<path d="M98.6616 120.277V49.9638H87.3329V120.277H98.6616Z" fill="#FFFDFB" stroke="#0ABAAD" stroke-width="2" stroke-miterlimit="10"/>
<path d="M145.414 120.277V49.9638H134.085V120.277H145.414Z" fill="#FFFDFB" stroke="#0ABAAD" stroke-width="2" stroke-miterlimit="10"/>
<path d="M192.166 120.277V49.9638H180.837V120.277H192.166Z" fill="#FFFDFB" stroke="#0ABAAD" stroke-width="2" stroke-miterlimit="10"/>
<path d="M238.918 120.277V49.9638H227.59V120.277H238.918Z" fill="#FFFDFB" stroke="#0ABAAD" stroke-width="2" stroke-miterlimit="10"/>
<path d="M285.586 120.277V49.9638H274.257V120.277H285.586Z" fill="#FFFDFB" stroke="#0ABAAD" stroke-width="2" stroke-miterlimit="10"/>
<path d="M332.338 120.277V49.9638H321.01V120.277H332.338Z" fill="#FFFDFB" stroke="#0ABAAD" stroke-width="2" stroke-miterlimit="10"/>
<path d="M379.091 120.277V49.9638H367.762V120.277H379.091Z" fill="#FFFDFB" stroke="#0ABAAD" stroke-width="2" stroke-miterlimit="10"/>
<g opacity="0.56">
<path d="M559.674 592.969V497.586H419.333V592.969H559.674ZM464.648 587.144H425.251V561.822H464.648V587.144ZM553.756 587.144H514.359V561.822H553.756V587.144Z" fill="#FFFDFB" stroke="#0ABAAD" stroke-width="2" stroke-miterlimit="10"/>
<path d="M229.703 430.312H219.22V490.749H229.703V430.312Z" fill="#FFFDFB" stroke="#0ABAAD" stroke-width="2" stroke-miterlimit="10"/>
<path d="M316.275 430.312H305.792V490.749H316.275V430.312Z" fill="#FFFDFB" stroke="#0ABAAD" stroke-width="2" stroke-miterlimit="10"/>
<path d="M373.764 430.312H363.281V490.749H373.764V430.312Z" fill="#FFFDFB" stroke="#0ABAAD" stroke-width="2" stroke-miterlimit="10"/>
<path d="M431.253 430.312H420.77V490.749H431.253V430.312Z" fill="#FFFDFB" stroke="#0ABAAD" stroke-width="2" stroke-miterlimit="10"/>
<path d="M488.743 430.312H478.259V490.749H488.743V430.312Z" fill="#FFFDFB" stroke="#0ABAAD" stroke-width="2" stroke-miterlimit="10"/>
<path d="M546.316 430.312H535.833V490.749H546.316V430.312Z" fill="#FFFDFB" stroke="#0ABAAD" stroke-width="2" stroke-miterlimit="10"/>
<path d="M603.806 430.312H593.322V490.749H603.806V430.312Z" fill="#FFFDFB" stroke="#0ABAAD" stroke-width="2" stroke-miterlimit="10"/>
<path d="M676.09 478.51H16.4014V497.586H676.09V478.51Z" fill="#FFFDFB" stroke="#0ABAAD" stroke-width="2" stroke-miterlimit="10"/>
<path d="M56.8129 418.073H46.3296V478.51H56.8129V418.073Z" fill="#FFFDFB" stroke="#0ABAAD" stroke-width="2" stroke-miterlimit="10"/>
<path d="M143.47 418.073H132.986V478.51H143.47V418.073Z" fill="#FFFDFB" stroke="#0ABAAD" stroke-width="2" stroke-miterlimit="10"/>
<path d="M200.959 418.073H190.476V478.51H200.959V418.073Z" fill="#FFFDFB" stroke="#0ABAAD" stroke-width="2" stroke-miterlimit="10"/>
<path d="M258.448 418.073H247.965V478.51H258.448V418.073Z" fill="#FFFDFB" stroke="#0ABAAD" stroke-width="2" stroke-miterlimit="10"/>
<path d="M315.937 418.073H305.454V478.51H315.937V418.073Z" fill="#FFFDFB" stroke="#0ABAAD" stroke-width="2" stroke-miterlimit="10"/>
<path d="M373.426 418.073H362.943V478.51H373.426V418.073Z" fill="#FFFDFB" stroke="#0ABAAD" stroke-width="2" stroke-miterlimit="10"/>
<path d="M430.915 418.073H420.432V478.51H430.915V418.073Z" fill="#FFFDFB" stroke="#0ABAAD" stroke-width="2" stroke-miterlimit="10"/>
<path d="M579.035 592.969H400.142V604.28H579.035V592.969Z" fill="#FFFDFB" stroke="#0ABAAD" stroke-width="2" stroke-miterlimit="10"/>
<path d="M637.961 308.932H34.8317L5.32617 436.136H701.96L637.961 308.932Z" fill="#FFFDFB" stroke="#0ABAAD" stroke-width="2" stroke-miterlimit="10"/>
<path d="M9.46878 418.073H692.83L701.96 436.136H5.32617L9.46878 418.073Z" fill="#FFFDFB" stroke="#0ABAAD" stroke-width="2" stroke-miterlimit="10"/>
<path d="M559.674 529.662H419.333V545.277H559.674V529.662Z" fill="#FFFDFB" stroke="#0ABAAD" stroke-width="2" stroke-miterlimit="10"/>
<path d="M504.468 497.586H474.54V583.768H504.468V497.586Z" fill="#FFFDFB" stroke="#0ABAAD" stroke-width="2" stroke-miterlimit="10"/>
<path d="M637.961 308.932H34.8317L5.32617 436.136H701.96L637.961 308.932Z" fill="#FFFDFB"/>
<mask id="mask1_251_6620" style="mask-type:luminance" maskUnits="userSpaceOnUse" x="5" y="308" width="697" height="129">
<path d="M637.961 308.932H34.8317L5.32617 436.136H701.96L637.961 308.932Z" fill="white"/>
</mask>
<g mask="url(#mask1_251_6620)">
<path d="M2.28271 372.492C2.28271 372.492 339.356 335.858 683.615 372.492H2.28271Z" fill="#FFFDFB"/>
<path d="M2.28271 372.492C2.28271 372.492 339.356 335.858 683.615 372.492" stroke="#0ABAAD" stroke-width="2" stroke-miterlimit="10"/>
<path d="M2.28271 389.036C2.28271 389.036 351.953 352.402 696.127 389.036H2.28271Z" fill="#FFFDFB"/>
<path d="M2.28271 389.036C2.28271 389.036 351.953 352.402 696.127 389.036" stroke="#0ABAAD" stroke-width="2" stroke-miterlimit="10"/>
</g>
<path d="M637.961 308.932H34.8317L5.32617 436.136H701.96L637.961 308.932Z" stroke="#0ABAAD" stroke-width="2" stroke-miterlimit="10"/>
<path d="M248.81 356.37C248.81 342.78 236.889 331.722 222.263 331.722C207.637 331.722 195.717 342.78 195.717 356.37C195.717 369.959 207.637 381.017 222.263 381.017C236.889 381.017 248.81 369.959 248.81 356.37ZM231.986 356.37C231.986 361.35 227.674 365.401 222.263 365.401C216.853 365.401 212.541 361.35 212.541 356.37C212.541 351.389 216.853 347.338 222.263 347.338C227.674 347.338 231.986 351.389 231.986 356.37Z" fill="#FFFDFB" stroke="#0ABAAD" stroke-width="2" stroke-miterlimit="10"/>
<path d="M309.765 359.324C309.765 345.734 297.845 334.676 283.219 334.676C268.593 334.676 256.672 345.734 256.672 359.324C256.672 372.914 268.593 383.971 283.219 383.971C297.845 383.971 309.765 372.914 309.765 359.324ZM292.857 359.324C292.857 364.304 288.545 368.356 283.134 368.356C277.724 368.356 273.412 364.304 273.412 359.324C273.412 354.344 277.724 350.292 283.134 350.292C288.545 350.292 292.857 354.344 292.857 359.324Z" fill="#FFFDFB" stroke="#0ABAAD" stroke-width="2" stroke-miterlimit="10"/>
<path d="M179.654 356.37C179.654 342.78 167.733 331.722 153.108 331.722C138.482 331.722 126.561 342.78 126.561 356.37C126.561 369.959 138.482 381.017 153.108 381.017C167.733 381.017 179.654 369.959 179.654 356.37ZM162.83 356.37C162.83 361.35 158.518 365.401 153.108 365.401C147.697 365.401 143.385 361.35 143.385 356.37C143.385 351.389 147.697 347.338 153.108 347.338C158.518 347.338 162.83 351.389 162.83 356.37Z" fill="#FFFDFB" stroke="#0ABAAD" stroke-width="2" stroke-miterlimit="10"/>
<path d="M109.906 372.492C109.906 358.902 97.9854 347.844 83.3595 347.844C68.7335 347.844 56.813 358.902 56.813 372.492C56.813 386.082 68.7335 397.139 83.3595 397.139C97.9854 397.139 109.906 386.082 109.906 372.492ZM93.0819 372.492C93.0819 377.472 88.7702 381.523 83.3595 381.523C77.9487 381.523 73.637 377.472 73.637 372.492C73.637 367.512 77.9487 363.46 83.3595 363.46C88.7702 363.46 93.0819 367.512 93.0819 372.492Z" fill="#FFFDFB" stroke="#0ABAAD" stroke-width="2" stroke-miterlimit="10"/>
<path d="M525.773 356.201C525.773 342.611 513.852 331.553 499.226 331.553C484.6 331.553 472.68 342.611 472.68 356.201C472.68 369.791 484.6 380.848 499.226 380.848C513.852 380.848 525.773 369.791 525.773 356.201ZM508.949 356.201C508.949 361.181 504.637 365.233 499.226 365.233C493.815 365.233 489.504 361.181 489.504 356.201C489.504 351.221 493.815 347.169 499.226 347.169C504.637 347.169 508.949 351.221 508.949 356.201Z" fill="#FFFDFB" stroke="#0ABAAD" stroke-width="2" stroke-miterlimit="10"/>
<path d="M419.418 547.81H28.2373V559.121H419.418V547.81Z" fill="#FFFDFB" stroke="#0ABAAD" stroke-width="2" stroke-miterlimit="10"/>
<path d="M40.7495 488.808L40.7495 559.121H52.0783V488.808H40.7495Z" fill="#FFFDFB" stroke="#0ABAAD" stroke-width="2" stroke-miterlimit="10"/>
<path d="M87.4175 488.723V559.036H98.7462V488.723H87.4175Z" fill="#FFFDFB" stroke="#0ABAAD" stroke-width="2" stroke-miterlimit="10"/>
<path d="M134.169 488.723V559.036H145.498V488.723H134.169Z" fill="#FFFDFB" stroke="#0ABAAD" stroke-width="2" stroke-miterlimit="10"/>
<path d="M180.922 488.723V559.036H192.251V488.723H180.922Z" fill="#FFFDFB" stroke="#0ABAAD" stroke-width="2" stroke-miterlimit="10"/>
<path d="M227.59 488.723V559.036H238.919V488.723H227.59Z" fill="#FFFDFB" stroke="#0ABAAD" stroke-width="2" stroke-miterlimit="10"/>
<path d="M274.342 488.723V559.036H285.671V488.723H274.342Z" fill="#FFFDFB" stroke="#0ABAAD" stroke-width="2" stroke-miterlimit="10"/>
<path d="M321.094 488.723V559.036H332.423V488.723H321.094Z" fill="#FFFDFB" stroke="#0ABAAD" stroke-width="2" stroke-miterlimit="10"/>
<path d="M367.847 488.808V559.121H379.175V488.808H367.847Z" fill="#FFFDFB" stroke="#0ABAAD" stroke-width="2" stroke-miterlimit="10"/>
</g>
<rect y="-76.6813" width="889.948" height="762.363" fill="url(#paint0_radial_251_6620)"/>
</g>
<defs>
<radialGradient id="paint0_radial_251_6620" cx="0" cy="0" r="1" gradientUnits="userSpaceOnUse" gradientTransform="translate(444.974 304.5) rotate(90) scale(381.181 444.974)">
<stop stop-color="white" stop-opacity="0"/>
<stop offset="1" stop-color="white"/>
</radialGradient>
<clipPath id="clip0_251_6620">
<rect width="708.808" height="608" fill="white" transform="translate(0 0.5)"/>
</clipPath>
</defs>
</svg>
