<svg width="450" height="565" viewBox="0 0 450 565" fill="none" xmlns="http://www.w3.org/2000/svg">
<g clip-path="url(#clip0_251_6888)">
<path d="M265.776 491.166H84.6492C76.2224 491.166 69.3867 484.331 69.3867 475.904V403.736C69.3867 395.309 76.2224 388.473 84.6492 388.473L106.846 423.163L244.935 423.516L265.756 388.473C274.183 388.473 281.019 395.309 281.019 403.736V475.904C281.019 484.331 274.183 491.166 265.756 491.166H265.776Z" fill="#ECF3FB" stroke="#0ABAAD" stroke-width="2" stroke-miterlimit="10"/>
<path d="M106.846 423.163L84.6494 388.473V412.025C84.6494 418.331 89.8155 423.438 96.1405 423.339L106.865 423.163H106.846Z" fill="#ECF3FB" stroke="#0ABAAD" stroke-width="2" stroke-miterlimit="10"/>
<path d="M281.038 475.885V403.717C281.038 396.508 276.049 390.478 269.331 388.886C269.213 401.085 269.292 429.488 269.37 451.115C269.429 466.319 257.113 478.674 241.909 478.674H69.6416C70.9577 485.785 77.1648 491.167 84.6487 491.167H265.756C274.183 491.167 281.018 484.331 281.018 475.904L281.038 475.885Z" fill="#ECF3FB" stroke="#0ABAAD" stroke-width="2" stroke-miterlimit="10"/>
<path d="M62.2171 532.102L52.4546 491.304C50.3528 482.504 57.0314 474.038 66.0671 474.038H282.571C291.665 474.038 298.344 482.563 296.164 491.402L286.106 532.102H62.2171Z" fill="#ECF3FB" stroke="#0ABAAD" stroke-width="2" stroke-miterlimit="10"/>
<path d="M282.57 474.038H273.888L267.033 492.679C262.162 505.938 249.531 514.738 235.408 514.738H58.0723L62.2169 532.083H286.126L296.183 491.383C298.363 482.563 291.685 474.018 282.59 474.018L282.57 474.038Z" fill="#ECF3FB" stroke="#0ABAAD" stroke-width="2" stroke-miterlimit="10"/>
<path d="M315.276 525.326H33.0674V538.86H315.276V525.326Z" fill="#ECF3FB" stroke="#0ABAAD" stroke-width="2" stroke-miterlimit="10"/>
<path d="M265.776 372.268V388.454L244.955 423.497L106.865 423.163L84.6492 388.454V372.268L73.335 323.18L156.13 268.18L265.776 372.268Z" fill="#ECF3FB" stroke="#0ABAAD" stroke-width="2" stroke-miterlimit="10"/>
<path d="M162.71 310.393L240.771 378.043V388.886L214.764 423.418L244.935 423.497L265.757 388.454V372.268L170.94 282.264C167.365 289.316 164.537 298.568 162.69 310.393H162.71Z" fill="#ECF3FB" stroke="#0ABAAD" stroke-width="2" stroke-miterlimit="10"/>
<path d="M134.149 282.776L73.335 323.181L79.1689 348.481C93.3314 360.326 120.419 376.846 152.437 359.088C189.503 338.542 191.546 315.226 188.305 298.726L169.821 281.165C160.431 280.281 147.605 280.517 134.169 282.776H134.149Z" fill="#ECF3FB" stroke="#0ABAAD" stroke-width="2" stroke-miterlimit="10"/>
<path d="M244.364 160.07L348.824 205.296L358.673 182.547L254.213 137.321L244.364 160.07Z" fill="#ECF3FB" stroke="#0ABAAD" stroke-width="2" stroke-miterlimit="10"/>
<path d="M348.845 205.285L244.385 160.047L246.212 155.843L350.928 200.472L348.845 205.285Z" fill="#ECF3FB" stroke="#0ABAAD" stroke-width="2" stroke-miterlimit="10"/>
<path d="M321.444 179.297C322.956 179.356 324.429 178.492 325.078 177.018C325.922 175.093 325.038 172.854 323.113 172.009L268.31 147.967C266.385 147.122 264.145 148.006 263.301 149.931C262.456 151.856 263.34 154.095 265.265 154.94L320.069 178.983C320.52 179.179 320.992 179.277 321.444 179.297Z" fill="#ECF3FB" stroke="#0ABAAD" stroke-width="2" stroke-miterlimit="10"/>
<path d="M217.062 169.338C232.56 175.211 249.885 167.433 255.758 151.934C261.631 136.436 253.853 119.111 238.354 113.238L217.062 169.338Z" fill="#ECF3FB" stroke="#0ABAAD" stroke-width="2" stroke-miterlimit="10"/>
<path d="M245.229 158.043C244.483 157.336 244.267 156.197 244.758 155.254C253.676 137.713 240.378 122.47 239.808 121.822C238.944 120.84 239.022 119.347 240.004 118.463C240.987 117.599 242.479 117.677 243.363 118.64C243.52 118.817 259.431 136.927 249.021 157.395C248.431 158.574 246.997 159.026 245.819 158.436C245.603 158.338 245.426 158.201 245.249 158.043H245.229Z" fill="#ECF3FB" stroke="#0ABAAD" stroke-width="2" stroke-miterlimit="10"/>
<path d="M369.386 188.365L336.207 202.599L356.923 250.888L390.103 236.653L369.386 188.365Z" fill="#ECF3FB" stroke="#0ABAAD" stroke-width="2" stroke-miterlimit="10"/>
<path d="M351.89 219.643C366.546 219.643 378.428 207.762 378.428 193.106C378.428 178.449 366.546 166.568 351.89 166.568C337.234 166.568 325.353 178.449 325.353 193.106C325.353 207.762 337.234 219.643 351.89 219.643Z" fill="#ECF3FB" stroke="#0ABAAD" stroke-width="2" stroke-miterlimit="10"/>
<path d="M362.046 205.025C368.638 199.413 369.432 189.52 363.82 182.929C358.208 176.337 348.315 175.543 341.723 181.155C335.132 186.767 334.337 196.66 339.949 203.251C345.561 209.843 355.454 210.637 362.046 205.025Z" fill="#ECF3FB" stroke="#0ABAAD" stroke-width="2" stroke-miterlimit="10"/>
<path d="M387.644 268.576L381.795 271.086L402.511 319.374L408.36 316.865L387.644 268.576Z" fill="#ECF3FB" stroke="#0ABAAD" stroke-width="2" stroke-miterlimit="10"/>
<path d="M359.001 263.663C363.637 274.604 376.267 279.711 387.208 275.075C398.149 270.439 403.256 257.809 398.621 246.868L359.001 263.643V263.663Z" fill="#ECF3FB" stroke="#0ABAAD" stroke-width="2" stroke-miterlimit="10"/>
<path d="M396.656 232.425L349.379 252.708L356.999 270.471L404.277 250.188L396.656 232.425Z" fill="#ECF3FB" stroke="#0ABAAD" stroke-width="2" stroke-miterlimit="10"/>
<path d="M360.057 251.915L355.763 253.763L360.671 265.166L364.965 263.318L360.057 251.915Z" fill="#ECF3FB" stroke="#0ABAAD" stroke-width="2" stroke-miterlimit="10"/>
<path d="M355.471 222.223L351.146 224L359.598 244.567L363.922 242.79L355.471 222.223Z" fill="#ECF3FB" stroke="#0ABAAD" stroke-width="2" stroke-miterlimit="10"/>
<path d="M377.543 273.268C371.336 273.268 367.997 270.401 367.801 270.224C367.309 269.792 367.27 269.045 367.702 268.574C368.134 268.083 368.861 268.043 369.352 268.476C369.608 268.711 375.736 273.838 387.483 268.554C388.072 268.279 388.759 268.554 389.034 269.143C389.309 269.733 389.034 270.42 388.445 270.695C384.163 272.62 380.509 273.288 377.543 273.288V273.268Z" fill="#ECF3FB" stroke="#0ABAAD" stroke-width="2" stroke-miterlimit="10"/>
<path d="M233.15 132.331L163.869 319.92C152.889 345.534 125.723 358.459 103.193 348.795L94.9229 345.259C72.3926 335.595 63.0033 307.015 73.9836 281.4L162.553 102.1C173.534 76.486 194.905 61.086 217.435 70.7306C239.966 80.3949 244.11 106.736 233.15 132.331Z" fill="#ECF3FB" stroke="#0ABAAD" stroke-width="2" stroke-miterlimit="10"/>
<path d="M70.6055 314.656C73.6305 328.288 82.1555 339.818 94.9233 345.279L103.193 348.815C125.723 358.479 152.889 345.534 163.87 319.94L186.498 258.673C148.705 332.629 92.2323 322.1 70.6055 314.656Z" fill="#ECF3FB" stroke="#0ABAAD" stroke-width="2" stroke-miterlimit="10"/>
<path d="M227.257 76.9373C203.882 132.684 143.009 286.33 117.061 351.957C135.918 352.802 155.089 340.427 163.869 319.939L233.15 132.35C242.284 111.057 240.928 89.2534 227.257 76.9569V76.9373Z" fill="#ECF3FB" stroke="#0ABAAD" stroke-width="2" stroke-miterlimit="10"/>
<path d="M110.107 257.711C108.28 259.577 105.393 260.167 102.918 258.949C99.834 257.436 98.5769 253.704 100.089 250.62L179.898 88.6453C181.411 85.5613 185.143 84.3042 188.227 85.8167C191.311 87.3292 192.568 91.0613 191.055 94.1453L111.247 256.12C110.952 256.729 110.559 257.26 110.107 257.731V257.711Z" fill="#ECF3FB" stroke="#0ABAAD" stroke-width="2" stroke-miterlimit="10"/>
<path d="M215.767 118.729C225.736 111.688 228.11 97.8994 221.07 87.9302C214.03 77.9611 200.241 75.5867 190.271 82.627C180.302 89.6673 177.928 103.456 184.968 113.425C192.009 123.395 205.797 125.769 215.767 118.729Z" fill="#ECF3FB" stroke="#0ABAAD" stroke-width="2" stroke-miterlimit="10"/>
<path d="M135.162 334.552C152.446 325.582 159.185 304.298 150.214 287.015C141.244 269.731 119.96 262.992 102.677 271.962C85.3931 280.933 78.6539 302.216 87.6244 319.5C96.5949 336.783 117.878 343.523 135.162 334.552Z" fill="#ECF3FB" stroke="#0ABAAD" stroke-width="2" stroke-miterlimit="10"/>
<path d="M144.875 309.315C148.21 294.976 139.289 280.649 124.95 277.315C110.611 273.981 96.2841 282.902 92.95 297.241C89.6159 311.58 98.537 325.907 112.876 329.241C127.215 332.575 141.541 323.654 144.875 309.315Z" fill="#ECF3FB" stroke="#0ABAAD" stroke-width="2" stroke-miterlimit="10"/>
<path d="M135.968 307.232C138.169 297.809 132.315 288.385 122.892 286.183C113.469 283.982 104.045 289.836 101.844 299.259C99.6421 308.682 105.496 318.106 114.919 320.307C124.342 322.509 133.766 316.655 135.968 307.232Z" fill="#ECF3FB" stroke="#0ABAAD" stroke-width="2" stroke-miterlimit="10"/>
<path d="M219.44 102.568C220.475 93.5032 213.965 85.3162 204.9 84.2818C195.836 83.2474 187.649 89.7573 186.614 98.822C185.58 107.887 192.09 116.074 201.154 117.108C210.219 118.142 218.406 111.633 219.44 102.568Z" fill="#ECF3FB" stroke="#0ABAAD" stroke-width="2" stroke-miterlimit="10"/>
<path d="M203.018 113.238C209.95 113.238 215.569 107.618 215.569 100.686C215.569 93.7541 209.95 88.1344 203.018 88.1344C196.085 88.1344 190.466 93.7541 190.466 100.686C190.466 107.618 196.085 113.238 203.018 113.238Z" fill="#ECF3FB" stroke="#0ABAAD" stroke-width="2" stroke-miterlimit="10"/>
<path d="M230.615 437.07H81.644C79.6994 437.07 78.1279 435.499 78.1279 433.554C78.1279 431.609 79.6994 430.038 81.644 430.038H230.615C232.56 430.038 234.132 431.609 234.132 433.554C234.132 435.499 232.56 437.07 230.615 437.07Z" fill="#ECF3FB" stroke="#0ABAAD" stroke-width="2" stroke-miterlimit="10"/>
<path d="M226.844 466.653H85.3962C82.6855 466.653 80.4658 464.433 80.4658 461.722V451.547C80.4658 448.837 82.6855 446.617 85.3962 446.617H226.844C229.555 446.617 231.775 448.837 231.775 451.547V461.722C231.775 464.433 229.555 466.653 226.844 466.653ZM85.3962 448.954C83.9622 448.954 82.8033 450.113 82.8033 451.547V461.722C82.8033 463.156 83.9622 464.315 85.3962 464.315H226.844C228.278 464.315 229.437 463.156 229.437 461.722V451.547C229.437 450.113 228.278 448.954 226.844 448.954H85.3962Z" fill="#ECF3FB" stroke="#0ABAAD" stroke-width="2" stroke-miterlimit="10"/>
<path d="M246.507 425.068C246.251 425.068 245.996 425.009 245.76 424.872C244.994 424.459 244.719 423.516 245.132 422.75L263.184 389.731C263.596 388.965 264.539 388.69 265.305 389.102C266.071 389.515 266.346 390.458 265.934 391.224L247.882 424.243C247.607 424.754 247.057 425.049 246.507 425.049V425.068Z" fill="#ECF3FB" stroke="#0ABAAD" stroke-width="2" stroke-miterlimit="10"/>
<path d="M91.1906 460.445C93.2952 460.445 95.0013 458.739 95.0013 456.635C95.0013 454.53 93.2952 452.824 91.1906 452.824C89.086 452.824 87.3799 454.53 87.3799 456.635C87.3799 458.739 89.086 460.445 91.1906 460.445Z" fill="#ECF3FB" stroke="#0ABAAD" stroke-width="2" stroke-miterlimit="10"/>
<path d="M133.697 460.445C135.802 460.445 137.508 458.739 137.508 456.635C137.508 454.53 135.802 452.824 133.697 452.824C131.593 452.824 129.887 454.53 129.887 456.635C129.887 458.739 131.593 460.445 133.697 460.445Z" fill="#ECF3FB" stroke="#0ABAAD" stroke-width="2" stroke-miterlimit="10"/>
<path d="M180.015 456.635C180.015 458.736 178.306 460.445 176.204 460.445C174.102 460.445 172.394 458.736 172.394 456.635C172.394 454.533 174.102 452.824 176.204 452.824C178.306 452.824 180.015 454.533 180.015 456.635Z" fill="#ECF3FB" stroke="#0ABAAD" stroke-width="2" stroke-miterlimit="10"/>
<path d="M221.128 460.445C223.233 460.445 224.939 458.739 224.939 456.635C224.939 454.53 223.233 452.824 221.128 452.824C219.023 452.824 217.317 454.53 217.317 456.635C217.317 458.739 219.023 460.445 221.128 460.445Z" fill="#ECF3FB" stroke="#0ABAAD" stroke-width="2" stroke-miterlimit="10"/>
<path d="M246.33 484.567H63.1408C61.4122 484.567 60.0176 483.172 60.0176 481.443C60.0176 479.715 61.4122 478.32 63.1408 478.32H246.33C248.059 478.32 249.453 479.715 249.453 481.443C249.453 483.172 248.059 484.567 246.33 484.567Z" fill="#ECF3FB" stroke="#0ABAAD" stroke-width="2" stroke-miterlimit="10"/>
<path d="M95.0208 391.577C93.2923 391.577 91.8976 390.182 91.8976 388.454V374.154L89.3637 368.064C88.6958 366.473 89.4619 364.647 91.053 363.979C92.644 363.311 94.4708 364.077 95.1387 365.668L98.144 372.916V388.454C98.144 390.182 96.7494 391.577 95.0208 391.577Z" fill="#ECF3FB" stroke="#0ABAAD" stroke-width="2" stroke-miterlimit="10"/>
<path d="M120.87 415.168C120.87 417.27 119.162 418.979 117.06 418.979C114.958 418.979 113.249 417.27 113.249 415.168C113.249 413.066 114.958 411.357 117.06 411.357C119.162 411.357 120.87 413.066 120.87 415.168Z" fill="#ECF3FB" stroke="#0ABAAD" stroke-width="2" stroke-miterlimit="10"/>
<path d="M157.995 418.979C160.1 418.979 161.806 417.272 161.806 415.168C161.806 413.063 160.1 411.357 157.995 411.357C155.891 411.357 154.185 413.063 154.185 415.168C154.185 417.272 155.891 418.979 157.995 418.979Z" fill="#ECF3FB" stroke="#0ABAAD" stroke-width="2" stroke-miterlimit="10"/>
<path d="M203.901 414.245C203.901 416.347 202.192 418.056 200.09 418.056C197.988 418.056 196.279 416.347 196.279 414.245C196.279 412.143 197.988 410.434 200.09 410.434C202.192 410.434 203.901 412.143 203.901 414.245Z" fill="#ECF3FB" stroke="#0ABAAD" stroke-width="2" stroke-miterlimit="10"/>
<path d="M118.906 307.073C121.011 307.073 122.717 305.367 122.717 303.263C122.717 301.158 121.011 299.452 118.906 299.452C116.802 299.452 115.096 301.158 115.096 303.263C115.096 305.367 116.802 307.073 118.906 307.073Z" fill="#ECF3FB" stroke="#0ABAAD" stroke-width="2" stroke-miterlimit="10"/>
<path d="M206.847 100.686C206.847 102.788 205.138 104.497 203.036 104.497C200.935 104.497 199.226 102.788 199.226 100.686C199.226 98.5847 200.935 96.8758 203.036 96.8758C205.138 96.8758 206.847 98.5847 206.847 100.686Z" fill="#ECF3FB" stroke="#0ABAAD" stroke-width="2" stroke-miterlimit="10"/>
<path d="M149.392 226.931C149.392 229.032 147.683 230.741 145.581 230.741C143.479 230.741 141.771 229.032 141.771 226.931C141.771 224.829 143.479 223.12 145.581 223.12C147.683 223.12 149.392 224.829 149.392 226.931Z" fill="#ECF3FB" stroke="#0ABAAD" stroke-width="2" stroke-miterlimit="10"/>
<path d="M179.701 149.381C181.587 150.324 182.372 152.602 181.43 154.488C180.487 156.374 178.208 157.159 176.322 156.217C174.437 155.274 173.651 152.995 174.594 151.109C175.537 149.224 177.815 148.438 179.701 149.381Z" fill="#ECF3FB" stroke="#0ABAAD" stroke-width="2" stroke-miterlimit="10"/>
</g>
<rect width="449.792" height="563.622" transform="matrix(-1 0 0 1 449.792 0.68924)" fill="url(#paint0_radial_251_6888)"/>
<defs>
<radialGradient id="paint0_radial_251_6888" cx="0" cy="0" r="1" gradientUnits="userSpaceOnUse" gradientTransform="translate(224.896 281.811) rotate(-90) scale(281.811 224.896)">
<stop offset="0.365" stop-color="#ECF3FB" stop-opacity="0"/>
<stop offset="1" stop-color="#ECF3FB"/>
</radialGradient>
<clipPath id="clip0_251_6888">
<rect width="377.555" height="473" fill="white" transform="translate(32.085 66.8416)"/>
</clipPath>
</defs>
</svg>
