<svg width="663" height="474" viewBox="0 0 663 474" fill="none" xmlns="http://www.w3.org/2000/svg">
<g clip-path="url(#clip0_251_6331)">
<path d="M266.443 336.24L268.537 335.277L268.09 332.765L265.784 332.577C265.478 331.802 265.101 331.075 264.63 330.394L265.831 328.374L264.019 326.566L261.995 327.764C260.842 326.989 259.524 326.449 258.112 326.191L257.523 323.866H254.958L254.37 326.191C253.57 326.331 252.793 326.59 252.064 326.918L250.228 325.345L248.134 326.801L249.004 329.055C248.44 329.619 247.945 330.253 247.545 330.957L245.145 330.699L244.274 333.094L246.275 334.432C246.18 334.972 246.133 335.559 246.133 336.123C246.133 336.358 246.133 336.592 246.157 336.851L244.062 338.025L244.721 340.49H247.098C247.451 341.195 247.898 341.899 248.393 342.533L247.357 344.646L249.31 346.29L251.217 344.928C251.923 345.327 252.699 345.656 253.499 345.891L253.876 348.168L256.417 348.38L257.194 346.219C258.041 346.149 258.865 345.961 259.641 345.679L261.242 347.299L263.454 346.032L262.842 343.824C263.477 343.284 264.042 342.65 264.536 341.969L266.796 342.392L267.878 340.091L266.113 338.635C266.325 337.837 266.419 337.015 266.419 336.146L266.443 336.24ZM262.654 336.193C262.654 339.715 259.806 342.556 256.276 342.556C252.746 342.556 249.899 339.715 249.899 336.193C249.899 332.671 252.746 329.83 256.276 329.83C259.806 329.83 262.654 332.671 262.654 336.193Z" fill="white" stroke="#0ABAAD" stroke-width="2" stroke-miterlimit="10"/>
<path d="M449.06 336.24L451.155 335.277L450.708 332.765L448.401 332.577C448.095 331.802 447.719 331.075 447.248 330.394L448.448 328.374L446.636 326.566L444.612 327.764C443.459 326.989 442.141 326.449 440.729 326.191L440.141 323.866H437.576L436.988 326.191C436.188 326.331 435.411 326.59 434.681 326.918L432.846 325.345L430.751 326.801L431.622 329.055C431.057 329.619 430.563 330.253 430.163 330.957L427.763 330.699L426.892 333.094L428.892 334.432C428.798 334.972 428.751 335.559 428.751 336.123C428.751 336.358 428.751 336.592 428.775 336.851L426.68 338.025L427.339 340.49H429.716C430.069 341.195 430.516 341.899 431.01 342.533L429.975 344.646L431.928 346.29L433.834 344.928C434.54 345.327 435.317 345.656 436.117 345.891L436.494 348.168L439.035 348.38L439.812 346.219C440.659 346.149 441.483 345.961 442.259 345.679L443.859 347.299L446.072 346.032L445.46 343.824C446.095 343.284 446.66 342.65 447.154 341.969L449.413 342.392L450.496 340.091L448.731 338.635C448.943 337.837 449.037 337.015 449.037 336.146L449.06 336.24ZM445.271 336.193C445.271 339.715 442.424 342.556 438.894 342.556C435.364 342.556 432.516 339.715 432.516 336.193C432.516 332.671 435.364 329.83 438.894 329.83C442.424 329.83 445.271 332.671 445.271 336.193Z" fill="white" stroke="#0ABAAD" stroke-width="2" stroke-miterlimit="10"/>
<path d="M364.764 324.829H348.456V407.409H364.764V324.829Z" fill="white" stroke="#0ABAAD" stroke-width="2" stroke-miterlimit="10"/>
<path d="M376.178 352.982H337.065V467.167H376.178V352.982Z" fill="white" stroke="#0ABAAD" stroke-width="2" stroke-miterlimit="10"/>
<path d="M359.539 352.982H353.703V467.167H359.539V352.982Z" fill="white" stroke="#0ABAAD" stroke-width="2" stroke-miterlimit="10"/>
<path d="M601.861 321.518H192.666V335.63H601.861V321.518Z" fill="white" stroke="#0ABAAD" stroke-width="2" stroke-miterlimit="10"/>
<path d="M243.451 322.34V335.559" stroke="#0ABAAD" stroke-width="2" stroke-miterlimit="10"/>
<path d="M257.053 322.34V335.559" stroke="#0ABAAD" stroke-width="2" stroke-miterlimit="10"/>
<path d="M270.655 322.34V335.559" stroke="#0ABAAD" stroke-width="2" stroke-miterlimit="10"/>
<path d="M284.281 322.34V335.559" stroke="#0ABAAD" stroke-width="2" stroke-miterlimit="10"/>
<path d="M297.883 322.34V335.559" stroke="#0ABAAD" stroke-width="2" stroke-miterlimit="10"/>
<path d="M311.485 322.34V335.559" stroke="#0ABAAD" stroke-width="2" stroke-miterlimit="10"/>
<path d="M325.087 322.34V335.559" stroke="#0ABAAD" stroke-width="2" stroke-miterlimit="10"/>
<path d="M338.713 322.34V335.559" stroke="#0ABAAD" stroke-width="2" stroke-miterlimit="10"/>
<path d="M352.315 322.34V335.559" stroke="#0ABAAD" stroke-width="2" stroke-miterlimit="10"/>
<path d="M365.917 322.34V335.559" stroke="#0ABAAD" stroke-width="2" stroke-miterlimit="10"/>
<path d="M379.52 322.34V335.559" stroke="#0ABAAD" stroke-width="2" stroke-miterlimit="10"/>
<path d="M393.145 322.34V335.559" stroke="#0ABAAD" stroke-width="2" stroke-miterlimit="10"/>
<path d="M406.747 322.34V335.559" stroke="#0ABAAD" stroke-width="2" stroke-miterlimit="10"/>
<path d="M420.35 322.34V335.559" stroke="#0ABAAD" stroke-width="2" stroke-miterlimit="10"/>
<path d="M433.952 322.34V335.559" stroke="#0ABAAD" stroke-width="2" stroke-miterlimit="10"/>
<path d="M447.577 322.34V335.559" stroke="#0ABAAD" stroke-width="2" stroke-miterlimit="10"/>
<path d="M461.18 322.34V335.559" stroke="#0ABAAD" stroke-width="2" stroke-miterlimit="10"/>
<path d="M474.782 322.34V335.559" stroke="#0ABAAD" stroke-width="2" stroke-miterlimit="10"/>
<path d="M488.384 322.34V335.559" stroke="#0ABAAD" stroke-width="2" stroke-miterlimit="10"/>
<path d="M502.01 322.34V335.559" stroke="#0ABAAD" stroke-width="2" stroke-miterlimit="10"/>
<path d="M219.282 215.598H80.9777L17.8853 297.333V467.191H219.282V327.459V215.598Z" fill="white" stroke="#0ABAAD" stroke-width="2" stroke-miterlimit="10"/>
<path d="M226.389 212.991H214.434V349.718H226.389V212.991Z" fill="white" stroke="#0ABAAD" stroke-width="2" stroke-miterlimit="10"/>
<path d="M47.0897 358.406C50.9239 358.406 54.032 355.305 54.032 351.479C54.032 347.653 50.9239 344.552 47.0897 344.552C43.2556 344.552 40.1475 347.653 40.1475 351.479C40.1475 355.305 43.2556 358.406 47.0897 358.406Z" fill="white" stroke="#0ABAAD" stroke-width="2" stroke-miterlimit="10"/>
<path d="M47.0897 393.415C50.9239 393.415 54.032 390.314 54.032 386.488C54.032 382.663 50.9239 379.562 47.0897 379.562C43.2556 379.562 40.1475 382.663 40.1475 386.488C40.1475 390.314 43.2556 393.415 47.0897 393.415Z" fill="white" stroke="#0ABAAD" stroke-width="2" stroke-miterlimit="10"/>
<path d="M68.6934 466.651V322.598H109.476V215.973" fill="white"/>
<path d="M68.6934 466.651V322.598H109.476V215.973" stroke="#0ABAAD" stroke-width="2" stroke-miterlimit="10"/>
<path d="M68.1991 441.409H18.0264" stroke="#0ABAAD" stroke-width="2" stroke-miterlimit="10"/>
<path d="M83.9429 394.213H75.7769V402.361H83.9429V394.213Z" fill="white" stroke="#0ABAAD" stroke-width="2" stroke-miterlimit="10"/>
<path d="M96.439 394.213H88.2729V402.361H96.439V394.213Z" fill="white" stroke="#0ABAAD" stroke-width="2" stroke-miterlimit="10"/>
<path d="M108.935 394.213H100.769V402.361H108.935V394.213Z" fill="white" stroke="#0ABAAD" stroke-width="2" stroke-miterlimit="10"/>
<path d="M83.9429 409.405H75.7769V417.553H83.9429V409.405Z" fill="white" stroke="#0ABAAD" stroke-width="2" stroke-miterlimit="10"/>
<path d="M96.439 409.405H88.2729V417.553H96.439V409.405Z" fill="white" stroke="#0ABAAD" stroke-width="2" stroke-miterlimit="10"/>
<path d="M108.935 409.405H100.769V417.553H108.935V409.405Z" fill="white" stroke="#0ABAAD" stroke-width="2" stroke-miterlimit="10"/>
<path d="M83.9429 424.597H75.7769V432.745H83.9429V424.597Z" fill="white" stroke="#0ABAAD" stroke-width="2" stroke-miterlimit="10"/>
<path d="M96.439 424.597H88.2729V432.745H96.439V424.597Z" fill="white" stroke="#0ABAAD" stroke-width="2" stroke-miterlimit="10"/>
<path d="M108.935 424.597H100.769V432.745H108.935V424.597Z" fill="white" stroke="#0ABAAD" stroke-width="2" stroke-miterlimit="10"/>
<path d="M145.2 450.778C145.2 450.778 148.894 455.568 152.965 457.775C157.037 459.982 164.05 462.565 164.05 464.397V466.228H131.55L131.927 450.027L145.223 450.754L145.2 450.778Z" fill="white" stroke="#0ABAAD" stroke-width="2" stroke-miterlimit="10"/>
<path d="M131.527 466.251H164.026V464.42C164.026 463.88 163.438 463.293 162.497 462.659H131.621L131.55 466.251H131.527Z" fill="white" stroke="#0ABAAD" stroke-width="2" stroke-miterlimit="10"/>
<path d="M140.469 325.838C140.469 325.838 141.552 367.61 141.552 372.494C141.552 377.378 136.657 387.146 135.575 396.914C134.492 406.682 131.88 450.027 131.88 450.027H144.941C144.941 450.027 154.072 405.602 158.967 385.526C163.861 365.45 167.133 316.611 167.133 316.611H142.117L140.493 325.838H140.469Z" fill="white" stroke="#0ABAAD" stroke-width="2" stroke-miterlimit="10"/>
<path d="M134.61 293.811C134.61 293.811 133.88 311.868 136.092 318.137C138.305 324.406 141.623 336.569 141.623 336.569C141.623 336.569 145.694 366.788 145.694 371.578C145.694 376.368 140.893 388.907 140.893 398.839C140.893 408.771 144.964 450.05 144.964 450.05L158.261 450.778C158.261 450.778 165.65 399.919 168.968 381.135C172.286 362.351 172.663 333.963 171.557 325.134C170.451 316.282 170.827 294.562 170.827 294.562L134.633 293.835L134.61 293.811Z" fill="white" stroke="#0ABAAD" stroke-width="2" stroke-miterlimit="10"/>
<path d="M187.536 284.748L178.522 273.266L205.539 252.298L219.541 262.535L187.536 284.748Z" fill="white" stroke="#0ABAAD" stroke-width="2" stroke-miterlimit="10"/>
<path d="M188.924 282.165L181.017 272.092L204.762 253.683L217.046 262.676L188.924 282.165Z" fill="white" stroke="#0ABAAD" stroke-width="2" stroke-miterlimit="10"/>
<path d="M181.276 263.028C181.276 263.028 187.277 259.295 189.277 259.037C191.278 258.778 199.538 259.788 200.032 260.774C200.526 261.784 200.032 263.028 199.02 263.028C198.008 263.028 191.278 261.525 191.278 261.525L186.783 265.259C186.783 265.259 196.031 265.001 196.031 266.503C196.031 268.006 193.537 268.241 192.29 268.006C191.042 267.748 187.277 267.748 186.547 267.748C185.818 267.748 182.288 270.237 179.535 270.237H175.275L174.263 266.503L181.276 263.005V263.028Z" fill="white" stroke="#0ABAAD" stroke-width="2" stroke-miterlimit="10"/>
<path d="M175.275 270.284L159.272 275.262L160.026 266.527H174.287L175.275 270.284Z" fill="white" stroke="#0ABAAD" stroke-width="2" stroke-miterlimit="10"/>
<path d="M163.414 228.582C163.414 228.582 170.051 242.952 170.804 254.012C171.533 265.071 173.392 290.125 173.769 292.332C174.146 294.539 170.804 296.746 169.698 297.122C168.592 297.497 141.27 298.601 137.928 297.85C134.61 297.122 130.539 291.956 130.539 289.373C130.539 286.79 134.963 235.955 135.339 230.789C135.716 225.624 147.812 217.265 147.812 217.265L163.391 228.582H163.414Z" fill="white" stroke="#0ABAAD" stroke-width="2" stroke-miterlimit="10"/>
<path d="M146.141 193.033L150.189 205.83L147.836 217.288L160.661 228.066L166.733 214.588L166.38 189.675L146.141 193.033Z" fill="white" stroke="#0ABAAD" stroke-width="2" stroke-miterlimit="10"/>
<path d="M153.554 199.772L145.812 203.482L147.482 207.52L154.919 203.81L153.554 199.772Z" fill="white" stroke="#0ABAAD" stroke-width="2" stroke-miterlimit="10"/>
<path d="M178.193 190.685L179.887 198.081C179.887 198.081 183.606 200.781 182.594 202.12C181.582 203.458 179.558 205.149 179.558 205.149C179.558 205.149 177.205 216.255 175.51 216.607C173.816 216.936 167.744 216.936 164.026 214.917C160.308 212.897 156.26 205.478 156.26 205.478L155.578 192.352L178.193 190.661V190.685Z" fill="white" stroke="#0ABAAD" stroke-width="2" stroke-miterlimit="10"/>
<path d="M165.085 193.925L166.144 199.561C166.144 199.561 177.464 200.805 180.806 198.715C184.147 196.626 182.265 190.99 180.806 190.145C179.347 189.3 165.085 193.902 165.085 193.902V193.925Z" fill="white" stroke="#0ABAAD" stroke-width="2" stroke-miterlimit="10"/>
<path d="M145.129 194.724L189.677 190.356L181.229 186.646L176.169 172.84C176.169 172.84 174.828 171.501 172.122 171.501C169.415 171.501 158.284 168.801 151.883 172.511C145.482 176.221 142.776 180.94 145.129 194.724Z" fill="white" stroke="#0ABAAD" stroke-width="2" stroke-miterlimit="10"/>
<path d="M166.144 199.56L148.33 198.739L147.506 196.226L165.085 193.925L166.144 199.56Z" fill="white" stroke="#0ABAAD" stroke-width="2" stroke-miterlimit="10"/>
<path d="M156.425 206.511C153.719 206.511 151.53 204.327 151.53 201.627V197.917C151.53 195.217 153.719 193.033 156.425 193.033C159.131 193.033 161.32 195.217 161.32 197.917V201.627C161.32 204.327 159.131 206.511 156.425 206.511Z" fill="white" stroke="#0ABAAD" stroke-width="2" stroke-miterlimit="10"/>
<path d="M145.411 212.522L165.509 225.483L164.05 233.02L143.529 218.58L145.411 212.522Z" fill="white" stroke="#0ABAAD" stroke-width="2" stroke-miterlimit="10"/>
<path d="M143.458 230.79C143.458 230.79 140.14 230.062 138.281 234.852C136.445 239.642 134.963 292.708 135.692 295.643C136.422 298.601 140.116 301.16 142.705 301.16C145.294 301.16 187.748 284.208 187.748 284.208L186.642 279.418L151.554 280.897L154.872 245.887" fill="white"/>
<path d="M143.458 230.79C143.458 230.79 140.14 230.062 138.281 234.852C136.445 239.642 134.963 292.708 135.692 295.643C136.422 298.601 140.116 301.16 142.705 301.16C145.294 301.16 187.748 284.208 187.748 284.208L186.642 279.418L151.554 280.897L154.872 245.887" stroke="#0ABAAD" stroke-width="2" stroke-miterlimit="10"/>
<path d="M186.665 279.441C186.665 279.441 192.525 274.768 193.278 273.031C194.031 271.293 199.02 270.542 199.773 270.284C200.526 270.025 201.515 268.546 202.268 269.274C203.021 270.025 202.268 271.763 201.515 272.021C200.762 272.279 196.761 274.51 196.761 274.51L206.009 273.759C206.009 273.759 207.021 274.51 206.504 275.755C206.009 276.999 203.75 278.009 203.75 278.009C203.75 278.009 201.75 279.746 199.75 281.249C197.749 282.752 187.748 284.231 187.748 284.231L186.642 279.441H186.665Z" fill="white" stroke="#0ABAAD" stroke-width="2" stroke-miterlimit="10"/>
<path d="M158.237 450.778C158.237 450.778 161.932 455.568 166.003 457.775C170.074 459.982 177.087 462.565 177.087 464.397V466.228H144.588L144.964 450.027L158.261 450.754L158.237 450.778Z" fill="white" stroke="#0ABAAD" stroke-width="2" stroke-miterlimit="10"/>
<path d="M144.564 466.251H177.064V464.42C177.064 463.88 176.475 463.293 175.534 462.659H144.659L144.588 466.251H144.564Z" fill="white" stroke="#0ABAAD" stroke-width="2" stroke-miterlimit="10"/>
<path d="M438.964 280.239H389.662V321.541H438.964V280.239Z" fill="white" stroke="#0ABAAD" stroke-width="2" stroke-miterlimit="10"/>
<path d="M446.542 280.239H410.513V321.541H446.542V280.239Z" fill="white" stroke="#0ABAAD" stroke-width="2" stroke-miterlimit="10"/>
<path d="M607.038 377.683H513.235V285.147C513.235 278.737 518.459 273.524 524.884 273.524H575.857C593.083 273.524 607.038 287.448 607.038 304.636V377.683Z" fill="white" stroke="#0ABAAD" stroke-width="2" stroke-miterlimit="10"/>
<path d="M624.971 386.629H495.279V371.555C495.279 362.797 502.386 355.706 511.164 355.706H609.086C617.864 355.706 624.971 362.797 624.971 371.555V386.629Z" fill="white" stroke="#0ABAAD" stroke-width="2" stroke-miterlimit="10"/>
<path d="M646.174 467.191H474.076V394.19C474.076 388.672 478.547 384.211 484.077 384.211H636.172C641.702 384.211 646.174 388.672 646.174 394.19V467.191Z" fill="white" stroke="#0ABAAD" stroke-width="2" stroke-miterlimit="10"/>
<path d="M550.111 355.025V335.184H586.87V273.5" fill="white"/>
<path d="M550.111 355.025V335.184H586.87V273.5" stroke="#0ABAAD" stroke-width="2" stroke-miterlimit="10"/>
<path d="M586.87 309.919H606.167" stroke="#0ABAAD" stroke-width="2" stroke-miterlimit="10"/>
<path d="M564.89 204.022H490.949V218.133H564.89V204.022Z" fill="white" stroke="#0ABAAD" stroke-width="2" stroke-miterlimit="10"/>
<path d="M514.529 217.758V203.834" stroke="#0ABAAD" stroke-width="2" stroke-miterlimit="10"/>
<path d="M519.471 217.758V203.834" stroke="#0ABAAD" stroke-width="2" stroke-miterlimit="10"/>
<path d="M524.413 217.758V203.834" stroke="#0ABAAD" stroke-width="2" stroke-miterlimit="10"/>
<path d="M529.355 217.758V203.834" stroke="#0ABAAD" stroke-width="2" stroke-miterlimit="10"/>
<path d="M534.297 217.758V203.834" stroke="#0ABAAD" stroke-width="2" stroke-miterlimit="10"/>
<path d="M539.215 217.758V203.834" stroke="#0ABAAD" stroke-width="2" stroke-miterlimit="10"/>
<path d="M544.157 217.758V203.834" stroke="#0ABAAD" stroke-width="2" stroke-miterlimit="10"/>
<path d="M578.492 215.034L556.465 294.422C553.782 302.217 545.263 306.35 537.45 303.673C529.637 300.996 525.495 292.496 528.178 284.701L550.205 205.313C552.888 197.518 561.407 193.385 569.22 196.062C577.033 198.739 581.175 207.239 578.492 215.034Z" fill="white" stroke="#0ABAAD" stroke-width="2" stroke-miterlimit="10"/>
<path d="M448.26 278.666L468.263 266.879L451.296 255.679L448.26 278.666Z" fill="white" stroke="#0ABAAD" stroke-width="2" stroke-miterlimit="10"/>
<path d="M491.499 203.206L461.219 248.817L470.734 255.106L501.014 209.495L491.499 203.206Z" fill="white" stroke="#0ABAAD" stroke-width="2" stroke-miterlimit="10"/>
<path d="M466.216 266.151L452.778 257.275C450.872 256.007 450.354 253.448 451.602 251.546L472.24 220.435L492.596 233.889L471.958 265C470.687 266.902 468.122 267.419 466.216 266.175V266.151Z" fill="white" stroke="#0ABAAD" stroke-width="2" stroke-miterlimit="10"/>
<path d="M494.196 224.919C502.761 224.919 509.705 217.992 509.705 209.446C509.705 200.9 502.761 193.972 494.196 193.972C485.631 193.972 478.688 200.9 478.688 209.446C478.688 217.992 485.631 224.919 494.196 224.919Z" fill="white" stroke="#0ABAAD" stroke-width="2" stroke-miterlimit="10"/>
<path d="M494.196 216.772C498.251 216.772 501.539 213.492 501.539 209.446C501.539 205.4 498.251 202.12 494.196 202.12C490.141 202.12 486.854 205.4 486.854 209.446C486.854 213.492 490.141 216.772 494.196 216.772Z" fill="white" stroke="#0ABAAD" stroke-width="2" stroke-miterlimit="10"/>
<path d="M564.89 224.919C573.455 224.919 580.399 217.992 580.399 209.446C580.399 200.9 573.455 193.972 564.89 193.972C556.325 193.972 549.382 200.9 549.382 209.446C549.382 217.992 556.325 224.919 564.89 224.919Z" fill="white" stroke="#0ABAAD" stroke-width="2" stroke-miterlimit="10"/>
<path d="M564.89 216.772C568.945 216.772 572.233 213.492 572.233 209.446C572.233 205.4 568.945 202.12 564.89 202.12C560.835 202.12 557.548 205.4 557.548 209.446C557.548 213.492 560.835 216.772 564.89 216.772Z" fill="white" stroke="#0ABAAD" stroke-width="2" stroke-miterlimit="10"/>
<path d="M542.44 305.035C551.005 305.035 557.948 298.107 557.948 289.561C557.948 281.015 551.005 274.087 542.44 274.087C533.874 274.087 526.931 281.015 526.931 289.561C526.931 298.107 533.874 305.035 542.44 305.035Z" fill="white" stroke="#0ABAAD" stroke-width="2" stroke-miterlimit="10"/>
<path d="M542.44 296.887C546.495 296.887 549.782 293.607 549.782 289.561C549.782 285.515 546.495 282.235 542.44 282.235C538.384 282.235 535.097 285.515 535.097 289.561C535.097 293.607 538.384 296.887 542.44 296.887Z" fill="white" stroke="#0ABAAD" stroke-width="2" stroke-miterlimit="10"/>
<path d="M442.823 264.719L445.247 272.444" stroke="#0ABAAD" stroke-width="2" stroke-miterlimit="10"/>
<path d="M434.116 270.495L440.894 275.332" stroke="#0ABAAD" stroke-width="2" stroke-miterlimit="10"/>
<path d="M454.919 280.169L463.133 280.639" stroke="#0ABAAD" stroke-width="2" stroke-miterlimit="10"/>
<path d="M450.566 283.527L455.39 293.177" stroke="#0ABAAD" stroke-width="2" stroke-miterlimit="10"/>
<path d="M457.814 285.476L461.203 287.401" stroke="#0ABAAD" stroke-width="2" stroke-miterlimit="10"/>
<path d="M400.511 0.328726V94.0157H392.98V0" fill="white"/>
<path d="M400.511 0.328726V94.0157H392.98V0" stroke="#0ABAAD" stroke-width="2" stroke-miterlimit="10"/>
<path d="M365.188 210.573V239.336" stroke="#0ABAAD" stroke-width="2" stroke-miterlimit="10"/>
<path d="M396.746 190.614L365.988 209.845" stroke="#0ABAAD" stroke-width="2" stroke-miterlimit="10"/>
<path d="M371.377 210.573C371.377 207.168 368.6 204.397 365.188 204.397C361.775 204.397 358.999 207.168 358.999 210.573C358.999 213.977 361.775 216.748 365.188 216.748C368.6 216.748 371.377 213.977 371.377 210.573Z" fill="white" stroke="#0ABAAD" stroke-width="2" stroke-miterlimit="10"/>
<path d="M368.106 210.572C368.106 208.952 366.788 207.661 365.188 207.661C363.587 207.661 362.27 208.976 362.27 210.572C362.27 212.169 363.587 213.484 365.188 213.484C366.788 213.484 368.106 212.169 368.106 210.572Z" fill="white" stroke="#0ABAAD" stroke-width="2" stroke-miterlimit="10"/>
<path d="M428.092 210.573V239.336" stroke="#0ABAAD" stroke-width="2" stroke-miterlimit="10"/>
<path d="M396.534 190.614L427.292 209.845" stroke="#0ABAAD" stroke-width="2" stroke-miterlimit="10"/>
<path d="M421.902 210.573C421.902 207.168 424.679 204.397 428.092 204.397C431.504 204.397 434.281 207.168 434.281 210.573C434.281 213.977 431.504 216.748 428.092 216.748C424.679 216.748 421.902 213.977 421.902 210.573Z" fill="white" stroke="#0ABAAD" stroke-width="2" stroke-miterlimit="10"/>
<path d="M425.173 210.572C425.173 208.952 426.491 207.661 428.091 207.661C429.692 207.661 431.01 208.976 431.01 210.572C431.01 212.169 429.692 213.484 428.091 213.484C426.491 213.484 425.173 212.169 425.173 210.572Z" fill="white" stroke="#0ABAAD" stroke-width="2" stroke-miterlimit="10"/>
<path d="M403.97 78.0959H389.521V173.497H403.97V78.0959Z" fill="white" stroke="#0ABAAD" stroke-width="2" stroke-miterlimit="10"/>
<path d="M396.746 207.098C387.615 207.098 380.226 199.725 380.226 190.614V125.597H413.266V190.614C413.266 199.725 405.877 207.098 396.746 207.098Z" fill="white" stroke="#0ABAAD" stroke-width="2" stroke-miterlimit="10"/>
<path d="M416.89 122.92H376.602V132.993H416.89V122.92Z" fill="white" stroke="#0ABAAD" stroke-width="2" stroke-miterlimit="10"/>
<path d="M396.746 203.67C403.972 203.67 409.83 197.825 409.83 190.614C409.83 183.404 403.972 177.559 396.746 177.559C389.519 177.559 383.661 183.404 383.661 190.614C383.661 197.825 389.519 203.67 396.746 203.67Z" fill="white" stroke="#0ABAAD" stroke-width="2" stroke-miterlimit="10"/>
<path d="M396.745 196.79C400.164 196.79 402.935 194.025 402.935 190.615C402.935 187.204 400.164 184.439 396.745 184.439C393.327 184.439 390.556 187.204 390.556 190.615C390.556 194.025 393.327 196.79 396.745 196.79Z" fill="white" stroke="#0ABAAD" stroke-width="2" stroke-miterlimit="10"/>
<path d="M390.345 141.024H383.261V170.633H390.345V141.024Z" fill="white" stroke="#0ABAAD" stroke-width="2" stroke-miterlimit="10"/>
<path d="M410.277 141.024H403.194V170.633H410.277V141.024Z" fill="white" stroke="#0ABAAD" stroke-width="2" stroke-miterlimit="10"/>
<path d="M302.095 234.664H252.793V275.966H302.095V234.664Z" fill="white" stroke="#0ABAAD" stroke-width="2" stroke-miterlimit="10"/>
<path d="M309.673 234.664H273.644V275.966H309.673V234.664Z" fill="white" stroke="#0ABAAD" stroke-width="2" stroke-miterlimit="10"/>
<path d="M285.081 0.328726V94.0157H277.55V0" fill="white"/>
<path d="M285.081 0.328726V94.0157H277.55V0" stroke="#0ABAAD" stroke-width="2" stroke-miterlimit="10"/>
<path d="M249.758 210.573V239.336" stroke="#0ABAAD" stroke-width="2" stroke-miterlimit="10"/>
<path d="M281.315 190.614L250.581 209.845" stroke="#0ABAAD" stroke-width="2" stroke-miterlimit="10"/>
<path d="M255.947 210.573C255.947 207.168 253.17 204.397 249.758 204.397C246.345 204.397 243.568 207.168 243.568 210.573C243.568 213.977 246.345 216.748 249.758 216.748C253.17 216.748 255.947 213.977 255.947 210.573Z" fill="white" stroke="#0ABAAD" stroke-width="2" stroke-miterlimit="10"/>
<path d="M252.699 210.572C252.699 208.952 251.381 207.661 249.781 207.661C248.181 207.661 246.863 208.976 246.863 210.572C246.863 212.169 248.181 213.484 249.781 213.484C251.381 213.484 252.699 212.169 252.699 210.572Z" fill="white" stroke="#0ABAAD" stroke-width="2" stroke-miterlimit="10"/>
<path d="M312.662 210.573V239.336" stroke="#0ABAAD" stroke-width="2" stroke-miterlimit="10"/>
<path d="M281.127 190.614L311.862 209.845" stroke="#0ABAAD" stroke-width="2" stroke-miterlimit="10"/>
<path d="M306.496 210.573C306.496 207.168 309.273 204.397 312.685 204.397C316.098 204.397 318.875 207.168 318.875 210.573C318.875 213.977 316.098 216.748 312.685 216.748C309.273 216.748 306.496 213.977 306.496 210.573Z" fill="white" stroke="#0ABAAD" stroke-width="2" stroke-miterlimit="10"/>
<path d="M309.744 210.572C309.744 208.952 311.062 207.661 312.662 207.661C314.262 207.661 315.58 208.976 315.58 210.572C315.58 212.169 314.262 213.484 312.662 213.484C311.062 213.484 309.744 212.169 309.744 210.572Z" fill="white" stroke="#0ABAAD" stroke-width="2" stroke-miterlimit="10"/>
<path d="M288.54 78.0959H274.091V173.497H288.54V78.0959Z" fill="white" stroke="#0ABAAD" stroke-width="2" stroke-miterlimit="10"/>
<path d="M281.316 207.098C272.185 207.098 264.795 199.725 264.795 190.614V125.597H297.836V190.614C297.836 199.725 290.447 207.098 281.316 207.098Z" fill="white" stroke="#0ABAAD" stroke-width="2" stroke-miterlimit="10"/>
<path d="M301.46 122.92H261.171V132.993H301.46V122.92Z" fill="white" stroke="#0ABAAD" stroke-width="2" stroke-miterlimit="10"/>
<path d="M281.315 203.67C288.542 203.67 294.4 197.825 294.4 190.614C294.4 183.404 288.542 177.559 281.315 177.559C274.089 177.559 268.231 183.404 268.231 190.614C268.231 197.825 274.089 203.67 281.315 203.67Z" fill="white" stroke="#0ABAAD" stroke-width="2" stroke-miterlimit="10"/>
<path d="M281.315 196.79C284.733 196.79 287.504 194.025 287.504 190.615C287.504 187.204 284.733 184.439 281.315 184.439C277.897 184.439 275.126 187.204 275.126 190.615C275.126 194.025 277.897 196.79 281.315 196.79Z" fill="white" stroke="#0ABAAD" stroke-width="2" stroke-miterlimit="10"/>
<path d="M274.938 141.024H267.854V170.633H274.938V141.024Z" fill="white" stroke="#0ABAAD" stroke-width="2" stroke-miterlimit="10"/>
<path d="M294.847 141.024H287.764V170.633H294.847V141.024Z" fill="white" stroke="#0ABAAD" stroke-width="2" stroke-miterlimit="10"/>
<path d="M661.823 466.251H1.17676V472.826H661.823V466.251Z" fill="white" stroke="#0ABAAD" stroke-width="2" stroke-miterlimit="10"/>
<rect width="663" height="477" fill="url(#paint0_radial_251_6331)"/>
</g>
<defs>
<radialGradient id="paint0_radial_251_6331" cx="0" cy="0" r="1" gradientUnits="userSpaceOnUse" gradientTransform="translate(331.5 238.5) rotate(90) scale(238.5 331.5)">
<stop offset="0.505" stop-color="white" stop-opacity="0"/>
<stop offset="1" stop-color="white"/>
</radialGradient>
<clipPath id="clip0_251_6331">
<rect width="663" height="474" fill="white"/>
</clipPath>
</defs>
</svg>
