<svg width="405" height="607" viewBox="0 0 405 607" fill="none" xmlns="http://www.w3.org/2000/svg">
<g clip-path="url(#clip0_251_6139)">
<path d="M271.312 178.982L269.569 178.411C276.785 156.81 274.961 133.223 264.749 115.377C257.751 103.189 247.404 95.0818 235.559 92.5518C205.769 86.213 181.834 100.523 148.695 120.328L146.026 121.906C121.165 136.76 91.103 139.29 65.6156 128.735C48.2428 121.525 36.2616 109.365 32.7489 95.3267C29.2907 81.5065 33.2663 67.1694 44.2672 53.8117C52.5179 43.8002 61.9668 37.7607 62.0485 37.7063L63.0288 39.257C63.0288 39.257 53.7161 45.2149 45.6559 55.0359C34.9001 68.0944 31.1695 81.5065 34.5188 94.9186C37.8954 108.385 49.4954 120.111 66.3236 127.075C76.5077 131.292 87.4269 133.387 98.4551 133.387C114.466 133.387 130.668 129.007 145.1 120.383L147.769 118.805C181.262 98.7817 205.442 84.3358 235.94 90.8106C248.302 93.4495 259.086 101.856 266.329 114.506C276.812 132.815 278.664 156.919 271.312 179.037V178.982Z" fill="#ECF3FB" stroke="#0ABAAD" stroke-width="1.5" stroke-miterlimit="10"/>
<path d="M168.654 168.372C161.22 168.372 152.697 167.012 143.358 163.312C123.888 155.613 114.848 138.773 110.681 126.041C106.188 112.275 106.27 100.115 106.27 100.006H107.495C107.495 100.006 107.414 112.112 111.852 125.688C115.937 138.175 124.787 154.661 143.793 162.17C170.479 172.725 190.166 163.829 197.409 159.503C206.232 154.226 212.168 146.771 212.958 140.052C214.564 125.932 204.353 116.275 194.468 106.943C182.841 95.9523 171.867 85.56 184.23 69.8354L185.183 70.5972C173.501 85.4512 183.604 95.0002 195.313 106.045C204.952 115.159 215.871 125.47 214.183 140.188C213.366 147.288 207.185 155.096 198.063 160.564C193.216 163.475 182.896 168.372 168.682 168.372H168.654Z" fill="#ECF3FB" stroke="#0ABAAD" stroke-width="1.5" stroke-miterlimit="10"/>
<path d="M308.835 23.0427H66.8955V70.1891H308.835V23.0427Z" fill="#ECF3FB" stroke="#0ABAAD" stroke-width="1.5" stroke-miterlimit="10"/>
<path d="M304.505 4.08092H70.1632C60.8777 4.08092 53.335 11.5895 53.335 20.8937V59.9058C53.335 69.1827 60.8505 76.7185 70.1632 76.7185C72.0693 76.7185 73.5942 75.195 73.5942 73.2907V40.3997C73.5942 34.1153 78.6862 29.028 84.9763 29.028H159.478C165.768 29.028 170.86 34.1153 170.86 40.3997V70.2981C170.86 73.8348 173.746 76.7185 177.286 76.7185H197.709C201.249 76.7185 204.135 73.8348 204.135 70.2981V40.3997C204.135 34.1153 209.227 29.028 215.517 29.028H291.462C294.512 29.028 300.094 31.7485 302.136 37.8696C304.288 44.3445 302.872 54.3287 302.872 57.5661V75.0862C302.872 75.984 303.607 76.7185 304.505 76.7185C313.791 76.7185 321.334 69.2099 321.334 59.9058V20.8665C321.334 11.5895 313.818 4.05371 304.505 4.05371V4.08092Z" fill="#ECF3FB" stroke="#0ABAAD" stroke-width="1.5" stroke-miterlimit="10"/>
<path d="M73.5941 73.2634V40.3725C73.5941 34.0881 78.6861 29.0007 84.9763 29.0007H79.7209C72.6411 29.0007 66.8955 34.741 66.8955 41.8143V76.3648C67.9575 76.5824 69.0467 76.6913 70.1631 76.6913C72.0692 76.6913 73.5941 75.1678 73.5941 73.2634Z" fill="#ECF3FB" stroke="#0ABAAD" stroke-width="1.5" stroke-miterlimit="10"/>
<path d="M195.095 76.6913H197.709C201.249 76.6913 204.135 73.8075 204.135 70.2709V40.3725C204.135 34.0881 209.227 29.0007 215.517 29.0007H204.761C199.424 29.0007 195.095 33.3263 195.095 38.6585V76.6913Z" fill="#ECF3FB" stroke="#0ABAAD" stroke-width="1.5" stroke-miterlimit="10"/>
<path d="M305.022 4.08081C309.298 9.19537 315.179 18.0098 315.179 29.0007V72.8825C318.937 69.8083 321.333 65.129 321.333 59.9057V20.8664C321.333 11.7526 314.09 4.35286 305.022 4.08081Z" fill="#ECF3FB" stroke="#0ABAAD" stroke-width="1.5" stroke-miterlimit="10"/>
<path d="M321.007 17.629H53.6614L40.8633 1.36035H334.322L321.007 17.629Z" fill="#ECF3FB" stroke="#0ABAAD" stroke-width="1.5" stroke-miterlimit="10"/>
<path d="M36.5065 157.572L103.084 45.9224C108.775 36.3734 121.138 33.2448 130.723 38.9307C140.28 44.6165 143.412 56.9676 137.721 66.5438L71.1432 178.194C65.4521 187.743 53.0896 190.871 43.5047 185.185C33.9469 179.499 30.8154 167.148 36.5065 157.572Z" fill="#ECF3FB" stroke="#0ABAAD" stroke-width="1.5" stroke-miterlimit="10"/>
<path d="M136.277 43.8276L46.7993 186.763C55.7308 190.082 66.051 186.654 71.0886 178.194L137.666 66.5439C142.05 59.1985 141.206 50.1936 136.25 43.8548L136.277 43.8276Z" fill="#ECF3FB" stroke="#0ABAAD" stroke-width="1.5" stroke-miterlimit="10"/>
<path d="M119.721 72.6923C112.315 72.6923 105.78 67.3057 104.554 59.7971C103.22 51.4451 108.911 43.5556 117.271 42.2226C125.63 40.8895 133.527 46.5754 134.861 54.9274C136.196 63.2793 130.505 71.1688 122.145 72.5019C121.328 72.6379 120.511 72.6923 119.694 72.6923H119.721ZM107.577 59.3074C108.666 65.9998 114.983 70.5703 121.682 69.4821C128.381 68.3939 132.955 62.0823 131.866 55.3899C130.777 48.6974 124.46 44.127 117.761 45.2152C111.062 46.3034 106.488 52.6149 107.577 59.3074Z" fill="#ECF3FB" stroke="#0ABAAD" stroke-width="1.5" stroke-miterlimit="10"/>
<path d="M117.271 67.0609C117.271 67.0609 117.108 67.0609 116.999 67.0609C113.295 65.9999 110.491 62.8713 109.864 59.0626C108.993 53.6487 112.696 48.5342 118.115 47.6636C122.118 47.0107 126.066 48.8334 128.19 52.2885C128.354 52.5877 128.272 52.9414 128 53.1318C127.7 53.2951 127.346 53.2135 127.155 52.9414C125.304 49.9216 121.818 48.3165 118.306 48.8878C113.54 49.6496 110.3 54.1384 111.063 58.8993C111.607 62.2456 114.058 64.9933 117.325 65.9182C117.652 65.9999 117.843 66.3535 117.734 66.68C117.679 66.9248 117.462 67.0881 117.244 67.1153L117.271 67.0609Z" fill="#ECF3FB" stroke="#0ABAAD" stroke-width="1.5" stroke-miterlimit="10"/>
<path d="M42.96 164.265C42.6877 164.265 42.4154 164.183 42.1703 164.047C41.4623 163.612 41.2172 162.659 41.6529 161.952L97.284 70.3798C97.7197 69.6725 98.6728 69.4276 99.3807 69.8629C100.089 70.2982 100.334 71.2504 99.8981 71.9577L44.267 163.53C43.9675 163.993 43.4773 164.265 42.96 164.265Z" fill="#ECF3FB" stroke="#0ABAAD" stroke-width="1.5" stroke-miterlimit="10"/>
<path d="M58.6172 144.623C51.5647 144.623 45.1111 147.18 40.1552 151.424L36.4792 157.572C30.7881 167.121 33.9195 179.472 43.4773 185.185C53.0351 190.871 65.3975 187.743 71.1159 178.194L82.961 158.334C77.9779 150.118 68.9375 144.65 58.6172 144.65V144.623Z" fill="#ECF3FB" stroke="#0ABAAD" stroke-width="1.5" stroke-miterlimit="10"/>
<path d="M123.721 222.013L108.774 241.622L123.245 252.632L138.192 233.023L123.721 222.013Z" fill="#ECF3FB" stroke="#0ABAAD" stroke-width="1.5" stroke-miterlimit="10"/>
<path d="M167.184 262.393L159.423 272.568L126.203 254.885L141.152 235.27L167.184 262.393Z" fill="#ECF3FB" stroke="#0ABAAD" stroke-width="1.5" stroke-miterlimit="10"/>
<path d="M141.152 237.337L128.191 254.34C126.992 255.918 124.732 256.218 123.153 255.021C121.574 253.824 121.274 251.566 122.472 249.988L135.434 232.984C136.632 231.407 138.892 231.107 140.471 232.304C142.051 233.501 142.35 235.759 141.152 237.337Z" fill="#ECF3FB" stroke="#0ABAAD" stroke-width="1.5" stroke-miterlimit="10"/>
<path d="M166.734 264.378L161.109 271.759L175.255 282.522L180.881 275.141L166.734 264.378Z" fill="#ECF3FB" stroke="#0ABAAD" stroke-width="1.5" stroke-miterlimit="10"/>
<path d="M166.707 264.366L161.082 271.746L165.739 275.29L171.365 267.909L166.707 264.366Z" fill="#ECF3FB" stroke="#0ABAAD" stroke-width="1.5" stroke-miterlimit="10"/>
<path d="M170.261 266.664L164.216 274.581C163.018 276.159 160.758 276.458 159.178 275.261C157.599 274.064 157.299 271.806 158.498 270.228L164.543 262.312C165.741 260.734 168.001 260.434 169.58 261.631C171.16 262.828 171.459 265.087 170.261 266.664Z" fill="#ECF3FB" stroke="#0ABAAD" stroke-width="1.5" stroke-miterlimit="10"/>
<path d="M192.208 287.993L193.57 292.237L179.41 281.491L180.99 279.451L192.208 287.993Z" fill="#ECF3FB" stroke="#0ABAAD" stroke-width="1.5" stroke-miterlimit="10"/>
<path d="M175.244 282.525L180.854 275.125L182.569 279.342L179.819 282.879L175.244 282.525Z" fill="#ECF3FB" stroke="#0ABAAD" stroke-width="1.5" stroke-miterlimit="10"/>
<path d="M162.01 259.292C162.01 259.564 161.956 259.863 161.765 260.108L155.475 268.161C155.094 268.65 154.386 268.732 153.896 268.324C153.433 267.916 153.351 267.154 153.732 266.664L160.022 258.612C160.404 258.122 161.112 258.04 161.602 258.449C161.847 258.666 161.983 258.993 162.01 259.292Z" fill="#ECF3FB" stroke="#0ABAAD" stroke-width="1.5" stroke-miterlimit="10"/>
<path d="M158.579 255.483C158.579 255.81 158.525 256.136 158.307 256.408L151.036 265.685C150.574 266.257 149.757 266.365 149.185 265.903C148.613 265.44 148.504 264.624 148.967 264.026L156.237 254.749C156.7 254.177 157.517 254.069 158.089 254.531C158.389 254.776 158.552 255.102 158.606 255.483H158.579Z" fill="#ECF3FB" stroke="#0ABAAD" stroke-width="1.5" stroke-miterlimit="10"/>
<path d="M154.495 251.566C154.522 251.892 154.44 252.246 154.195 252.545L146.271 262.42C145.781 263.046 144.855 263.155 144.229 262.693C143.603 262.23 143.466 261.359 143.957 260.734L151.881 250.858C152.371 250.233 153.296 250.124 153.923 250.586C154.25 250.831 154.44 251.185 154.495 251.566Z" fill="#ECF3FB" stroke="#0ABAAD" stroke-width="1.5" stroke-miterlimit="10"/>
<path d="M149.62 246.968C149.648 247.349 149.539 247.703 149.294 248.029L140.934 258.693C140.417 259.346 139.464 259.482 138.783 258.966C138.129 258.449 137.993 257.496 138.511 256.816L146.87 246.152C147.388 245.499 148.341 245.363 149.021 245.88C149.375 246.152 149.566 246.56 149.593 246.968H149.62Z" fill="#ECF3FB" stroke="#0ABAAD" stroke-width="1.5" stroke-miterlimit="10"/>
<path d="M144.147 242.833C144.175 243.214 144.066 243.567 143.821 243.894L135.461 254.558C134.944 255.211 133.99 255.347 133.31 254.83C132.656 254.313 132.52 253.361 133.037 252.681L141.397 242.017C141.914 241.364 142.867 241.228 143.548 241.745C143.902 242.017 144.093 242.425 144.12 242.833H144.147Z" fill="#ECF3FB" stroke="#0ABAAD" stroke-width="1.5" stroke-miterlimit="10"/>
<path d="M159.423 273.194C159.423 273.194 159.151 273.166 159.042 273.058C158.77 272.867 158.715 272.459 158.933 272.214L166.694 262.04C166.884 261.767 167.293 261.713 167.538 261.931C167.81 262.121 167.865 262.529 167.647 262.774L159.886 272.949C159.777 273.112 159.587 273.194 159.396 273.194H159.423Z" fill="#ECF3FB" stroke="#0ABAAD" stroke-width="1.5" stroke-miterlimit="10"/>
<path d="M123.207 252.681C123.207 252.681 122.935 252.627 122.826 252.545C122.554 252.327 122.527 251.946 122.717 251.702L137.694 232.631C137.912 232.359 138.293 232.332 138.538 232.522C138.81 232.74 138.837 233.12 138.647 233.365L123.67 252.436C123.561 252.599 123.371 252.681 123.18 252.681H123.207Z" fill="#ECF3FB" stroke="#0ABAAD" stroke-width="1.5" stroke-miterlimit="10"/>
<path d="M177.695 275.941C177.695 275.941 177.422 275.887 177.313 275.805L171.105 270.854C170.833 270.636 170.805 270.256 170.996 270.011C171.214 269.739 171.595 269.711 171.84 269.902L178.049 274.853C178.321 275.071 178.348 275.452 178.157 275.697C178.049 275.86 177.858 275.914 177.667 275.914L177.695 275.941Z" fill="#ECF3FB" stroke="#0ABAAD" stroke-width="1.5" stroke-miterlimit="10"/>
<path d="M99.2989 237.718L44.2668 181.839C36.9964 173.677 36.9691 161.87 44.1579 155.504L46.7992 153.165C53.988 146.772 65.6969 148.241 72.9673 156.402L121.818 217.75C129.089 225.911 130.967 236.059 123.779 242.452C116.59 248.845 106.542 245.907 99.2989 237.745V237.718Z" fill="#ECF3FB" stroke="#0ABAAD" stroke-width="1.5" stroke-miterlimit="10"/>
<path d="M119.939 244.873C104.064 227.271 59.6791 180.043 40.7269 159.884C37.2687 166.441 38.4668 175.282 44.2669 181.839L99.2989 237.718C105.344 244.519 113.295 247.675 119.939 244.873Z" fill="#ECF3FB" stroke="#0ABAAD" stroke-width="1.5" stroke-miterlimit="10"/>
<path d="M75.3364 173.16C74.9824 172.208 75.2547 171.066 76.0988 170.413C77.1608 169.569 78.6857 169.733 79.5298 170.794L123.697 226.129C124.541 227.19 124.351 228.713 123.316 229.557C122.254 230.4 120.729 230.237 119.885 229.176L75.7176 173.841C75.5542 173.623 75.4181 173.405 75.3364 173.16Z" fill="#ECF3FB" stroke="#0ABAAD" stroke-width="1.5" stroke-miterlimit="10"/>
<path d="M107.005 233.692C107.767 238.426 112.206 241.636 116.944 240.874C121.682 240.112 124.895 235.678 124.133 230.944C123.37 226.21 118.932 223 114.194 223.762C109.456 224.524 106.243 228.958 107.005 233.692Z" fill="#ECF3FB" stroke="#0ABAAD" stroke-width="1.5" stroke-miterlimit="10"/>
<path d="M57.6913 182.519C65.331 182.519 71.5242 176.332 71.5242 168.699C71.5242 161.066 65.331 154.879 57.6913 154.879C50.0516 154.879 43.8584 161.066 43.8584 168.699C43.8584 176.332 50.0516 182.519 57.6913 182.519Z" fill="#ECF3FB" stroke="#0ABAAD" stroke-width="1.5" stroke-miterlimit="10"/>
<path d="M263.269 198.811L239.829 191.125L234.157 208.392L257.597 216.078L263.269 198.811Z" fill="#ECF3FB" stroke="#0ABAAD" stroke-width="1.5" stroke-miterlimit="10"/>
<path d="M239.316 253.062L227.145 249.063L232.999 211.901L256.444 219.6L239.316 253.062Z" fill="#ECF3FB" stroke="#0ABAAD" stroke-width="1.5" stroke-miterlimit="10"/>
<path d="M254.51 220.28L234.17 213.614C232.291 212.989 231.256 210.975 231.882 209.071C232.509 207.194 234.524 206.16 236.43 206.786L256.771 213.451C258.649 214.077 259.684 216.09 259.058 217.994C258.432 219.871 256.417 220.905 254.51 220.28Z" fill="#ECF3FB" stroke="#0ABAAD" stroke-width="1.5" stroke-miterlimit="10"/>
<path d="M237.268 253.29L228.445 250.397L222.9 267.276L231.723 270.169L237.268 253.29Z" fill="#ECF3FB" stroke="#0ABAAD" stroke-width="1.5" stroke-miterlimit="10"/>
<path d="M228.466 250.403L226.64 255.96L235.463 258.853L237.288 253.296L228.466 250.403Z" fill="#ECF3FB" stroke="#0ABAAD" stroke-width="1.5" stroke-miterlimit="10"/>
<path d="M236.294 257.36L226.818 254.259C224.939 253.633 223.904 251.62 224.53 249.716C225.156 247.838 227.171 246.805 229.078 247.43L238.554 250.532C240.433 251.157 241.467 253.171 240.841 255.075C240.215 256.952 238.2 257.986 236.294 257.36Z" fill="#ECF3FB" stroke="#0ABAAD" stroke-width="1.5" stroke-miterlimit="10"/>
<path d="M223.305 285.082L219.738 287.748L225.266 270.881L227.716 271.67L223.305 285.082Z" fill="#ECF3FB" stroke="#0ABAAD" stroke-width="1.5" stroke-miterlimit="10"/>
<path d="M222.924 267.263L231.746 270.147L228.343 273.139L224.095 271.697L222.924 267.263Z" fill="#ECF3FB" stroke="#0ABAAD" stroke-width="1.5" stroke-miterlimit="10"/>
<path d="M240.541 247.158C240.269 247.267 239.97 247.294 239.697 247.186L230.003 243.894C229.404 243.676 229.105 243.05 229.35 242.452C229.595 241.853 230.276 241.554 230.875 241.772L240.569 245.064C241.168 245.281 241.467 245.907 241.222 246.506C241.086 246.805 240.841 247.05 240.541 247.158Z" fill="#ECF3FB" stroke="#0ABAAD" stroke-width="1.5" stroke-miterlimit="10"/>
<path d="M243.046 242.67C242.747 242.806 242.42 242.833 242.093 242.697L230.929 238.861C230.248 238.616 229.867 237.881 230.112 237.174C230.357 236.494 231.12 236.113 231.8 236.358L242.965 240.194C243.646 240.439 244.027 241.173 243.782 241.881C243.646 242.234 243.373 242.534 243.046 242.67Z" fill="#ECF3FB" stroke="#0ABAAD" stroke-width="1.5" stroke-miterlimit="10"/>
<path d="M245.415 237.528C245.116 237.664 244.735 237.691 244.408 237.555L232.454 233.311C231.719 233.039 231.283 232.223 231.528 231.461C231.746 230.699 232.536 230.318 233.298 230.563L245.252 234.807C245.987 235.079 246.423 235.895 246.178 236.657C246.069 237.065 245.769 237.365 245.443 237.501L245.415 237.528Z" fill="#ECF3FB" stroke="#0ABAAD" stroke-width="1.5" stroke-miterlimit="10"/>
<path d="M248.166 231.434C247.839 231.57 247.431 231.597 247.05 231.488L234.224 227.081C233.435 226.809 232.999 225.939 233.271 225.15C233.544 224.361 234.415 223.925 235.205 224.197L248.03 228.605C248.82 228.877 249.255 229.747 248.983 230.536C248.847 230.944 248.52 231.271 248.139 231.434H248.166Z" fill="#ECF3FB" stroke="#0ABAAD" stroke-width="1.5" stroke-miterlimit="10"/>
<path d="M250.263 224.905C249.936 225.041 249.528 225.068 249.146 224.959L236.321 220.552C235.531 220.28 235.096 219.409 235.368 218.62C235.64 217.831 236.512 217.396 237.301 217.668L250.127 222.075C250.916 222.347 251.352 223.218 251.08 224.007C250.944 224.415 250.617 224.741 250.236 224.905H250.263Z" fill="#ECF3FB" stroke="#0ABAAD" stroke-width="1.5" stroke-miterlimit="10"/>
<path d="M239.316 253.687C239.316 253.687 239.18 253.687 239.126 253.66L226.954 249.661C226.627 249.552 226.464 249.199 226.573 248.899C226.682 248.573 227.036 248.41 227.335 248.518L239.507 252.518C239.834 252.626 239.997 252.98 239.888 253.279C239.806 253.524 239.561 253.687 239.316 253.687Z" fill="#ECF3FB" stroke="#0ABAAD" stroke-width="1.5" stroke-miterlimit="10"/>
<path d="M257.615 216.689C257.615 216.689 257.479 216.689 257.424 216.661L234.496 208.745C234.17 208.636 234.006 208.282 234.115 207.983C234.224 207.657 234.578 207.493 234.878 207.602L257.805 215.519C258.132 215.628 258.295 215.981 258.187 216.281C258.105 216.525 257.86 216.689 257.615 216.689Z" fill="#ECF3FB" stroke="#0ABAAD" stroke-width="1.5" stroke-miterlimit="10"/>
<path d="M230.521 267.834C230.521 267.834 230.385 267.834 230.33 267.807C230.004 267.698 229.84 267.344 229.949 267.018L232.59 259.537C232.699 259.21 233.053 259.047 233.38 259.156C233.707 259.264 233.87 259.618 233.761 259.945L231.12 267.426C231.038 267.671 230.793 267.834 230.548 267.834H230.521Z" fill="#ECF3FB" stroke="#0ABAAD" stroke-width="1.5" stroke-miterlimit="10"/>
<path d="M318.365 174.194L245.225 66.707C238.962 57.5117 241.359 44.9973 250.562 38.7401C259.766 32.483 272.292 34.877 278.555 44.0723L351.695 151.56C357.958 160.755 355.562 173.269 346.358 179.526C337.154 185.784 324.628 183.39 318.365 174.194Z" fill="#ECF3FB" stroke="#0ABAAD" stroke-width="1.5" stroke-miterlimit="10"/>
<path d="M257.37 35.7476L349.217 177.16C355.998 170.467 357.25 159.694 351.722 151.532L278.582 44.0451C273.763 36.9718 265.267 33.9248 257.397 35.7476H257.37Z" fill="#ECF3FB" stroke="#0ABAAD" stroke-width="1.5" stroke-miterlimit="10"/>
<path d="M262.653 71.8216C261.237 71.8216 259.821 71.6312 258.432 71.2231C254.484 70.1077 251.216 67.5232 249.228 63.9321C247.241 60.341 246.75 56.2059 247.867 52.2611C250.181 44.1268 258.704 39.3931 266.846 41.7056C274.988 44.018 279.726 52.506 277.411 60.6675C276.295 64.6122 273.708 67.8769 270.114 69.89C267.799 71.1687 265.24 71.8488 262.653 71.8488V71.8216ZM262.653 44.1812C257.288 44.1812 252.333 47.7179 250.808 53.1317C249.909 56.2875 250.29 59.6065 251.897 62.4902C253.503 65.3468 256.118 67.4416 259.276 68.3393C262.435 69.2371 265.757 68.8562 268.643 67.2511C271.503 65.646 273.599 63.0343 274.498 59.8786C276.349 53.3493 272.537 46.5481 266.029 44.6981C264.913 44.3717 263.769 44.2356 262.68 44.2356L262.653 44.1812Z" fill="#ECF3FB" stroke="#0ABAAD" stroke-width="1.5" stroke-miterlimit="10"/>
<path d="M270.413 62.7894C270.413 62.7894 270.359 62.9526 270.277 63.0071C267.745 65.918 263.715 67.1422 260.011 66.0812C254.729 64.585 251.652 59.0623 253.149 53.7845C254.266 49.8942 257.588 47.0649 261.591 46.6024C261.917 46.5752 262.217 46.7928 262.271 47.1465C262.299 47.4729 262.081 47.7722 261.727 47.8266C258.187 48.2347 255.273 50.7104 254.293 54.111C252.986 58.7359 255.682 63.5784 260.311 64.9114C263.578 65.8364 267.118 64.7754 269.324 62.2181C269.542 61.9733 269.923 61.9461 270.168 62.1637C270.359 62.3269 270.413 62.5718 270.359 62.7894H270.413Z" fill="#ECF3FB" stroke="#0ABAAD" stroke-width="1.5" stroke-miterlimit="10"/>
<path d="M325.799 172.045C325.309 172.045 324.819 171.8 324.519 171.365L264.967 82.2683C264.504 81.561 264.695 80.6088 265.376 80.1463C266.084 79.6838 267.037 79.8743 267.499 80.5544L327.052 169.651C327.515 170.358 327.324 171.311 326.643 171.773C326.371 171.936 326.099 172.018 325.799 172.018V172.045Z" fill="#ECF3FB" stroke="#0ABAAD" stroke-width="1.5" stroke-miterlimit="10"/>
<path d="M315.969 148.676C313.001 155.069 312.593 161.979 314.335 168.264L318.365 174.167C324.628 183.362 337.154 185.756 346.358 179.499C355.562 173.242 357.958 160.728 351.695 151.532L338.679 132.407C329.121 133.468 320.326 139.317 315.969 148.676Z" fill="#ECF3FB" stroke="#0ABAAD" stroke-width="1.5" stroke-miterlimit="10"/>
<path d="M262.353 205.589L335.956 178.438C346.004 174.14 351.069 163.503 347.284 154.661L345.895 151.424C342.11 142.582 330.891 138.909 320.843 143.208L250.481 177.921C240.433 182.22 234.388 190.599 238.173 199.441C241.958 208.282 252.305 209.887 262.353 205.589Z" fill="#ECF3FB" stroke="#0ABAAD" stroke-width="1.5" stroke-miterlimit="10"/>
<path d="M240.624 203.276C262.489 194.108 322.777 170.249 348.509 160.075C348.836 167.474 343.989 174.983 335.956 178.411L262.353 205.562C253.994 209.125 245.443 208.609 240.624 203.249V203.276Z" fill="#ECF3FB" stroke="#0ABAAD" stroke-width="1.5" stroke-miterlimit="10"/>
<path d="M311.531 157.354C312.266 156.647 312.484 155.504 312.021 154.525C311.422 153.328 309.951 152.811 308.753 153.409L245.198 184.695C244 185.294 243.483 186.763 244.082 187.96C244.681 189.157 246.151 189.674 247.349 189.075L310.904 157.789C311.15 157.681 311.34 157.517 311.531 157.354Z" fill="#ECF3FB" stroke="#0ABAAD" stroke-width="1.5" stroke-miterlimit="10"/>
<path d="M257.098 198.651C254.402 202.596 249.01 203.603 245.062 200.909C241.114 198.216 240.106 192.83 242.802 188.885C245.498 184.94 250.889 183.934 254.837 186.627C258.786 189.32 259.793 194.707 257.098 198.651Z" fill="#ECF3FB" stroke="#0ABAAD" stroke-width="1.5" stroke-miterlimit="10"/>
<path d="M341.216 167.985C345.19 161.465 343.121 152.963 336.596 148.993C330.071 145.023 321.56 147.089 317.587 153.608C313.613 160.127 315.682 168.63 322.207 172.6C328.732 176.57 337.243 174.504 341.216 167.985Z" fill="#ECF3FB" stroke="#0ABAAD" stroke-width="1.5" stroke-miterlimit="10"/>
<path d="M58.3179 63.9321C57.4737 63.9321 56.793 63.252 56.793 62.4086V23.0157C56.793 22.1723 57.4737 21.4922 58.3179 21.4922C59.162 21.4922 59.8427 22.1723 59.8427 23.0157V62.4086C59.8427 63.252 59.162 63.9321 58.3179 63.9321Z" fill="#ECF3FB" stroke="#0ABAAD" stroke-width="1.5" stroke-miterlimit="10"/>
<path d="M306.275 71.8215C305.431 71.8215 304.75 71.1413 304.75 70.298V30.9866C304.75 30.1433 305.431 29.4631 306.275 29.4631C307.12 29.4631 307.8 30.1433 307.8 30.9866V70.298C307.8 71.1413 307.12 71.8215 306.275 71.8215Z" fill="#ECF3FB" stroke="#0ABAAD" stroke-width="1.5" stroke-miterlimit="10"/>
<path d="M286.86 24.5663H66.8955C66.0514 24.5663 65.3706 23.8861 65.3706 23.0428C65.3706 22.1994 66.0514 21.5193 66.8955 21.5193H286.86C287.704 21.5193 288.385 22.1994 288.385 23.0428C288.385 23.8861 287.704 24.5663 286.86 24.5663Z" fill="#ECF3FB" stroke="#0ABAAD" stroke-width="1.5" stroke-miterlimit="10"/>
<path d="M187.47 73.5083H181.915C178.811 73.5083 176.279 70.9782 176.279 67.8768V39.2843C176.279 36.1829 178.811 33.6528 181.915 33.6528H187.47C190.575 33.6528 193.107 36.1829 193.107 39.2843V67.8768C193.107 70.9782 190.575 73.5083 187.47 73.5083ZM181.915 34.9043C179.492 34.9043 177.504 36.8902 177.504 39.3115V67.904C177.504 70.3253 179.492 72.3113 181.915 72.3113H187.47C189.894 72.3113 191.882 70.3253 191.882 67.904V39.3115C191.882 36.8902 189.894 34.9043 187.47 34.9043H181.915Z" fill="#ECF3FB" stroke="#0ABAAD" stroke-width="1.5" stroke-miterlimit="10"/>
<path d="M180.472 54.1926C180.145 54.1926 179.873 53.9205 179.873 53.5941V42.8209C179.873 39.4474 182.623 36.6997 186 36.6997H187.361C187.688 36.6997 187.96 36.9718 187.96 37.2982C187.96 37.6247 187.688 37.8967 187.361 37.8967H186C183.304 37.8967 181.098 40.1003 181.098 42.7936V53.5669C181.098 53.8933 180.826 54.1654 180.499 54.1654L180.472 54.1926Z" fill="#ECF3FB" stroke="#0ABAAD" stroke-width="1.5" stroke-miterlimit="10"/>
<path d="M213.557 7.59043H53.3349C52.4908 7.59043 51.8101 6.9103 51.8101 6.06694C51.8101 5.22358 52.4908 4.54346 53.3349 4.54346H213.53C214.374 4.54346 215.055 5.22358 215.055 6.06694C215.055 6.9103 214.374 7.59043 213.53 7.59043H213.557Z" fill="#ECF3FB" stroke="#0ABAAD" stroke-width="1.5" stroke-miterlimit="10"/>
<path d="M11.3184 600.335L21.2301 586.46C29.0452 575.524 41.6527 569.049 55.0771 569.049H342.491C354.853 569.049 366.562 574.544 374.459 584.039L388.02 600.335H11.3184Z" fill="#ECF3FB" stroke="#0ABAAD" stroke-width="1.5" stroke-miterlimit="10"/>
<path d="M403.487 595.057H1.54297V605.612H403.487V595.057Z" fill="#ECF3FB" stroke="#0ABAAD" stroke-width="1.5" stroke-miterlimit="10"/>
<path d="M303.606 518.012H100.361V565.512H303.606V518.012Z" fill="#ECF3FB" stroke="#0ABAAD" stroke-width="1.5" stroke-miterlimit="10"/>
<path d="M55.0771 569.049V521.766C55.0771 515.4 60.2509 510.231 66.6227 510.231H109.238V523.698C109.238 538.715 121.41 559.554 136.441 559.554H270.794C285.825 559.554 297.997 538.715 297.997 523.698V510.231H338.461C344.833 510.231 350.006 515.4 350.006 521.766V569.049H55.0771Z" fill="#ECF3FB" stroke="#0ABAAD" stroke-width="1.5" stroke-miterlimit="10"/>
<path d="M109.211 523.698V510.231H86.6099V546.006C86.6099 553.488 92.6822 559.554 100.17 559.554H136.414C121.383 559.554 109.211 538.715 109.211 523.698Z" fill="#ECF3FB" stroke="#0ABAAD" stroke-width="1.5" stroke-miterlimit="10"/>
<path d="M339.033 510.286V569.049H350.006V521.766C350.006 515.591 345.159 510.558 339.033 510.259V510.286Z" fill="#ECF3FB" stroke="#0ABAAD" stroke-width="1.5" stroke-miterlimit="10"/>
<path d="M188.477 415.449L268.861 431.364C279.943 434.139 286.914 444.286 284.464 454.026L283.565 457.59C281.114 467.329 270.141 472.96 259.085 470.186L180.799 445.919C169.716 443.144 162.119 435.472 164.569 425.76C167.02 416.02 177.422 412.647 188.477 415.449Z" fill="#ECF3FB" stroke="#0ABAAD" stroke-width="1.5" stroke-miterlimit="10"/>
<path d="M166.448 421.407C190.52 427.256 256.607 441.974 284.845 448.231C283.973 440.559 277.738 433.595 268.861 431.364L188.477 415.449C179.274 413.136 170.533 415.068 166.448 421.407Z" fill="#ECF3FB" stroke="#0ABAAD" stroke-width="1.5" stroke-miterlimit="10"/>
<path d="M246.341 461.017C247.213 461.643 247.648 462.758 247.294 463.847C246.886 465.18 245.443 465.941 244.109 465.533L173.419 443.715C172.085 443.307 171.322 441.865 171.731 440.532C172.139 439.199 176.877 431.881 178.239 432.316L251.216 451.74C251.488 451.822 246.151 460.881 246.341 461.017Z" fill="#ECF3FB" stroke="#0ABAAD" stroke-width="1.5" stroke-miterlimit="10"/>
<path d="M186.511 431.371C187.444 426.455 184.212 421.715 179.292 420.782C174.372 419.85 169.627 423.079 168.694 427.995C167.76 432.91 170.992 437.651 175.913 438.583C180.833 439.516 185.578 436.287 186.511 431.371Z" fill="#ECF3FB" stroke="#0ABAAD" stroke-width="1.5" stroke-miterlimit="10"/>
<path d="M277.366 458.155C281.522 451.342 279.363 442.454 272.544 438.302C265.725 434.15 256.828 436.307 252.672 443.119C248.516 449.932 250.675 458.821 257.494 462.973C264.313 467.125 273.21 464.968 277.366 458.155Z" fill="#ECF3FB" stroke="#0ABAAD" stroke-width="1.5" stroke-miterlimit="10"/>
<path d="M279.862 466.54L219.928 542.769C211.051 552.943 196.565 554.875 187.606 547.067L184.311 544.211C175.353 536.403 175.271 521.821 184.148 511.646L251.76 442.11C260.637 431.935 272.809 428.018 281.768 435.825C290.727 443.633 288.712 456.393 279.835 466.594L279.862 466.54Z" fill="#ECF3FB" stroke="#0ABAAD" stroke-width="1.5" stroke-miterlimit="10"/>
<path d="M285.39 440.124C266.301 462.35 215.299 524.16 193.542 550.576C202.12 553.759 212.821 550.93 219.928 542.769L279.862 466.54C287.241 458.079 289.883 447.823 285.39 440.124Z" fill="#ECF3FB" stroke="#0ABAAD" stroke-width="1.5" stroke-miterlimit="10"/>
<path d="M272.115 458.097C277.985 457.289 282.089 451.88 281.28 446.016C280.472 440.151 275.058 436.052 269.188 436.859C263.319 437.667 259.215 443.076 260.024 448.94C260.832 454.805 266.245 458.904 272.115 458.097Z" fill="#ECF3FB" stroke="#0ABAAD" stroke-width="1.5" stroke-miterlimit="10"/>
<path d="M243.02 388.924L183.631 441.811C174.999 448.748 163.045 448.204 156.918 440.614L154.685 437.839C148.586 430.248 150.628 418.469 159.26 411.531L223.877 365.147C232.509 358.209 242.911 356.795 249.01 364.385C255.11 371.975 251.652 381.987 243.02 388.924Z" fill="#ECF3FB" stroke="#0ABAAD" stroke-width="1.5" stroke-miterlimit="10"/>
<path d="M251.325 368.384C232.7 383.592 182.596 426.14 161.221 444.313C167.701 448.122 176.742 447.36 183.658 441.811L243.047 388.924C250.236 383.156 253.83 375.267 251.325 368.384Z" fill="#ECF3FB" stroke="#0ABAAD" stroke-width="1.5" stroke-miterlimit="10"/>
<path d="M238.364 380.98C243.221 380.98 247.159 377.046 247.159 372.193C247.159 367.34 243.221 363.406 238.364 363.406C233.506 363.406 229.568 367.34 229.568 372.193C229.568 377.046 233.506 380.98 238.364 380.98Z" fill="#ECF3FB" stroke="#0ABAAD" stroke-width="1.5" stroke-miterlimit="10"/>
<path d="M170.969 441.593C178.714 441.593 184.992 435.32 184.992 427.582C184.992 419.845 178.714 413.572 170.969 413.572C163.224 413.572 156.945 419.845 156.945 427.582C156.945 435.32 163.224 441.593 170.969 441.593Z" fill="#ECF3FB" stroke="#0ABAAD" stroke-width="1.5" stroke-miterlimit="10"/>
<path d="M240.569 392.515C252.705 392.515 262.544 382.686 262.544 370.56C262.544 358.435 252.705 348.606 240.569 348.606C228.433 348.606 218.594 358.435 218.594 370.56C218.594 382.686 228.433 392.515 240.569 392.515Z" fill="#ECF3FB" stroke="#0ABAAD" stroke-width="1.5" stroke-miterlimit="10"/>
<path d="M261.972 365.718C259.766 355.924 251.025 348.606 240.542 348.606C228.397 348.606 218.567 358.427 218.567 370.56C218.567 376.437 220.881 381.769 224.639 385.714C227.852 387.02 231.365 387.754 235.041 387.754C248.357 387.754 259.439 378.287 261.972 365.745V365.718Z" fill="#ECF3FB" stroke="#0ABAAD" stroke-width="1.5" stroke-miterlimit="10"/>
<path d="M240.569 378.912C245.186 378.912 248.928 375.173 248.928 370.56C248.928 365.948 245.186 362.208 240.569 362.208C235.952 362.208 232.209 365.948 232.209 370.56C232.209 375.173 235.952 378.912 240.569 378.912Z" fill="#ECF3FB" stroke="#0ABAAD" stroke-width="1.5" stroke-miterlimit="10"/>
<path d="M240.569 375.267C243.17 375.267 245.28 373.16 245.28 370.561C245.28 367.961 243.17 365.854 240.569 365.854C237.967 365.854 235.858 367.961 235.858 370.561C235.858 373.16 237.967 375.267 240.569 375.267Z" fill="#ECF3FB" stroke="#0ABAAD" stroke-width="1.5" stroke-miterlimit="10"/>
<path d="M230.385 382.721C230.004 382.721 229.623 382.585 229.35 382.313C225.647 378.94 223.523 374.151 223.523 369.173C223.523 359.379 231.501 351.408 241.304 351.408C245.552 351.408 249.664 352.931 252.904 355.706C253.558 356.278 253.639 357.257 253.068 357.91C252.496 358.563 251.516 358.645 250.862 358.073C248.193 355.788 244.817 354.537 241.304 354.537C233.217 354.537 226.627 361.12 226.627 369.2C226.627 373.308 228.37 377.28 231.42 380.055C232.046 380.626 232.1 381.606 231.529 382.259C231.229 382.585 230.793 382.775 230.385 382.775V382.721Z" fill="#ECF3FB" stroke="#0ABAAD" stroke-width="1.5" stroke-miterlimit="10"/>
<path d="M239.208 312.423L253.04 343.056L261.945 339.03L244.408 300.181L239.208 312.423Z" fill="#ECF3FB" stroke="#0ABAAD" stroke-width="1.5" stroke-miterlimit="10"/>
<path d="M221.671 346.974L246.505 336.228L261.999 341.26L236.92 352.36L226.627 356.495L221.671 346.974Z" fill="#ECF3FB" stroke="#0ABAAD" stroke-width="1.5" stroke-miterlimit="10"/>
<path d="M246.505 336.228L261.999 341.233L262.761 338.866L247.376 333.888L246.505 336.228Z" fill="#ECF3FB" stroke="#0ABAAD" stroke-width="1.5" stroke-miterlimit="10"/>
<path d="M242.883 300.154L214.728 297.678L215.898 305.649L238.309 310.383L242.883 300.154Z" fill="#ECF3FB" stroke="#0ABAAD" stroke-width="1.5" stroke-miterlimit="10"/>
<path d="M239.207 312.423L237.083 311.525L242.312 299.283L244.408 300.181L239.207 312.423Z" fill="#ECF3FB" stroke="#0ABAAD" stroke-width="1.5" stroke-miterlimit="10"/>
<path d="M252.278 331.331C252.278 331.82 252.006 332.256 251.543 332.473C250.916 332.773 250.154 332.473 249.854 331.848L240.623 311.743C240.324 311.117 240.623 310.356 241.25 310.056C241.876 309.757 242.638 310.056 242.938 310.682L252.169 330.787C252.251 330.95 252.278 331.14 252.278 331.304V331.331Z" fill="#ECF3FB" stroke="#0ABAAD" stroke-width="1.5" stroke-miterlimit="10"/>
<path d="M256.798 342.022C256.798 342.022 256.798 342.24 256.744 342.349C256.58 342.866 256.008 343.165 255.464 343.002L246.914 340.2L236.43 345.233C235.94 345.477 235.314 345.26 235.068 344.77C234.823 344.253 235.041 343.655 235.531 343.41L246.75 338.023L256.063 341.097C256.499 341.233 256.771 341.641 256.771 342.05L256.798 342.022Z" fill="#ECF3FB" stroke="#0ABAAD" stroke-width="1.5" stroke-miterlimit="10"/>
<path d="M238.363 304.044C238.363 304.044 238.255 304.044 238.2 304.044L227.172 302.684C226.491 302.602 226.028 302.004 226.11 301.323C226.192 300.643 226.791 300.181 227.471 300.262L238.5 301.623C239.18 301.704 239.643 302.303 239.562 302.983C239.48 303.609 238.963 304.044 238.363 304.044Z" fill="#ECF3FB" stroke="#0ABAAD" stroke-width="1.5" stroke-miterlimit="10"/>
<path d="M198.662 329.181L210.561 360.603L201.412 364.058L186.327 324.203L198.662 329.181Z" fill="#ECF3FB" stroke="#0ABAAD" stroke-width="1.5" stroke-miterlimit="10"/>
<path d="M235.504 341.206L210.344 351.163L202.964 365.636L228.533 355.788L238.745 351.435L235.504 341.206Z" fill="#ECF3FB" stroke="#0ABAAD" stroke-width="1.5" stroke-miterlimit="10"/>
<path d="M210.344 351.136L202.964 365.636L200.704 364.494L208.083 350.129L210.344 351.136Z" fill="#ECF3FB" stroke="#0ABAAD" stroke-width="1.5" stroke-miterlimit="10"/>
<path d="M187.389 323.088L205.524 301.459L210.344 307.907L197.845 327.087L187.389 323.088Z" fill="#ECF3FB" stroke="#0ABAAD" stroke-width="1.5" stroke-miterlimit="10"/>
<path d="M198.662 329.181L199.533 327.032L187.171 322.054L186.327 324.203L198.662 329.181Z" fill="#ECF3FB" stroke="#0ABAAD" stroke-width="1.5" stroke-miterlimit="10"/>
<path d="M201.984 356.06C201.984 356.577 201.657 357.067 201.167 357.257C200.514 357.502 199.778 357.176 199.533 356.523L190.139 331.222C189.894 330.569 190.221 329.834 190.874 329.59C191.528 329.345 192.263 329.671 192.508 330.324L201.902 355.625C201.957 355.761 201.984 355.924 201.984 356.06Z" fill="#ECF3FB" stroke="#0ABAAD" stroke-width="1.5" stroke-miterlimit="10"/>
<path d="M224.503 349.422C224.503 349.83 224.231 350.238 223.822 350.374L212.849 354.237L208.791 362.263C208.546 362.753 207.92 362.97 207.43 362.698C206.94 362.453 206.722 361.828 206.994 361.338L211.433 352.578L223.169 348.443C223.686 348.252 224.285 348.524 224.449 349.068C224.476 349.177 224.503 349.286 224.503 349.395V349.422Z" fill="#ECF3FB" stroke="#0ABAAD" stroke-width="1.5" stroke-miterlimit="10"/>
<path d="M192.916 322.516C192.671 322.516 192.399 322.435 192.181 322.271C191.637 321.863 191.528 321.102 191.936 320.558L199.724 310.192C200.132 309.648 200.895 309.54 201.439 309.948C201.984 310.356 202.093 311.117 201.684 311.661L193.897 322.027C193.652 322.353 193.298 322.516 192.916 322.516Z" fill="#ECF3FB" stroke="#0ABAAD" stroke-width="1.5" stroke-miterlimit="10"/>
<path d="M250.181 350.837C246.75 342.73 236.866 339.166 228.751 342.593C220.637 346.021 216.225 355.734 219.629 363.841L250.181 350.837Z" fill="#ECF3FB" stroke="#0ABAAD" stroke-width="1.5" stroke-miterlimit="10"/>
<path d="M234.987 344.416C234.987 344.96 234.633 345.45 234.088 345.613C224.068 348.606 223.087 359.325 223.033 359.76C222.978 360.467 222.379 360.984 221.671 360.93C220.963 360.875 220.446 360.277 220.501 359.57C220.501 359.434 221.644 346.702 233.353 343.192C234.034 343.002 234.715 343.383 234.932 344.036C234.96 344.144 234.987 344.28 234.987 344.389V344.416Z" fill="#ECF3FB" stroke="#0ABAAD" stroke-width="1.5" stroke-miterlimit="10"/>
<path d="M220.093 288.595L198.86 295.41L207.289 321.622L228.522 314.807L220.093 288.595Z" fill="#ECF3FB" stroke="#0ABAAD" stroke-width="1.5" stroke-miterlimit="10"/>
<path d="M215.957 289.931L198.846 295.422L206.05 317.827L223.161 312.335L215.957 289.931Z" fill="#ECF3FB" stroke="#0ABAAD" stroke-width="1.5" stroke-miterlimit="10"/>
<path d="M218.485 303.146C219.493 306.275 217.777 309.621 214.646 310.628C211.514 311.634 208.165 309.92 207.158 306.792C206.15 303.663 207.866 300.317 210.997 299.31C214.129 298.304 217.478 300.018 218.485 303.146Z" fill="#ECF3FB" stroke="#0ABAAD" stroke-width="1.5" stroke-miterlimit="10"/>
<path d="M170.969 436.614C165.986 436.614 161.928 432.561 161.928 427.582C161.928 422.604 165.986 418.55 170.969 418.55C175.952 418.55 180.009 422.604 180.009 427.582C180.009 432.561 175.952 436.614 170.969 436.614ZM170.969 420.972C167.32 420.972 164.352 423.937 164.352 427.582C164.352 431.228 167.32 434.193 170.969 434.193C174.617 434.193 177.586 431.228 177.586 427.582C177.586 423.937 174.617 420.972 170.969 420.972Z" fill="#ECF3FB" stroke="#0ABAAD" stroke-width="1.5" stroke-miterlimit="10"/>
<path d="M205.928 547.875C216.211 545.484 222.607 535.218 220.214 524.945C217.821 514.672 207.546 508.282 197.263 510.673C186.981 513.063 180.585 523.329 182.978 533.602C185.37 543.875 195.646 550.265 205.928 547.875Z" fill="#ECF3FB" stroke="#0ABAAD" stroke-width="1.5" stroke-miterlimit="10"/>
<path d="M220.282 525.031C218.376 516.516 210.752 510.122 201.63 510.122C191.064 510.122 182.514 518.665 182.514 529.22C182.514 534.335 184.529 538.96 187.797 542.388C190.574 543.53 193.651 544.156 196.837 544.156C208.41 544.156 218.077 535.913 220.282 525.004V525.031Z" fill="#ECF3FB" stroke="#0ABAAD" stroke-width="1.5" stroke-miterlimit="10"/>
<path d="M201.63 539.586C207.344 539.586 211.977 534.957 211.977 529.248C211.977 523.538 207.344 518.91 201.63 518.91C195.915 518.91 191.282 523.538 191.282 529.248C191.282 534.957 195.915 539.586 201.63 539.586Z" fill="#ECF3FB" stroke="#0ABAAD" stroke-width="1.5" stroke-miterlimit="10"/>
<path d="M201.63 537.355C206.111 537.355 209.744 533.725 209.744 529.247C209.744 524.77 206.111 521.14 201.63 521.14C197.148 521.14 193.515 524.77 193.515 529.247C193.515 533.725 197.148 537.355 201.63 537.355Z" fill="#ECF3FB" stroke="#0ABAAD" stroke-width="1.5" stroke-miterlimit="10"/>
<path d="M191.364 540.81C191.037 540.81 190.71 540.701 190.465 540.456C187.252 537.518 185.4 533.355 185.4 529.003C185.4 520.487 192.344 513.523 200.894 513.523C204.598 513.523 208.165 514.856 210.969 517.25C211.541 517.74 211.596 518.583 211.106 519.154C210.615 519.726 209.771 519.78 209.2 519.29C206.885 517.304 203.917 516.216 200.867 516.216C193.814 516.216 188.096 521.929 188.096 528.975C188.096 532.567 189.621 535.994 192.262 538.416C192.807 538.933 192.861 539.776 192.344 540.32C192.072 540.619 191.718 540.755 191.337 540.755L191.364 540.81Z" fill="#ECF3FB" stroke="#0ABAAD" stroke-width="1.5" stroke-miterlimit="10"/>
<path d="M270.658 456.501C265.675 456.501 261.618 452.448 261.618 447.469C261.618 442.491 265.675 438.437 270.658 438.437C275.641 438.437 279.698 442.491 279.698 447.469C279.698 452.448 275.641 456.501 270.658 456.501ZM270.658 440.859C267.009 440.859 264.041 443.824 264.041 447.469C264.041 451.115 267.009 454.08 270.658 454.08C274.307 454.08 277.275 451.115 277.275 447.469C277.275 443.824 274.307 440.859 270.658 440.859Z" fill="#ECF3FB" stroke="#0ABAAD" stroke-width="1.5" stroke-miterlimit="10"/>
<path d="M64.9073 564.533C63.5457 564.533 62.4565 563.445 62.4565 562.084V531.098C62.4565 523.018 69.019 516.461 77.1063 516.461H96.712C98.0735 516.461 99.1627 517.55 99.1627 518.91C99.1627 520.27 98.0735 521.358 96.712 521.358H77.1063C71.7148 521.358 67.3307 525.738 67.3307 531.125V562.112C67.3307 563.472 66.2415 564.56 64.88 564.56L64.9073 564.533Z" fill="#ECF3FB" stroke="#0ABAAD" stroke-width="1.5" stroke-miterlimit="10"/>
<path d="M336.146 518.284H303.606C302.245 518.284 301.156 517.196 301.156 515.836C301.156 514.475 302.245 513.387 303.606 513.387H336.146C337.508 513.387 338.597 514.475 338.597 515.836C338.597 517.196 337.508 518.284 336.146 518.284Z" fill="#ECF3FB" stroke="#0ABAAD" stroke-width="1.5" stroke-miterlimit="10"/>
<path d="M256.798 565.05H136.414C135.569 565.05 134.889 564.37 134.889 563.526C134.889 562.683 135.569 562.003 136.414 562.003H256.798C257.642 562.003 258.323 562.683 258.323 563.526C258.323 564.37 257.642 565.05 256.798 565.05Z" fill="#ECF3FB" stroke="#0ABAAD" stroke-width="1.5" stroke-miterlimit="10"/>
<path d="M284.845 565.05C284.137 565.05 283.511 564.56 283.347 563.853C283.157 563.036 283.674 562.22 284.491 562.03C285.226 561.867 302.054 557.541 302.054 529.22C302.054 528.377 302.735 527.697 303.579 527.697C304.423 527.697 305.104 528.377 305.104 529.22C305.104 560.098 285.989 564.805 285.172 564.995C285.063 564.995 284.954 565.022 284.818 565.022L284.845 565.05Z" fill="#ECF3FB" stroke="#0ABAAD" stroke-width="1.5" stroke-miterlimit="10"/>
<path d="M32.1769 590.895C31.8502 590.895 31.5234 590.786 31.2511 590.568C30.5976 590.051 30.4614 589.099 30.9788 588.419C31.4145 587.848 42.0887 574.272 55.0774 574.272H347.91C348.754 574.272 349.435 574.952 349.435 575.796C349.435 576.639 348.754 577.319 347.91 577.319H55.0774C43.6136 577.319 33.5112 590.16 33.4023 590.269C33.1027 590.65 32.6398 590.867 32.2042 590.867L32.1769 590.895Z" fill="#ECF3FB" stroke="#0ABAAD" stroke-width="1.5" stroke-miterlimit="10"/>
<path d="M210.638 273.823L215.306 280.956" stroke="#0ABAAD" stroke-width="1.5" stroke-miterlimit="10"/>
<path d="M203.486 282.17L211.73 285.129" stroke="#0ABAAD" stroke-width="1.5" stroke-miterlimit="10"/>
<path d="M227.307 286.012L235.75 284.135" stroke="#0ABAAD" stroke-width="1.5" stroke-miterlimit="10"/>
<path d="M223.866 290.661L231.515 299.056" stroke="#0ABAAD" stroke-width="1.5" stroke-miterlimit="10"/>
<path d="M231.757 290.559L235.738 291.539" stroke="#0ABAAD" stroke-width="1.5" stroke-miterlimit="10"/>
</g>
<rect x="0.181152" width="404.117" height="607" fill="url(#paint0_radial_251_6139)"/>
<defs>
<radialGradient id="paint0_radial_251_6139" cx="0" cy="0" r="1" gradientUnits="userSpaceOnUse" gradientTransform="translate(202.24 303.5) rotate(90) scale(303.5 202.058)">
<stop offset="0.455" stop-color="#ECF3FB" stop-opacity="0"/>
<stop offset="1" stop-color="#ECF3FB"/>
</radialGradient>
<clipPath id="clip0_251_6139">
<rect width="404.667" height="607" fill="white" transform="translate(0.181641)"/>
</clipPath>
</defs>
</svg>
