<svg width="172" height="737" viewBox="0 0 172 737" fill="none" xmlns="http://www.w3.org/2000/svg">
<g clip-path="url(#clip0_251_4181)">
<path d="M143.87 308.178C143.242 308.178 142.525 308.178 141.897 307.997C133.378 306.639 126.652 296.955 120.195 287.633C116.25 281.931 112.124 275.957 107.91 272.518C104.95 270.075 102.17 269.169 99.3904 269.712C93.2027 270.98 88.9879 278.944 88.8982 279.035L83.5176 276.138C83.5176 276.138 89.1672 265.549 98.1349 263.649C102.708 262.743 107.372 264.101 111.766 267.721C116.608 271.704 120.913 277.949 125.128 284.013C130.867 292.339 136.875 300.937 142.794 301.843C144.946 302.205 147.188 301.481 149.52 299.67C162.881 289.353 146.829 247.81 129.88 203.914C111.766 156.941 91.2298 103.813 94.7272 63.8086L100.825 64.3516C97.4175 102.908 117.684 155.402 135.62 201.651C154.99 251.792 170.325 291.434 153.286 304.558C150.237 306.911 147.098 308.088 143.96 308.088L143.87 308.178Z" fill="#FFFDFB" stroke="#0ABAAD" stroke-miterlimit="10"/>
<path d="M156.514 273.423C155.707 268.716 154.273 262.833 152.031 255.683L114.994 152.867C114.994 152.867 120.195 173.955 125.935 189.16L145.933 242.831C145.933 242.831 156.066 272.336 156.604 286.546C157.411 282.202 157.142 277.767 156.514 273.332V273.423Z" fill="#FFFDFB" stroke="#0ABAAD" stroke-miterlimit="10"/>
<path d="M100.376 102.546V80.5527C100.376 78.9236 100.376 77.2945 100.107 75.7559H11.7759C11.5965 77.385 11.5068 78.9236 11.5068 80.5527V102.546H100.376Z" fill="#FFFDFB" stroke="#0ABAAD" stroke-miterlimit="10"/>
<path d="M100.376 94.853H11.5068V102.546H100.376V94.853Z" fill="#FFFDFB" stroke="#0ABAAD" stroke-miterlimit="10"/>
<path d="M38.8584 83.7204C38.8584 89.5129 34.1952 94.3097 28.3662 94.3097C22.6269 94.3097 17.874 89.6034 17.874 83.7204V60.279C17.874 54.4866 22.5372 49.6897 28.3662 49.6897C34.1055 49.6897 38.8584 54.3961 38.8584 60.279V83.7204Z" fill="#FFFDFB" stroke="#0ABAAD" stroke-miterlimit="10"/>
<path d="M38.8584 70.1444V60.3696C38.8584 54.5772 34.1952 49.7803 28.3662 49.7803C22.5372 49.7803 17.874 54.4866 17.874 60.3696V70.1444H38.7687H38.8584Z" fill="#FFFDFB" stroke="#0ABAAD" stroke-miterlimit="10"/>
<g style="mix-blend-mode:multiply" opacity="0.5">
<path d="M102.977 84.9877C104.233 81.7294 102.35 69.873 98.8522 66.2527C96.7 67.0673 94.5477 67.7913 92.3955 68.6059C88.4497 70.9591 84.8627 75.0319 88.8084 81.8199C88.8084 81.8199 92.7542 85.3497 102.977 84.9877Z" fill="#FFFDFB"/>
<path d="M102.977 84.9877C104.233 81.7294 102.35 69.873 98.8522 66.2527C96.7 67.0673 94.5477 67.7913 92.3955 68.6059C88.4497 70.9591 84.8627 75.0319 88.8084 81.8199C88.8084 81.8199 92.7542 85.3497 102.977 84.9877Z" stroke="#0ABAAD" stroke-miterlimit="10"/>
</g>
<path d="M1.10451 64.7139L44.7771 63.7184C44.7771 63.7184 69.0795 63.5373 74.5498 74.1267C74.5498 74.1267 84.5935 90.0559 84.6832 90.0559C87.0148 94.5813 92.2161 96.3009 96.8793 95.1243C102.35 93.7667 106.564 89.5129 106.564 83.6299V69.6013L107.371 9.59506C107.371 9.59506 107.73 -2.08037 95.6238 -4.70508L70.873 -8.86841C70.873 -8.86841 62.1744 -7.60131 55.1796 -3.43798C48.9919 0.18231 7.74058 21.904 -2.03418 26.9724L1.28386 64.6234L1.10451 64.7139Z" fill="#FFFDFB" stroke="#0ABAAD" stroke-miterlimit="10"/>
<path d="M10.8791 60.2798L7.83008 25.7965L8.45782 25.525C8.45782 25.525 49.6194 4.0748 58.6768 -1.08411C67.3754 -6.062 72.3973 -4.25186 73.3838 -3.79932L93.023 -0.450556C100.915 0.907053 102.708 8.41915 103.067 12.7635C103.246 14.3926 103.067 15.5692 103.067 15.6597L103.336 64.7146V64.8956C104.143 73.7653 96.4307 75.5755 96.341 75.5755H96.2514H96.1617C96.1617 75.5755 90.7811 75.5755 86.2972 75.7565C81.0063 76.1185 78.7644 69.602 78.6747 69.3305C71.2315 56.207 48.633 57.293 48.364 57.293L10.7894 60.3703L10.8791 60.2798ZM9.98232 26.9731L12.7623 58.1076L48.364 55.2114C49.3504 55.2114 72.5767 54.1253 80.6476 68.5159C80.7373 68.6969 82.6205 74.0369 86.3869 73.7653C90.512 73.4938 95.4443 73.4938 96.2514 73.5843C97.0584 73.4033 102.17 71.7742 101.542 65.0767V64.8051L101.273 15.5692C101.273 15.2977 101.901 3.16973 92.8436 1.5406L72.756 -1.89867C72.756 -1.89867 68.3619 -4.16135 59.8426 0.726038C51.3233 5.61343 15.2732 24.3484 10.072 27.0636L9.98232 26.9731Z" fill="#FFFDFB" stroke="#0ABAAD" stroke-miterlimit="10"/>
<path d="M95.175 89.6934C91.7673 89.965 88.7183 87.4308 88.3596 83.9915C88.0906 80.5522 90.6015 77.475 94.0092 77.1129C97.4169 76.8414 100.466 79.3756 100.825 82.8149C101.094 86.2542 98.5827 89.3314 95.175 89.6934Z" fill="#FFFDFB" stroke="#0ABAAD" stroke-miterlimit="10"/>
<path d="M95.2652 87.4313C93.0233 87.6124 91.1401 85.9832 90.871 83.7205C90.6917 81.4579 92.3058 79.5572 94.5478 79.2857C96.7897 79.1047 98.6729 80.7338 98.9419 82.9965C99.1213 85.2592 97.5071 87.1598 95.2652 87.4313Z" fill="#FFFDFB" stroke="#0ABAAD" stroke-miterlimit="10"/>
<path d="M64.4161 9.14273C62.8916 9.32375 61.6361 8.14715 61.4567 6.69904C61.2774 5.16042 62.4432 3.89331 63.878 3.7123C65.4025 3.62179 66.658 4.70788 66.8373 6.156C67.0167 7.69462 65.8509 8.96172 64.4161 9.14273Z" fill="#FFFDFB" stroke="#0ABAAD" stroke-miterlimit="10"/>
<path d="M95.0856 10.1378C93.5611 10.3189 92.3057 9.14227 92.1263 7.69415C92.0366 6.15553 93.1128 4.88843 94.5476 4.70742C96.0721 4.61691 97.3276 5.703 97.5069 7.15111C97.5966 8.68973 96.5205 9.95683 95.0856 10.1378Z" fill="#FFFDFB" stroke="#0ABAAD" stroke-miterlimit="10"/>
<path d="M98.0446 66.8861C96.5201 66.9766 95.2647 65.8906 95.0853 64.4424C94.9956 62.9038 96.0717 61.6367 97.5066 61.4557C99.0311 61.3652 100.287 62.4513 100.466 63.8994C100.645 65.438 99.4795 66.7051 98.0446 66.8861Z" fill="#FFFDFB" stroke="#0ABAAD" stroke-miterlimit="10"/>
<path d="M86.4772 67.8807C84.9527 67.9713 83.6973 66.8852 83.5179 65.4371C83.4282 63.8984 84.5044 62.6313 85.9392 62.4503C87.4637 62.2693 88.7192 63.4459 88.8985 64.894C89.0779 66.4326 87.9121 67.6997 86.4772 67.8807Z" fill="#FFFDFB" stroke="#0ABAAD" stroke-miterlimit="10"/>
<path d="M19.9362 55.2108C18.4117 55.3918 17.1563 54.2153 16.9769 52.7671C16.8872 51.2285 17.9633 49.9614 19.3982 49.7804C20.833 49.5994 22.1782 50.776 22.3575 52.2241C22.4472 53.7627 21.3711 55.0298 19.9362 55.2108Z" fill="#FFFDFB" stroke="#0ABAAD" stroke-miterlimit="10"/>
<path d="M16.6189 31.1354C15.184 31.2259 13.8389 30.1398 13.6595 28.6917C13.5698 27.1531 14.646 25.886 16.0808 25.705C17.5156 25.6145 18.8608 26.7006 19.0401 28.1487C19.1298 29.6873 18.0537 30.9544 16.6189 31.1354Z" fill="#FFFDFB" stroke="#0ABAAD" stroke-miterlimit="10"/>
<g style="mix-blend-mode:screen">
<path d="M105.757 14.2113C105.757 14.2113 105.757 2.08334 100.018 -1.89898C100.018 -1.89898 98.135 -2.98506 96.5208 -3.52811C94.9963 -4.07115 71.0526 -8.05347 71.0526 -8.05347C71.0526 -8.05347 68.452 -7.41992 72.2184 -6.24332L96.0724 -1.17492C96.0724 -1.17492 101.722 -0.631877 103.695 8.50935C103.695 8.50935 104.323 14.9354 105.757 14.1208V14.2113Z" fill="#FFFDFB"/>
<path d="M105.757 14.2113C105.757 14.2113 105.757 2.08334 100.018 -1.89898C100.018 -1.89898 98.135 -2.98506 96.5208 -3.52811C94.9963 -4.07115 71.0526 -8.05347 71.0526 -8.05347C71.0526 -8.05347 68.452 -7.41992 72.2184 -6.24332L96.0724 -1.17492C96.0724 -1.17492 101.722 -0.631877 103.695 8.50935C103.695 8.50935 104.323 14.9354 105.757 14.1208V14.2113Z" stroke="#0ABAAD" stroke-miterlimit="10"/>
</g>
<path d="M28.9944 89.6934C25.5866 89.965 22.5376 87.4308 22.1789 83.9915C21.9099 80.5522 24.4208 77.475 27.8286 77.1129C31.2363 76.8414 34.2853 79.3756 34.644 82.8149C34.913 86.2542 32.4021 89.3314 28.9944 89.6934Z" fill="#FFFDFB" stroke="#0ABAAD" stroke-miterlimit="10"/>
<path d="M28.815 87.4311C26.5731 87.6121 24.6899 85.983 24.4208 83.7203C24.2415 81.4576 25.8557 79.557 28.0976 79.2855C30.3395 79.1044 32.2227 80.7336 32.4917 82.9962C32.6711 85.2589 31.0569 87.1596 28.815 87.4311Z" fill="#FFFDFB" stroke="#0ABAAD" stroke-miterlimit="10"/>
<path d="M57.1527 671.112C57.1527 671.112 55.8075 681.52 59.4843 686.227C63.161 690.933 65.3133 694.825 65.3133 708.944L57.1527 714.736C57.1527 714.736 57.7804 697.449 53.1172 692.924C48.3644 688.399 47.916 687.675 47.3779 679.076V671.112H57.1527Z" fill="#FFFDFB" stroke="#0ABAAD" stroke-miterlimit="10"/>
<path d="M55.5385 671.112C55.5385 671.112 56.8837 681.52 53.2069 686.227C49.5302 690.933 47.3779 694.825 47.3779 708.944L55.5385 714.736C55.5385 714.736 54.9108 697.449 59.574 692.924C64.2372 688.399 64.7752 687.675 65.3133 679.076V671.112H55.5385Z" fill="#FFFDFB" stroke="#0ABAAD" stroke-miterlimit="10"/>
<path d="M68.0932 178.21H45.7637L45.7637 675.637H68.0932V178.21Z" fill="#FFFDFB" stroke="#0ABAAD" stroke-miterlimit="10"/>
<g style="mix-blend-mode:screen">
<path d="M52.1303 178.21H48.1846L48.1846 675.637H52.1303L52.1303 178.21Z" fill="#FFFDFB"/>
<path d="M52.1303 178.21H48.1846L48.1846 675.637H52.1303L52.1303 178.21Z" stroke="#0ABAAD" stroke-miterlimit="10"/>
</g>
<g style="mix-blend-mode:multiply">
<path d="M68.0934 178.21H56.8838L56.8838 675.637H68.0934V178.21Z" fill="#FFFDFB"/>
<path d="M68.0934 178.21H56.8838L56.8838 675.637H68.0934V178.21Z" stroke="#0ABAAD" stroke-miterlimit="10"/>
</g>
<path d="M68.0932 566.396V593.367C68.0932 593.367 68.0932 593.367 67.9139 593.367C67.1965 593.639 70.0661 614.546 19.2194 617.714C11.5969 618.166 45.7637 631.38 45.7637 631.38V614.908C45.7637 614.908 49.9785 615.089 56.3456 615.089H56.9733C73.3841 614.908 102.708 612.826 108.896 600.698C117.595 583.683 68.0932 566.306 68.0932 566.306V566.396Z" fill="#FFFDFB" stroke="#0ABAAD" stroke-miterlimit="10"/>
<path d="M44.2392 613.912C37.8722 615.722 29.6219 617.17 19.2194 617.804C11.5969 618.256 45.7637 631.471 45.7637 631.471V614.998C45.2257 614.093 44.6876 614.817 44.2392 613.912Z" fill="#FFFDFB" stroke="#0ABAAD" stroke-miterlimit="10"/>
<path d="M45.7637 615.181C45.7637 615.181 46.2121 615.09 46.3914 614.999C46.0327 614.999 45.7637 614.999 45.7637 614.999V615.181Z" fill="#FFFDFB" stroke="#0ABAAD" stroke-miterlimit="10"/>
<g style="mix-blend-mode:multiply">
<path d="M68.0931 566.397C68.0931 566.397 68.0931 593.368 67.9138 593.368C67.1963 593.64 70.066 614.547 19.2193 617.715C16.8877 617.896 18.5019 619.163 21.7302 620.973C21.7302 620.973 19.3986 619.344 22.7167 618.982C24.5999 618.801 34.7334 618.077 45.6739 615.18V614.999C45.6739 614.999 45.9429 614.999 46.3017 614.999C54.4622 612.827 62.9815 609.297 68.8105 603.957C68.8105 603.957 75.0879 596.807 73.9221 589.838C72.7563 582.869 71.9492 573.276 81.724 575.176C91.3194 577.077 109.524 587.576 109.882 596.445C109.434 580.969 68.0931 566.487 68.0931 566.487V566.397Z" fill="#FFFDFB"/>
<path d="M68.0931 566.397C68.0931 566.397 68.0931 593.368 67.9138 593.368C67.1963 593.64 70.066 614.547 19.2193 617.715C16.8877 617.896 18.5019 619.163 21.7302 620.973C21.7302 620.973 19.3986 619.344 22.7167 618.982C24.5999 618.801 34.7334 618.077 45.6739 615.18V614.999C45.6739 614.999 45.9429 614.999 46.3017 614.999C54.4622 612.827 62.9815 609.297 68.8105 603.957C68.8105 603.957 75.0879 596.807 73.9221 589.838C72.7563 582.869 71.9492 573.276 81.724 575.176C91.3194 577.077 109.524 587.576 109.882 596.445C109.434 580.969 68.0931 566.487 68.0931 566.487V566.397Z" stroke="#0ABAAD" stroke-miterlimit="10"/>
</g>
<path d="M45.7637 615.181C45.7637 615.181 86.9253 614.909 100.466 606.673C100.466 606.673 111.497 600.428 109.434 593.73C109.434 593.73 112.663 600.428 106.295 605.406C99.9284 610.384 96.3414 612.194 73.1151 614.638C49.4404 617.172 45.7637 615.181 45.7637 615.181Z" fill="#FFFDFB" stroke="#0ABAAD" stroke-miterlimit="10"/>
<g style="mix-blend-mode:screen">
<path d="M82.9798 576.08C82.9798 576.08 100.198 591.376 92.934 601.875C85.6701 612.464 62.7129 612.373 62.7129 612.373C62.7129 612.373 97.5972 613.007 106.744 599.521C106.744 599.521 110.959 593.095 103.247 587.031C94.0101 579.61 82.9798 576.171 82.9798 576.171V576.08Z" fill="#FFFDFB"/>
<path d="M82.9798 576.08C82.9798 576.08 100.198 591.376 92.934 601.875C85.6701 612.464 62.7129 612.373 62.7129 612.373C62.7129 612.373 97.5972 613.007 106.744 599.521C106.744 599.521 110.959 593.095 103.247 587.031C94.0101 579.61 82.9798 576.171 82.9798 576.171V576.08Z" stroke="#0ABAAD" stroke-miterlimit="10"/>
</g>
<path d="M68.0932 500.417V527.388C68.0932 527.388 68.0932 527.388 67.9139 527.388C67.1965 527.66 70.0661 548.567 19.2194 551.734C11.5969 552.187 45.7637 565.401 45.7637 565.401V548.929C45.7637 548.929 49.9785 549.11 56.3456 549.11H56.9733C73.3841 548.929 102.708 546.847 108.896 534.719C117.595 517.704 68.0932 500.326 68.0932 500.326V500.417Z" fill="#FFFDFB" stroke="#0ABAAD" stroke-miterlimit="10"/>
<path d="M44.2392 547.933C37.8722 549.743 29.6219 551.191 19.2194 551.825C11.5969 552.277 45.7637 565.491 45.7637 565.491V549.019C45.2257 548.114 44.6876 548.838 44.2392 547.933Z" fill="#FFFDFB" stroke="#0ABAAD" stroke-miterlimit="10"/>
<path d="M45.7637 549.201C45.7637 549.201 46.2121 549.111 46.3914 549.02C46.0327 549.02 45.7637 549.02 45.7637 549.02V549.201Z" fill="#FFFDFB" stroke="#0ABAAD" stroke-miterlimit="10"/>
<g style="mix-blend-mode:multiply">
<path d="M68.0931 500.418C68.0931 500.418 68.0931 527.389 67.9138 527.389C67.1963 527.66 70.066 548.568 19.2193 551.735C16.8877 551.916 18.5019 553.183 21.7302 554.994C21.7302 554.994 19.3986 553.364 22.7167 553.002C24.5999 552.821 34.7334 552.097 45.6739 549.201V549.02C45.6739 549.02 45.9429 549.02 46.3017 549.02C54.4622 546.848 62.9815 543.318 68.8105 537.978C68.8105 537.978 75.0879 530.828 73.9221 523.859C72.7563 516.89 71.9492 507.296 81.724 509.197C91.3194 511.098 109.524 521.596 109.882 530.466C109.434 514.989 68.0931 500.508 68.0931 500.508V500.418Z" fill="#FFFDFB"/>
<path d="M68.0931 500.418C68.0931 500.418 68.0931 527.389 67.9138 527.389C67.1963 527.66 70.066 548.568 19.2193 551.735C16.8877 551.916 18.5019 553.183 21.7302 554.994C21.7302 554.994 19.3986 553.364 22.7167 553.002C24.5999 552.821 34.7334 552.097 45.6739 549.201V549.02C45.6739 549.02 45.9429 549.02 46.3017 549.02C54.4622 546.848 62.9815 543.318 68.8105 537.978C68.8105 537.978 75.0879 530.828 73.9221 523.859C72.7563 516.89 71.9492 507.296 81.724 509.197C91.3194 511.098 109.524 521.596 109.882 530.466C109.434 514.989 68.0931 500.508 68.0931 500.508V500.418Z" stroke="#0ABAAD" stroke-miterlimit="10"/>
</g>
<path d="M45.7637 549.201C45.7637 549.201 86.9253 548.93 100.466 540.694C100.466 540.694 111.497 534.449 109.434 527.751C109.434 527.751 112.663 534.449 106.295 539.426C99.9284 544.404 96.3414 546.214 73.1151 548.658C49.4404 551.192 45.7637 549.201 45.7637 549.201Z" fill="#FFFDFB" stroke="#0ABAAD" stroke-miterlimit="10"/>
<g style="mix-blend-mode:screen">
<path d="M82.9798 510.101C82.9798 510.101 100.198 525.397 92.934 535.895C85.6701 546.485 62.7129 546.394 62.7129 546.394C62.7129 546.394 97.5972 547.028 106.744 533.542C106.744 533.542 110.959 527.116 103.247 521.052C94.0101 513.631 82.9798 510.191 82.9798 510.191V510.101Z" fill="#FFFDFB"/>
<path d="M82.9798 510.101C82.9798 510.101 100.198 525.397 92.934 535.895C85.6701 546.485 62.7129 546.394 62.7129 546.394C62.7129 546.394 97.5972 547.028 106.744 533.542C106.744 533.542 110.959 527.116 103.247 521.052C94.0101 513.631 82.9798 510.191 82.9798 510.191V510.101Z" stroke="#0ABAAD" stroke-miterlimit="10"/>
</g>
<path d="M68.0932 434.526V461.497C68.0932 461.497 68.0932 461.497 67.9139 461.497C67.1965 461.769 70.0661 482.676 19.2194 485.844C11.5969 486.296 45.7637 499.51 45.7637 499.51V483.038C45.7637 483.038 49.9785 483.219 56.3456 483.219H56.9733C73.3841 483.038 102.708 480.956 108.896 468.829C117.595 451.813 68.0932 434.436 68.0932 434.436V434.526Z" fill="#FFFDFB" stroke="#0ABAAD" stroke-miterlimit="10"/>
<path d="M44.2392 481.952C37.8722 483.763 29.6219 485.211 19.2194 485.844C11.5969 486.297 45.7637 499.511 45.7637 499.511V483.038C45.2257 482.133 44.6876 482.857 44.2392 481.952Z" fill="#FFFDFB" stroke="#0ABAAD" stroke-miterlimit="10"/>
<path d="M45.7637 483.311C45.7637 483.311 46.2121 483.22 46.3914 483.129C46.0327 483.129 45.7637 483.129 45.7637 483.129V483.311Z" fill="#FFFDFB" stroke="#0ABAAD" stroke-miterlimit="10"/>
<g style="mix-blend-mode:multiply">
<path d="M68.0931 434.527C68.0931 434.527 68.0931 461.498 67.9138 461.498C67.1963 461.77 70.066 482.677 19.2193 485.845C16.8877 486.026 18.5019 487.293 21.7302 489.103C21.7302 489.103 19.3986 487.474 22.7167 487.112C24.5999 486.931 34.7334 486.207 45.6739 483.31V483.129C45.6739 483.129 45.9429 483.129 46.3017 483.129C54.4622 480.957 62.9815 477.427 68.8105 472.088C68.8105 472.088 75.0879 464.938 73.9221 457.968C72.7563 450.999 71.9492 441.406 81.724 443.306C91.3194 445.207 109.524 455.706 109.882 464.575C109.434 449.099 68.0931 434.618 68.0931 434.618V434.527Z" fill="#FFFDFB"/>
<path d="M68.0931 434.527C68.0931 434.527 68.0931 461.498 67.9138 461.498C67.1963 461.77 70.066 482.677 19.2193 485.845C16.8877 486.026 18.5019 487.293 21.7302 489.103C21.7302 489.103 19.3986 487.474 22.7167 487.112C24.5999 486.931 34.7334 486.207 45.6739 483.31V483.129C45.6739 483.129 45.9429 483.129 46.3017 483.129C54.4622 480.957 62.9815 477.427 68.8105 472.088C68.8105 472.088 75.0879 464.938 73.9221 457.968C72.7563 450.999 71.9492 441.406 81.724 443.306C91.3194 445.207 109.524 455.706 109.882 464.575C109.434 449.099 68.0931 434.618 68.0931 434.618V434.527Z" stroke="#0ABAAD" stroke-miterlimit="10"/>
</g>
<path d="M45.7637 483.309C45.7637 483.309 86.9253 483.037 100.466 474.801C100.466 474.801 111.497 468.556 109.434 461.859C109.434 461.859 112.663 468.556 106.295 473.534C99.9284 478.512 96.3414 480.322 73.1151 482.766C49.4404 485.3 45.7637 483.309 45.7637 483.309Z" fill="#FFFDFB" stroke="#0ABAAD" stroke-miterlimit="10"/>
<g style="mix-blend-mode:screen">
<path d="M82.9798 444.12C82.9798 444.12 100.198 459.416 92.934 469.915C85.6701 480.504 62.7129 480.414 62.7129 480.414C62.7129 480.414 97.5972 481.047 106.744 467.562C106.744 467.562 110.959 461.136 103.247 455.072C94.0101 447.65 82.9798 444.211 82.9798 444.211V444.12Z" fill="#FFFDFB"/>
<path d="M82.9798 444.12C82.9798 444.12 100.198 459.416 92.934 469.915C85.6701 480.504 62.7129 480.414 62.7129 480.414C62.7129 480.414 97.5972 481.047 106.744 467.562C106.744 467.562 110.959 461.136 103.247 455.072C94.0101 447.65 82.9798 444.211 82.9798 444.211V444.12Z" stroke="#0ABAAD" stroke-miterlimit="10"/>
</g>
<path d="M68.0932 368.547V395.518C68.0932 395.518 68.0932 395.518 67.9139 395.518C67.1965 395.789 70.0661 416.696 19.2194 419.864C11.5969 420.317 45.7637 433.531 45.7637 433.531V417.058C45.7637 417.058 49.9785 417.239 56.3456 417.239H56.9733C73.3841 417.058 102.708 414.977 108.896 402.849C117.595 385.833 68.0932 368.456 68.0932 368.456V368.547Z" fill="#FFFDFB" stroke="#0ABAAD" stroke-miterlimit="10"/>
<path d="M44.2392 415.973C37.8722 417.783 29.6219 419.231 19.2194 419.864C11.5969 420.317 45.7637 433.531 45.7637 433.531V417.059C45.2257 416.154 44.6876 416.878 44.2392 415.973Z" fill="#FFFDFB" stroke="#0ABAAD" stroke-miterlimit="10"/>
<path d="M45.7637 417.328C45.7637 417.328 46.2121 417.237 46.3914 417.146C46.0327 417.146 45.7637 417.146 45.7637 417.146V417.328Z" fill="#FFFDFB" stroke="#0ABAAD" stroke-miterlimit="10"/>
<g style="mix-blend-mode:multiply">
<path d="M68.0931 368.546C68.0931 368.546 68.0931 395.517 67.9138 395.517C67.1963 395.789 70.066 416.696 19.2193 419.863C16.8877 420.044 18.5019 421.312 21.7302 423.122C21.7302 423.122 19.3986 421.493 22.7167 421.131C24.5999 420.95 34.7334 420.225 45.6739 417.329V417.148C45.6739 417.148 45.9429 417.148 46.3017 417.148C54.4622 414.976 62.9815 411.446 68.8105 406.106C68.8105 406.106 75.0879 398.956 73.9221 391.987C72.7563 385.018 71.9492 375.424 81.724 377.325C91.3194 379.226 109.524 389.725 109.882 398.594C109.434 383.118 68.0931 368.636 68.0931 368.636V368.546Z" fill="#FFFDFB"/>
<path d="M68.0931 368.546C68.0931 368.546 68.0931 395.517 67.9138 395.517C67.1963 395.789 70.066 416.696 19.2193 419.863C16.8877 420.044 18.5019 421.312 21.7302 423.122C21.7302 423.122 19.3986 421.493 22.7167 421.131C24.5999 420.95 34.7334 420.225 45.6739 417.329V417.148C45.6739 417.148 45.9429 417.148 46.3017 417.148C54.4622 414.976 62.9815 411.446 68.8105 406.106C68.8105 406.106 75.0879 398.956 73.9221 391.987C72.7563 385.018 71.9492 375.424 81.724 377.325C91.3194 379.226 109.524 389.725 109.882 398.594C109.434 383.118 68.0931 368.636 68.0931 368.636V368.546Z" stroke="#0ABAAD" stroke-miterlimit="10"/>
</g>
<path d="M45.7637 417.329C45.7637 417.329 86.9253 417.058 100.466 408.822C100.466 408.822 111.497 402.577 109.434 395.879C109.434 395.879 112.663 402.577 106.295 407.555C99.9284 412.532 96.3414 414.343 73.1151 416.877C49.4404 419.411 45.7637 417.42 45.7637 417.42V417.329Z" fill="#FFFDFB" stroke="#0ABAAD" stroke-miterlimit="10"/>
<g style="mix-blend-mode:screen">
<path d="M82.9798 378.23C82.9798 378.23 100.198 393.526 92.934 404.025C85.6701 414.614 62.7129 414.523 62.7129 414.523C62.7129 414.523 97.5972 415.157 106.744 401.671C106.744 401.671 110.959 395.245 103.247 389.181C94.0101 381.76 82.9798 378.32 82.9798 378.32V378.23Z" fill="#FFFDFB"/>
<path d="M82.9798 378.23C82.9798 378.23 100.198 393.526 92.934 404.025C85.6701 414.614 62.7129 414.523 62.7129 414.523C62.7129 414.523 97.5972 415.157 106.744 401.671C106.744 401.671 110.959 395.245 103.247 389.181C94.0101 381.76 82.9798 378.32 82.9798 378.32V378.23Z" stroke="#0ABAAD" stroke-miterlimit="10"/>
</g>
<path d="M46.0322 681.16C46.0322 681.16 63.9676 680.436 68.003 660.977V634.006C68.003 634.006 117.505 651.383 108.806 668.398C100.107 685.414 46.0322 681.16 46.0322 681.16Z" fill="#FFFDFB" stroke="#0ABAAD" stroke-miterlimit="10"/>
<path d="M45.7637 680.978C45.7637 680.978 64.0577 678.805 68.0932 659.346V632.375C68.0932 632.375 117.595 649.753 108.896 666.768C100.197 683.783 45.7637 680.978 45.7637 680.978Z" fill="#FFFDFB" stroke="#0ABAAD" stroke-miterlimit="10"/>
<g style="mix-blend-mode:multiply">
<path d="M72.4878 662.514C74.9988 657.446 75.0885 652.558 76.5233 647.218C77.151 645.046 79.0342 643.598 81.1865 643.327C88.809 642.422 97.3283 647.309 103.247 651.653C104.233 652.377 105.04 653.101 105.758 653.825C95.2657 641.969 68.004 632.375 68.004 632.375V659.346C66.0311 668.669 60.8298 674.009 55.9873 676.995C62.9821 674.099 69.2595 668.759 72.4878 662.424V662.514Z" fill="#FFFDFB"/>
<path d="M72.4878 662.514C74.9988 657.446 75.0885 652.558 76.5233 647.218C77.151 645.046 79.0342 643.598 81.1865 643.327C88.809 642.422 97.3283 647.309 103.247 651.653C104.233 652.377 105.04 653.101 105.758 653.825C95.2657 641.969 68.004 632.375 68.004 632.375V659.346C66.0311 668.669 60.8298 674.009 55.9873 676.995C62.9821 674.099 69.2595 668.759 72.4878 662.424V662.514Z" stroke="#0ABAAD" stroke-miterlimit="10"/>
</g>
<g style="mix-blend-mode:screen">
<path d="M103.157 653.916C98.4937 650.205 93.3822 647.49 89.4364 645.68C95.6241 652.92 101.184 662.786 92.3061 669.936C92.037 670.117 91.8577 670.298 91.5886 670.479C88.0912 674.189 82.5313 676.362 77.1507 677.629C76.2539 677.991 75.3571 678.262 74.4604 678.534C74.012 678.715 73.5636 678.805 73.1152 678.986C84.1455 678.081 100.825 675.276 106.654 666.496C106.654 666.496 110.869 660.07 103.157 654.006V653.916Z" fill="#FFFDFB"/>
<path d="M103.157 653.916C98.4937 650.205 93.3822 647.49 89.4364 645.68C95.6241 652.92 101.184 662.786 92.3061 669.936C92.037 670.117 91.8577 670.298 91.5886 670.479C88.0912 674.189 82.5313 676.362 77.1507 677.629C76.2539 677.991 75.3571 678.262 74.4604 678.534C74.012 678.715 73.5636 678.805 73.1152 678.986C84.1455 678.081 100.825 675.276 106.654 666.496C106.654 666.496 110.869 660.07 103.157 654.006V653.916Z" stroke="#0ABAAD" stroke-miterlimit="10"/>
</g>
<path d="M98.9421 282.021H18.0537V299.941H98.9421V282.021Z" fill="#FFFDFB" stroke="#0ABAAD" stroke-miterlimit="10"/>
<path d="M98.9421 282.021H18.0537V290.981H98.9421V282.021Z" fill="#FFFDFB" stroke="#0ABAAD" stroke-miterlimit="10"/>
<path d="M3.70508 108.338C3.70508 108.338 3.97411 98.4729 13.6592 98.4729H97.5069C97.5069 98.4729 108.358 98.4729 108.358 109.243L103.336 284.918H13.6592L3.70508 108.338Z" fill="#FFFDFB" stroke="#0ABAAD" stroke-miterlimit="10"/>
<path d="M8.81641 198.664L13.6589 284.918H103.336L105.847 198.664H8.81641Z" fill="#FFFDFB" stroke="#0ABAAD" stroke-miterlimit="10"/>
<path d="M106.026 193.054L108.448 109.153C108.448 98.3831 97.5966 98.3831 97.5966 98.3831H13.6592C3.97411 98.3831 3.70508 108.248 3.70508 108.248L8.45794 192.963H105.937L106.026 193.054Z" fill="#FFFDFB" stroke="#0ABAAD" stroke-miterlimit="10"/>
<path d="M97.507 98.3831H49.8887C55.628 100.827 81.0065 100.465 81.6342 106.529C85.1316 137.211 83.4278 267.269 83.5174 284.828H103.336L108.358 109.153C108.358 98.3831 97.507 98.3831 97.507 98.3831Z" fill="#FFFDFB" stroke="#0ABAAD" stroke-miterlimit="10"/>
<path d="M28.4557 102.546C28.4557 102.546 8.54749 101.55 7.83008 112.773L18.0532 282.022L19.6674 127.073C19.6674 127.073 18.681 110.692 34.6434 108.157L58.0491 106.619V102.546H28.3661H28.4557Z" fill="#FFFDFB" stroke="#0ABAAD" stroke-miterlimit="10"/>
<path d="M24.3313 296.14C23.6139 296.14 22.8965 295.688 22.8965 294.873C22.8965 294.149 23.3449 293.425 24.152 293.425C24.8694 293.425 25.5868 293.878 25.5868 294.692C25.5868 295.416 25.1384 296.14 24.3313 296.14Z" fill="#FFFDFB" stroke="#0ABAAD" stroke-miterlimit="10"/>
<path d="M37.6936 296.14C36.9762 296.14 36.2588 295.688 36.2588 294.873C36.2588 294.149 36.7072 293.425 37.5143 293.425C38.2317 293.425 38.9491 293.878 38.9491 294.692C38.9491 295.416 38.5007 296.14 37.6936 296.14Z" fill="#FFFDFB" stroke="#0ABAAD" stroke-miterlimit="10"/>
<path d="M51.0549 296.14C50.3375 296.14 49.6201 295.688 49.6201 294.873C49.6201 294.149 50.0685 293.425 50.8756 293.425C51.593 293.425 52.3104 293.878 52.3104 294.692C52.3104 295.416 51.862 296.14 51.0549 296.14Z" fill="#FFFDFB" stroke="#0ABAAD" stroke-miterlimit="10"/>
<path d="M64.4172 296.14C63.6998 296.14 62.9824 295.688 62.9824 294.873C62.9824 294.149 63.4308 293.425 64.2379 293.425C64.9553 293.425 65.6727 293.878 65.6727 294.692C65.6727 295.416 65.2243 296.14 64.4172 296.14Z" fill="#FFFDFB" stroke="#0ABAAD" stroke-miterlimit="10"/>
<path d="M77.6887 296.14C76.9713 296.14 76.2539 295.688 76.2539 294.873C76.2539 294.149 76.7023 293.425 77.5094 293.425C78.2268 293.425 78.9442 293.878 78.9442 294.692C78.9442 295.416 78.4958 296.14 77.6887 296.14Z" fill="#FFFDFB" stroke="#0ABAAD" stroke-miterlimit="10"/>
<path d="M91.051 296.14C90.3336 296.14 89.6162 295.688 89.6162 294.873C89.6162 294.149 90.0646 293.425 90.8717 293.425C91.5891 293.425 92.3065 293.878 92.3065 294.692C92.3065 295.416 91.8581 296.14 91.051 296.14Z" fill="#FFFDFB" stroke="#0ABAAD" stroke-miterlimit="10"/>
<rect x="-6.44434" y="-8.86841" width="172" height="737" fill="url(#paint0_radial_251_4181)"/>
</g>
<defs>
<radialGradient id="paint0_radial_251_4181" cx="0" cy="0" r="1" gradientUnits="userSpaceOnUse" gradientTransform="translate(79.5557 359.632) rotate(90) scale(368.5 86)">
<stop stop-color="white" stop-opacity="0"/>
<stop offset="1" stop-color="white"/>
</radialGradient>
<clipPath id="clip0_251_4181">
<rect width="172" height="737" fill="white"/>
</clipPath>
</defs>
</svg>
