<svg width="273" height="500" viewBox="0 0 273 500" fill="none" xmlns="http://www.w3.org/2000/svg">
<rect width="325.757" height="450.007" transform="matrix(-1 0 0 -1 336.111 494)" fill="#ECF3FB"/>
<path d="M143.273 289.216H161.784V271.982H143.273V289.216Z" fill="#ECF3FB" stroke="#0ABAAD" stroke-width="2" stroke-miterlimit="10"/>
<path d="M143.273 223.966H161.784V206.733H143.273V223.966Z" fill="#ECF3FB" stroke="#0ABAAD" stroke-width="2" stroke-miterlimit="10"/>
<path d="M143.273 158.717H161.784V141.484H143.273V158.717Z" fill="#ECF3FB" stroke="#0ABAAD" stroke-width="2" stroke-miterlimit="10"/>
<path d="M143.273 93.4674H161.784V76.2343H143.273V93.4674Z" fill="#ECF3FB" stroke="#0ABAAD" stroke-width="2" stroke-miterlimit="10"/>
<path d="M150.371 66.0186C150.371 66.0186 149.327 58.8613 153.294 58.3749L328.873 53.3717C328.873 53.3717 332.283 53.3717 332.561 50.7312C332.561 50.7312 333.118 48.0906 329.082 47.5347H153.224C153.224 47.5347 137.636 46.2144 136.244 54.4141C134.922 62.6137 136.244 66.0186 136.244 66.0186H150.301H150.371Z" fill="#ECF3FB" stroke="#0ABAAD" stroke-width="2" stroke-miterlimit="10"/>
<path d="M122.048 303.809H143.273V74.3586H122.048V303.809Z" fill="#ECF3FB" stroke="#0ABAAD" stroke-width="2" stroke-miterlimit="10"/>
<path d="M133.182 312.009H153.293V62.6148H133.182V312.009Z" fill="#ECF3FB" stroke="#0ABAAD" stroke-width="2" stroke-miterlimit="10"/>
<g style="mix-blend-mode:screen" opacity="0.4">
<path d="M133.182 312.009H142.716V62.6148H133.182V312.009Z" fill="#ECF3FB"/>
<path d="M133.182 312.009H142.716V62.6148H133.182V312.009Z" stroke="#0ABAAD" stroke-width="2" stroke-miterlimit="10"/>
</g>
<path d="M116.271 324.934H161.784V301.03H116.271V324.934Z" fill="#ECF3FB" stroke="#0ABAAD" stroke-width="2" stroke-miterlimit="10"/>
<path d="M116.271 312.983H161.784V301.031H116.271V312.983Z" fill="#ECF3FB" stroke="#0ABAAD" stroke-width="2" stroke-miterlimit="10"/>
<path d="M125.944 480.658L130.329 478.156V474.474L125.944 472.18V480.658Z" fill="#0ABAAD"/>
<path d="M125.944 471.763L130.329 469.331V465.649L125.944 463.286V471.763Z" fill="#0ABAAD"/>
<path d="M125.944 462.938L130.329 460.436V456.753L125.944 454.46V462.938Z" fill="#0ABAAD"/>
<path d="M125.944 454.043L130.329 451.542V447.859L125.944 445.566V454.043Z" fill="#0ABAAD"/>
<path d="M125.944 445.15L130.329 442.649V438.966L125.944 436.673V445.15Z" fill="#0ABAAD"/>
<path d="M125.944 436.256L130.329 433.824V430.071L125.944 427.778V436.256Z" fill="#0ABAAD"/>
<path d="M125.944 427.361L130.329 424.929V421.176L125.944 418.883V427.361Z" fill="#0ABAAD"/>
<path d="M125.944 418.465L130.329 416.033V412.35L125.944 410.057V418.465Z" fill="#0ABAAD"/>
<path d="M125.944 408.39L130.329 405.958V402.206L125.944 399.982V408.39Z" fill="#0ABAAD"/>
<path d="M125.944 399.566L130.329 397.065V393.382L125.944 391.089V399.566Z" fill="#0ABAAD"/>
<path d="M125.944 390.67L130.329 388.168V384.485L125.944 382.192V390.67Z" fill="#0ABAAD"/>
<path d="M125.944 381.776L130.329 379.274V375.591L125.944 373.298V381.776Z" fill="#0ABAAD"/>
<path d="M125.944 372.883L130.329 370.45V366.698L125.944 364.405V372.883Z" fill="#0ABAAD"/>
<path d="M125.944 363.988L130.329 361.556V357.873L125.944 355.58V363.988Z" fill="#0ABAAD"/>
<path d="M125.944 355.162L130.329 352.66V348.977L125.944 346.684V355.162Z" fill="#0ABAAD"/>
<path d="M125.944 346.268L130.329 343.766V340.083L125.944 337.79V346.268Z" fill="#0ABAAD"/>
<path d="M125.944 336.191L130.329 333.69V330.007L125.944 327.714V336.191Z" fill="#0ABAAD"/>
<path d="M125.944 327.297L130.329 324.795V321.112L125.944 318.819V327.297Z" fill="#0ABAAD"/>
<path d="M125.944 318.401L130.329 315.9V312.217L125.944 309.924V318.401Z" fill="#0ABAAD"/>
<path d="M125.944 309.507L130.329 307.075V303.323L125.944 301.03V309.507Z" fill="#0ABAAD"/>
<path d="M125.944 300.613L130.329 298.181V294.498L125.944 292.205V300.613Z" fill="#0ABAAD"/>
<path d="M125.944 291.789L130.329 289.288V285.605L125.944 283.312V291.789Z" fill="#0ABAAD"/>
<path d="M125.944 282.894L130.329 280.392V276.709L125.944 274.416V282.894Z" fill="#0ABAAD"/>
<path d="M125.944 273.998L130.329 271.497V267.814L125.944 265.521V273.998Z" fill="#0ABAAD"/>
<path d="M125.944 264.409L130.329 261.907V258.224L125.944 255.931V264.409Z" fill="#0ABAAD"/>
<path d="M125.944 255.514L130.329 253.013V249.33L125.944 247.037V255.514Z" fill="#0ABAAD"/>
<path d="M125.944 246.621L130.329 244.119V240.436L125.944 238.143V246.621Z" fill="#0ABAAD"/>
<path d="M125.944 237.725L130.329 235.293V231.54L125.944 229.247V237.725Z" fill="#0ABAAD"/>
<path d="M125.944 228.83L130.329 226.398V222.646L125.944 220.422V228.83Z" fill="#0ABAAD"/>
<path d="M125.944 219.936L130.329 217.504V213.821L125.944 211.528V219.936Z" fill="#0ABAAD"/>
<path d="M125.944 211.111L130.329 208.61V204.927L125.944 202.634V211.111Z" fill="#0ABAAD"/>
<path d="M125.944 202.215L130.329 199.714V196.031L125.944 193.738V202.215Z" fill="#0ABAAD"/>
<path d="M125.944 192.141L130.329 189.639V185.957L125.944 183.663V192.141Z" fill="#0ABAAD"/>
<path d="M125.944 183.246L130.329 180.745V177.062L125.944 174.769V183.246Z" fill="#0ABAAD"/>
<path d="M125.944 174.351L130.329 171.919V168.166L125.944 165.873V174.351Z" fill="#0ABAAD"/>
<path d="M125.944 165.457L130.329 163.025V159.273L125.944 157.049V165.457Z" fill="#0ABAAD"/>
<path d="M125.944 156.563L130.329 154.131V150.448L125.944 148.155V156.563Z" fill="#0ABAAD"/>
<path d="M125.944 147.739L130.329 145.237V141.554L125.944 139.261V147.739Z" fill="#0ABAAD"/>
<path d="M125.944 138.844L130.329 136.342V132.659L125.944 130.366V138.844Z" fill="#0ABAAD"/>
<path d="M125.944 129.948L130.329 127.446V123.763L125.944 121.47V129.948Z" fill="#0ABAAD"/>
<path d="M125.944 119.872L130.329 117.371V113.688L125.944 111.395V119.872Z" fill="#0ABAAD"/>
<path d="M125.944 110.978L130.329 108.546V104.793L125.944 102.5V110.978Z" fill="#0ABAAD"/>
<path d="M125.944 102.082L130.329 99.6501V95.9672L125.944 93.674V102.082Z" fill="#0ABAAD"/>
<path d="M125.944 93.2576L130.329 90.756V87.0731L125.944 84.78V93.2576Z" fill="#0ABAAD"/>
<path d="M125.944 84.3645L130.329 81.8629V78.18L125.944 75.8869V84.3645Z" fill="#0ABAAD"/>
<path d="M125.944 75.4701L130.329 72.9685V69.2856L125.944 66.9925V75.4701Z" fill="#0ABAAD"/>
<path d="M70.3848 260.267V483.479H66.7479V260.267H70.3848Z" fill="#ECF3FB" stroke="#0ABAAD" stroke-width="2"/>
<path d="M62.965 475.308H74.2388V274.834H62.965V475.308Z" fill="#ECF3FB" stroke="#0ABAAD" stroke-width="2" stroke-miterlimit="10"/>
<path d="M62.8944 475.308H68.5312V274.833H62.8944V475.308Z" fill="#ECF3FB" stroke="#0ABAAD" stroke-width="2" stroke-miterlimit="10"/>
<path d="M79.8055 488.858H127.197V60.8086H79.8055V488.858Z" fill="#ECF3FB" stroke="#0ABAAD" stroke-width="2" stroke-miterlimit="10"/>
<path d="M116.202 488.858H123.509V60.8087H116.202V488.858Z" fill="#ECF3FB" stroke="#0ABAAD" stroke-width="2" stroke-miterlimit="10"/>
<path d="M79.8745 488.858H103.536V60.8087H79.8745V488.858Z" fill="#ECF3FB" stroke="#0ABAAD" stroke-width="2" stroke-miterlimit="10"/>
<path d="M79.8055 488.858H127.197V475.585H79.8055V488.858Z" fill="#ECF3FB" stroke="#0ABAAD" stroke-width="2" stroke-miterlimit="10"/>
<path d="M79.805 409.641H127.197V401.58H79.805V409.641Z" fill="#ECF3FB" stroke="#0ABAAD" stroke-width="2" stroke-miterlimit="10"/>
<path d="M96.0541 271.214L98.9341 258.827L29.044 242.626L26.164 255.013L96.0541 271.214Z" fill="#ECF3FB" stroke="#0ABAAD" stroke-width="2" stroke-miterlimit="10"/>
<path d="M83.2855 266.773C83.2855 258.295 90.175 251.347 98.7348 251.347C107.295 251.347 114.184 258.226 114.184 266.773C114.184 275.32 107.295 282.199 98.7348 282.199C90.175 282.199 83.2855 275.32 83.2855 266.773Z" fill="#ECF3FB" stroke="#0ABAAD" stroke-width="2" stroke-miterlimit="10"/>
<path d="M91.1499 266.772C91.1499 262.603 94.4903 259.267 98.6658 259.267C102.841 259.267 106.182 262.672 106.182 266.772C106.182 270.872 102.841 274.277 98.6658 274.277C94.4903 274.277 91.1499 270.941 91.1499 266.772Z" fill="#ECF3FB" stroke="#0ABAAD" stroke-width="2" stroke-miterlimit="10"/>
<path d="M57.5358 490.526H134.226V481.909H57.5358V490.526Z" fill="#ECF3FB" stroke="#0ABAAD" stroke-width="2" stroke-miterlimit="10"/>
<path d="M14.5288 278.308L40.3473 273.027L47.376 231.056L24.4108 209.375L14.5288 278.308Z" fill="#ECF3FB" stroke="#0ABAAD" stroke-width="2" stroke-miterlimit="10"/>
<path d="M57.5358 416.451H134.226V407.834H57.5358V416.451Z" fill="#ECF3FB" stroke="#0ABAAD" stroke-width="2" stroke-miterlimit="10"/>
<rect x="339" y="500" width="339" height="500" transform="rotate(180 339 500)" fill="url(#paint0_radial_251_4265)"/>
<defs>
<radialGradient id="paint0_radial_251_4265" cx="0" cy="0" r="1" gradientUnits="userSpaceOnUse" gradientTransform="translate(508.5 750) rotate(90) scale(250 169.5)">
<stop offset="0.46" stop-color="#ECF3FB" stop-opacity="0"/>
<stop offset="1" stop-color="#ECF3FB"/>
</radialGradient>
</defs>
</svg>
