<svg width="1719" height="797" viewBox="0 0 1719 797" fill="none" xmlns="http://www.w3.org/2000/svg">
<mask id="mask0_251_4063" style="mask-type:luminance" maskUnits="userSpaceOnUse" x="0" y="0" width="1719" height="797">
<path d="M1718.32 0H0V797H1718.32V0Z" fill="white"/>
</mask>
<g mask="url(#mask0_251_4063)">
<path d="M716.968 384.548L1711.38 538.229" stroke="#73A942" stroke-width="5" stroke-miterlimit="10" stroke-linecap="round"/>
</g>
<path d="M709.192 429.944L1659.73 483.739" stroke="#6E9E45" stroke-width="5" stroke-miterlimit="10" stroke-linecap="round"/>
<path d="M701.487 475.342L1608.09 429.252" stroke="#69944B" stroke-width="5" stroke-miterlimit="10" stroke-linecap="round"/>
<path d="M693.786 520.736L1556.38 374.76" stroke="#678A4F" stroke-width="5" stroke-miterlimit="10" stroke-linecap="round"/>
<path d="M686.011 566.063L1504.74 320.271" stroke="#638154" stroke-width="5" stroke-miterlimit="10" stroke-linecap="round"/>
<path d="M678.302 611.459L1453.09 265.713" stroke="#5F7757" stroke-width="5" stroke-miterlimit="10" stroke-linecap="round"/>
<path d="M670.602 656.855L1401.45 211.224" stroke="#5B6F5A" stroke-width="5" stroke-miterlimit="10" stroke-linecap="round"/>
<path d="M662.828 702.252L1349.81 156.735" stroke="#59675B" stroke-width="5" stroke-miterlimit="10" stroke-linecap="round"/>
<path d="M655.12 747.647L1298.16 102.245" stroke="#545E5B" stroke-width="5" stroke-miterlimit="10" stroke-linecap="round"/>
<mask id="mask1_251_4063" style="mask-type:luminance" maskUnits="userSpaceOnUse" x="0" y="0" width="1719" height="797">
<path d="M1718.32 0H0V797H1718.32V0Z" fill="white"/>
</mask>
<g mask="url(#mask1_251_4063)">
<path d="M644.084 790.059L1249.85 50.811" stroke="#54565A" stroke-width="5" stroke-miterlimit="10" stroke-linecap="round"/>
</g>
<path d="M576.545 705.375L1180.99 128.137" stroke="#5C6160" stroke-width="5" stroke-miterlimit="10" stroke-linecap="round"/>
<path d="M505.748 617.638L1115.54 208.587" stroke="#666C64" stroke-width="5" stroke-miterlimit="10" stroke-linecap="round"/>
<path d="M434.947 529.9L1050.02 288.967" stroke="#707968" stroke-width="5" stroke-miterlimit="10" stroke-linecap="round"/>
<path d="M364.076 442.161L984.559 369.347" stroke="#7B866C" stroke-width="5" stroke-miterlimit="10" stroke-linecap="round"/>
<path d="M293.272 354.493L919.031 449.728" stroke="#88956F" stroke-width="5" stroke-miterlimit="10" stroke-linecap="round"/>
<path d="M222.469 266.755L853.502 530.108" stroke="#96A473" stroke-width="5" stroke-miterlimit="10" stroke-linecap="round"/>
<path d="M151.6 179.018L788.047 610.558" stroke="#A3B476" stroke-width="5" stroke-miterlimit="10" stroke-linecap="round"/>
<path d="M77.7471 94.6794L725.579 687.536" stroke="#B3C678" stroke-width="5" stroke-miterlimit="10" stroke-linecap="round"/>
<mask id="mask2_251_4063" style="mask-type:luminance" maskUnits="userSpaceOnUse" x="0" y="0" width="1719" height="797">
<path d="M1718.32 0H0V797H1718.32V0Z" fill="white"/>
</mask>
<g mask="url(#mask2_251_4063)">
<path d="M660.047 767.984L6.94043 6.94043" stroke="#E2EDBB" stroke-width="5" stroke-miterlimit="10" stroke-linecap="round"/>
</g>
</svg>
