<svg width="184" height="275" viewBox="0 0 184 275" fill="none" xmlns="http://www.w3.org/2000/svg">
<path d="M93.9492 1L182.788 272.542" stroke="#F5D942" stroke-width="2" stroke-miterlimit="10" stroke-linecap="round"/>
<path d="M177.057 255.059L80.2881 28.7119" stroke="#E7D35D" stroke-width="2" stroke-miterlimit="10" stroke-linecap="round"/>
<path d="M171.326 237.585L66.6265 56.4335" stroke="#D9CD74" stroke-width="2" stroke-miterlimit="10" stroke-linecap="round"/>
<path d="M165.604 220.111L52.9648 84.1446" stroke="#CBC885" stroke-width="2" stroke-miterlimit="10" stroke-linecap="round"/>
<path d="M159.874 202.638L39.3052 111.857" stroke="#BDC295" stroke-width="2" stroke-miterlimit="10" stroke-linecap="round"/>
<path d="M154.143 185.155L25.6436 139.578" stroke="#AEBDA4" stroke-width="2" stroke-miterlimit="10" stroke-linecap="round"/>
<path d="M148.412 167.681L11.9829 167.29" stroke="#9FB8B3" stroke-width="2" stroke-miterlimit="10" stroke-linecap="round"/>
<path d="M142.681 150.208L-1.67773 195.002" stroke="#8FB3C0" stroke-width="2" stroke-miterlimit="10" stroke-linecap="round"/>
<path d="M136.96 132.724L-15.3384 222.724" stroke="#7EAECD" stroke-width="2" stroke-miterlimit="10" stroke-linecap="round"/>
<path d="M131.229 115.251L-29 250.436" stroke="#67ABE4" stroke-width="2" stroke-miterlimit="10" stroke-linecap="round"/>
<path d="M134.475 107.214L-8.57959 253.019" stroke="#7CAAC8" stroke-width="2" stroke-miterlimit="10" stroke-linecap="round"/>
<path d="M137.73 99.1883L11.8398 255.593" stroke="#8BAAB7" stroke-width="2" stroke-miterlimit="10" stroke-linecap="round"/>
<path d="M140.986 91.1516L32.2603 258.166" stroke="#98AAA6" stroke-width="2" stroke-miterlimit="10" stroke-linecap="round"/>
<path d="M144.232 83.1155L52.6797 260.75" stroke="#A4AA93" stroke-width="2" stroke-miterlimit="10" stroke-linecap="round"/>
<path d="M147.488 75.0794L73.1001 263.324" stroke="#AFAB82" stroke-width="2" stroke-miterlimit="10" stroke-linecap="round"/>
<path d="M150.746 67.0438L93.522 265.908" stroke="#BAAB6F" stroke-width="2" stroke-miterlimit="10" stroke-linecap="round"/>
<path d="M153.99 59.017L113.94 268.481" stroke="#C5AB59" stroke-width="2" stroke-miterlimit="10" stroke-linecap="round"/>
<path d="M157.246 50.981L134.36 271.065" stroke="#CFAB41" stroke-width="2" stroke-miterlimit="10" stroke-linecap="round"/>
<path d="M154.78 273.638L160.492 42.9442" stroke="#DAA900" stroke-width="2" stroke-miterlimit="10" stroke-linecap="round"/>
</svg>
