<svg width="809" height="318" viewBox="0 0 809 318" fill="none" xmlns="http://www.w3.org/2000/svg">
<g clip-path="url(#clip0_251_3321)">
<path d="M806.319 39.46H142.167C76.0475 39.46 22.5806 92.9059 22.5806 158.999C22.5806 225.093 76.1495 278.539 142.167 278.539H806.319C872.439 278.539 925.906 224.991 925.906 158.999C925.906 93.0079 872.337 39.46 806.319 39.46Z" stroke="#0ABAAD" stroke-width="2" stroke-miterlimit="10"/>
<path d="M800.81 56.085H150.432C95.2303 56.085 50.4365 100.861 50.4365 156.041C50.4365 211.221 95.2303 255.997 150.432 255.997H800.81C856.011 255.997 900.805 211.221 900.805 156.041C900.805 100.861 856.011 56.085 800.81 56.085Z" stroke="#0ABAAD" stroke-width="2" stroke-miterlimit="10"/>
<path d="M781.321 77.0965H164.207C111.862 77.0965 69.3132 113.203 69.3132 157.673C69.3132 202.144 111.76 238.25 164.207 238.25H781.321C833.665 238.25 876.214 202.144 876.214 157.673C876.214 113.203 833.767 77.0965 781.321 77.0965Z" fill="white" stroke="#0ABAAD" stroke-width="2" stroke-miterlimit="10"/>
<path d="M703.161 119.526C706.63 108.001 710.1 96.5773 713.569 85.0518H222.877C228.693 96.5773 234.714 108.103 240.734 119.526H703.161Z" fill="white" stroke="#0ABAAD" stroke-width="2" stroke-miterlimit="10"/>
<path d="M231.449 158.081C231.449 202.858 195.124 239.066 150.432 239.066C105.74 239.066 69.4153 202.756 69.4153 158.081C69.4153 113.407 105.74 77.0965 150.432 77.0965C195.124 77.0965 231.449 113.407 231.449 158.081Z" stroke="#0ABAAD" stroke-width="2" stroke-miterlimit="10"/>
<path d="M346.851 213.873C346.851 236.006 328.893 254.059 306.649 254.059C284.405 254.059 266.447 236.108 266.447 213.873C266.447 191.638 284.405 173.687 306.649 173.687C328.893 173.687 346.851 191.638 346.851 213.873Z" fill="white" stroke="#0ABAAD" stroke-width="2" stroke-miterlimit="10"/>
<path d="M330.933 213.873C330.933 227.336 320.016 238.148 306.649 238.148C293.282 238.148 282.364 227.234 282.364 213.873C282.364 200.511 293.282 189.598 306.649 189.598C320.016 189.598 330.933 200.511 330.933 213.873Z" stroke="#0ABAAD" stroke-width="2" stroke-miterlimit="10"/>
<path d="M324.403 213.873C324.403 223.665 316.444 231.621 306.649 231.621C296.853 231.621 288.895 223.665 288.895 213.873C288.895 204.082 296.853 196.126 306.649 196.126C316.444 196.126 324.403 204.082 324.403 213.873Z" stroke="#0ABAAD" stroke-width="2" stroke-miterlimit="10"/>
<path d="M434.092 213.873C434.092 236.006 416.134 254.059 393.89 254.059C371.646 254.059 353.688 236.108 353.688 213.873C353.688 191.638 371.646 173.687 393.89 173.687C416.134 173.687 434.092 191.638 434.092 213.873Z" fill="white" stroke="#0ABAAD" stroke-width="2" stroke-miterlimit="10"/>
<path d="M418.276 213.873C418.276 227.336 407.358 238.148 393.992 238.148C380.625 238.148 369.707 227.234 369.707 213.873C369.707 200.511 380.625 189.598 393.992 189.598C407.358 189.598 418.276 200.511 418.276 213.873Z" stroke="#0ABAAD" stroke-width="2" stroke-miterlimit="10"/>
<path d="M411.746 213.873C411.746 223.665 403.787 231.621 393.992 231.621C384.196 231.621 376.237 223.665 376.237 213.873C376.237 204.082 384.196 196.126 393.992 196.126C403.787 196.126 411.746 204.082 411.746 213.873Z" stroke="#0ABAAD" stroke-width="2" stroke-miterlimit="10"/>
<path d="M521.435 213.873C521.435 236.006 503.476 254.059 481.232 254.059C458.989 254.059 441.03 236.108 441.03 213.873C441.03 191.638 458.989 173.687 481.232 173.687C503.476 173.687 521.435 191.638 521.435 213.873Z" fill="white" stroke="#0ABAAD" stroke-width="2" stroke-miterlimit="10"/>
<path d="M505.619 213.873C505.619 227.336 494.701 238.148 481.334 238.148C467.968 238.148 456.948 227.234 456.948 213.873C456.948 200.511 467.866 189.598 481.334 189.598C494.803 189.598 505.619 200.511 505.619 213.873Z" stroke="#0ABAAD" stroke-width="2" stroke-miterlimit="10"/>
<path d="M499.089 213.873C499.089 223.665 491.13 231.621 481.335 231.621C471.539 231.621 463.479 223.665 463.479 213.873C463.479 204.082 471.437 196.126 481.335 196.126C491.232 196.126 499.089 204.082 499.089 213.873Z" stroke="#0ABAAD" stroke-width="2" stroke-miterlimit="10"/>
<path d="M696.019 213.873C696.019 236.006 678.06 254.059 655.816 254.059C633.573 254.059 615.614 236.108 615.614 213.873C615.614 191.638 633.573 173.687 655.816 173.687C678.06 173.687 696.019 191.638 696.019 213.873Z" fill="white" stroke="#0ABAAD" stroke-width="2" stroke-miterlimit="10"/>
<path d="M680.203 213.873C680.203 227.336 669.285 238.148 655.918 238.148C642.552 238.148 631.634 227.234 631.634 213.873C631.634 200.511 642.552 189.598 655.918 189.598C669.285 189.598 680.203 200.511 680.203 213.873Z" stroke="#0ABAAD" stroke-width="2" stroke-miterlimit="10"/>
<path d="M673.673 213.873C673.673 223.665 665.714 231.621 655.918 231.621C646.123 231.621 638.164 223.665 638.164 213.873C638.164 204.082 646.123 196.126 655.918 196.126C665.714 196.126 673.673 204.082 673.673 213.873Z" stroke="#0ABAAD" stroke-width="2" stroke-miterlimit="10"/>
<path d="M608.777 213.873C608.777 236.006 590.819 254.059 568.575 254.059C546.331 254.059 528.373 236.108 528.373 213.873C528.373 191.638 546.331 173.687 568.575 173.687C590.819 173.687 608.777 191.638 608.777 213.873Z" fill="white" stroke="#0ABAAD" stroke-width="2" stroke-miterlimit="10"/>
<path d="M592.86 213.873C592.86 227.336 581.942 238.148 568.576 238.148C555.209 238.148 544.291 227.234 544.291 213.873C544.291 200.511 555.209 189.598 568.576 189.598C581.942 189.598 592.86 200.511 592.86 213.873Z" stroke="#0ABAAD" stroke-width="2" stroke-miterlimit="10"/>
<path d="M586.33 213.873C586.33 223.665 578.371 231.621 568.576 231.621C558.78 231.621 550.821 223.665 550.821 213.873C550.821 204.082 558.78 196.126 568.576 196.126C578.371 196.126 586.33 204.082 586.33 213.873Z" stroke="#0ABAAD" stroke-width="2" stroke-miterlimit="10"/>
<path d="M343.892 199.084C337.974 184.295 323.587 173.789 306.649 173.789C289.711 173.789 275.324 184.295 269.406 199.084H343.892Z" fill="white" stroke="#0ABAAD" stroke-width="2" stroke-miterlimit="10"/>
<path d="M431.235 199.084C425.317 184.295 410.93 173.789 393.992 173.789C377.054 173.789 362.667 184.295 356.749 199.084H431.235Z" fill="white" stroke="#0ABAAD" stroke-width="2" stroke-miterlimit="10"/>
<path d="M518.476 199.084C512.558 184.295 498.171 173.789 481.233 173.789C464.295 173.789 449.908 184.295 443.99 199.084H518.476Z" fill="white" stroke="#0ABAAD" stroke-width="2" stroke-miterlimit="10"/>
<path d="M693.161 199.084C687.243 184.295 672.856 173.789 655.918 173.789C638.98 173.789 624.593 184.295 618.675 199.084H693.161Z" fill="white" stroke="#0ABAAD" stroke-width="2" stroke-miterlimit="10"/>
<path d="M605.818 199.084C599.9 184.295 585.513 173.789 568.575 173.789C551.637 173.789 537.25 184.295 531.332 199.084H605.818Z" fill="white" stroke="#0ABAAD" stroke-width="2" stroke-miterlimit="10"/>
<path d="M206.042 158.081C206.042 188.782 181.145 213.669 150.432 213.669C119.719 213.669 94.8223 188.782 94.8223 158.081C94.8223 127.38 119.719 102.493 150.432 102.493C181.145 102.493 206.042 127.38 206.042 158.081Z" stroke="#0ABAAD" stroke-width="2" stroke-miterlimit="10"/>
<path d="M186.859 156.654C186.859 176.747 170.533 193.066 150.432 193.066C130.331 193.066 114.005 176.747 114.005 156.654C114.005 136.561 130.331 120.241 150.432 120.241C170.533 120.241 186.859 136.561 186.859 156.654Z" stroke="#0ABAAD" stroke-width="2" stroke-miterlimit="10"/>
<path d="M154.003 110.144C154.003 112.082 152.472 113.612 150.534 113.612C148.595 113.612 147.064 112.082 147.064 110.144C147.064 108.206 148.595 106.676 150.534 106.676C152.472 106.676 154.003 108.206 154.003 110.144Z" stroke="#0ABAAD" stroke-width="2" stroke-miterlimit="10"/>
<path d="M153.799 203.368C153.799 205.306 152.268 206.836 150.33 206.836C148.391 206.836 146.86 205.306 146.86 203.368C146.86 201.43 148.391 199.9 150.33 199.9C152.268 199.9 153.799 201.43 153.799 203.368Z" stroke="#0ABAAD" stroke-width="2" stroke-miterlimit="10"/>
<path d="M197.062 160.325C195.123 160.325 193.593 158.795 193.593 156.858C193.593 154.92 195.123 153.39 197.062 153.39C199.001 153.39 200.531 154.92 200.531 156.858C200.531 158.795 199.001 160.325 197.062 160.325Z" stroke="#0ABAAD" stroke-width="2" stroke-miterlimit="10"/>
<path d="M103.801 160.121C101.863 160.121 100.332 158.591 100.332 156.653C100.332 154.715 101.863 153.186 103.801 153.186C105.74 153.186 107.27 154.715 107.27 156.653C107.27 158.591 105.74 160.121 103.801 160.121Z" stroke="#0ABAAD" stroke-width="2" stroke-miterlimit="10"/>
<path d="M185.838 126.259C184.511 127.585 182.267 127.585 180.94 126.259C179.614 124.933 179.614 122.689 180.94 121.363C182.267 120.037 184.511 120.037 185.838 121.363C187.164 122.689 187.164 124.933 185.838 126.259Z" stroke="#0ABAAD" stroke-width="2" stroke-miterlimit="10"/>
<path d="M119.821 192.148C118.392 193.474 116.25 193.474 114.923 192.148C113.597 190.822 113.597 188.578 114.923 187.252C116.25 185.926 118.494 185.926 119.821 187.252C121.147 188.578 121.147 190.822 119.821 192.148Z" stroke="#0ABAAD" stroke-width="2" stroke-miterlimit="10"/>
<path d="M180.839 192.251C179.512 190.925 179.512 188.681 180.839 187.355C182.165 186.029 184.41 186.029 185.736 187.355C187.063 188.681 187.063 190.925 185.736 192.251C184.41 193.577 182.165 193.577 180.839 192.251Z" stroke="#0ABAAD" stroke-width="2" stroke-miterlimit="10"/>
<path d="M115.025 126.157C113.699 124.831 113.699 122.587 115.025 121.261C116.352 119.935 118.596 119.935 119.923 121.261C121.249 122.587 121.249 124.831 119.923 126.157C118.596 127.483 116.352 127.483 115.025 126.157Z" stroke="#0ABAAD" stroke-width="2" stroke-miterlimit="10"/>
<path d="M876.112 158.081C876.112 202.858 839.787 239.066 795.096 239.066C750.404 239.066 714.079 202.756 714.079 158.081C714.079 113.407 750.404 77.0965 795.096 77.0965C839.787 77.0965 876.112 113.407 876.112 158.081Z" stroke="#0ABAAD" stroke-width="2" stroke-miterlimit="10"/>
<path d="M850.603 158.081C850.603 188.782 825.706 213.669 794.993 213.669C764.281 213.669 739.384 188.782 739.384 158.081C739.384 127.38 764.281 102.493 794.993 102.493C825.706 102.493 850.603 127.38 850.603 158.081Z" stroke="#0ABAAD" stroke-width="2" stroke-miterlimit="10"/>
<path d="M831.523 156.654C831.523 176.747 815.197 193.066 795.096 193.066C774.995 193.066 758.669 176.747 758.669 156.654C758.669 136.561 774.995 120.241 795.096 120.241C815.197 120.241 831.523 136.561 831.523 156.654Z" fill="white" stroke="#0ABAAD" stroke-width="2" stroke-miterlimit="10"/>
<path d="M798.565 110.041C798.565 111.979 797.034 113.509 795.095 113.509C793.157 113.509 791.626 111.979 791.626 110.041C791.626 108.103 793.157 106.573 795.095 106.573C797.034 106.573 798.565 108.103 798.565 110.041Z" stroke="#0ABAAD" stroke-width="2" stroke-miterlimit="10"/>
<path d="M798.361 203.368C798.361 205.306 796.83 206.836 794.891 206.836C792.953 206.836 791.422 205.306 791.422 203.368C791.422 201.43 792.953 199.9 794.891 199.9C796.83 199.9 798.361 201.43 798.361 203.368Z" stroke="#0ABAAD" stroke-width="2" stroke-miterlimit="10"/>
<path d="M748.363 160.121C746.424 160.121 744.894 158.591 744.894 156.653C744.894 154.716 746.424 153.186 748.363 153.186C750.302 153.186 751.832 154.716 751.832 156.653C751.832 158.591 750.302 160.121 748.363 160.121Z" stroke="#0ABAAD" stroke-width="2" stroke-miterlimit="10"/>
<path d="M764.485 192.046C763.158 193.372 760.913 193.372 759.587 192.046C758.26 190.721 758.26 188.477 759.587 187.151C760.913 185.825 763.158 185.825 764.485 187.151C765.811 188.477 765.811 190.721 764.485 192.046Z" stroke="#0ABAAD" stroke-width="2" stroke-miterlimit="10"/>
<path d="M759.689 126.157C758.362 124.831 758.362 122.587 759.689 121.261C761.015 119.935 763.26 119.935 764.587 121.261C766.015 122.587 766.015 124.831 764.587 126.157C763.26 127.483 761.015 127.483 759.689 126.157Z" stroke="#0ABAAD" stroke-width="2" stroke-miterlimit="10"/>
<path d="M806.32 39.46H142.167C76.0475 39.46 22.5806 92.9059 22.5806 158.999C22.5806 225.093 76.1495 278.539 142.167 278.539H806.32C872.439 278.539 925.906 224.991 925.906 158.999C925.906 93.0079 872.337 39.46 806.32 39.46ZM800.81 255.998H150.432C95.2302 255.998 50.4364 211.221 50.4364 156.041C50.4364 100.862 95.1282 56.0853 150.432 56.0853H800.81C856.011 56.0853 900.805 100.862 900.805 156.041C900.805 211.221 856.011 255.998 800.81 255.998Z" fill="white" stroke="#0ABAAD" stroke-width="2" stroke-miterlimit="10"/>
<path d="M189.206 54.2499H233.183V31.8107H189.206V36.7065L209.001 38.3385V48.6401L189.206 49.966V54.2499Z" stroke="#0ABAAD" stroke-width="2" stroke-miterlimit="10"/>
<path d="M197.981 34.9719H193.083V52.2092H197.981V34.9719Z" stroke="#0ABAAD" stroke-width="2" stroke-miterlimit="10"/>
<path d="M228.081 24.5686H216.041C215.939 26.6085 215.735 28.5464 215.633 29.9743C215.327 34.3602 198.083 33.4422 198.083 33.4422L226.653 37.726L233.285 33.4422L229.102 30.4843L228.183 24.6705L228.081 24.5686Z" stroke="#0ABAAD" stroke-width="2" stroke-miterlimit="10"/>
<path d="M211.347 42.7236C211.347 48.0274 215.531 52.3112 220.53 52.3112C225.53 52.3112 229.714 48.0274 229.714 42.7236C229.714 37.4198 225.632 33.1359 220.53 33.1359C215.429 33.1359 211.347 37.4198 211.347 42.7236Z" stroke="#0ABAAD" stroke-width="2" stroke-miterlimit="10"/>
<path d="M239.101 43.6422L231.959 32.5246L229.714 35.5845L231.143 45.5801L239.101 43.6422Z" stroke="#0ABAAD" stroke-width="2" stroke-miterlimit="10"/>
<path d="M143.085 54.2499H187.165V31.8107H143.085V36.7065L162.982 38.3385V48.6401L143.085 49.966V54.2499Z" stroke="#0ABAAD" stroke-width="2" stroke-miterlimit="10"/>
<path d="M151.962 34.9719H147.064V52.2092H151.962V34.9719Z" stroke="#0ABAAD" stroke-width="2" stroke-miterlimit="10"/>
<path d="M182.063 24.5686H170.023C169.921 26.6085 169.717 28.5464 169.615 29.9743C169.309 34.3602 151.962 33.4422 151.962 33.4422L180.532 37.726L187.165 33.4422L182.879 30.4843L181.961 24.6705L182.063 24.5686Z" stroke="#0ABAAD" stroke-width="2" stroke-miterlimit="10"/>
<path d="M165.329 42.7236C165.329 48.0274 169.411 52.3112 174.513 52.3112C179.614 52.3112 183.696 48.0274 183.696 42.7236C183.696 37.4198 179.614 33.1359 174.513 33.1359C169.411 33.1359 165.329 37.4198 165.329 42.7236Z" stroke="#0ABAAD" stroke-width="2" stroke-miterlimit="10"/>
<path d="M193.083 43.6422L185.94 32.5246L183.696 35.5845L185.022 45.5801L193.083 43.6422Z" stroke="#0ABAAD" stroke-width="2" stroke-miterlimit="10"/>
<path d="M101.148 62.6131C101.148 62.6131 101.659 62.4091 102.679 62.0011C103.699 61.5932 105.128 61.0832 106.76 60.4712C110.128 59.0433 114.821 57.9213 119.413 56.6973C121.76 55.9834 124.209 55.8814 126.351 55.4734C128.596 55.1674 130.637 54.6574 132.473 54.6574C136.045 54.4534 138.494 54.3514 138.494 54.3514L137.779 31.9123C137.779 31.9123 134.82 32.0143 130.433 32.3203C128.188 32.3203 125.739 32.9323 122.984 33.3402C120.331 33.8502 117.372 34.0542 114.515 34.8702C108.801 36.2981 103.087 37.7261 99.0056 39.358C96.9649 40.072 95.2303 40.786 94.0058 41.1939C92.7814 41.6019 92.1692 41.9079 92.1692 41.9079L94.1079 46.3957C94.1079 46.3957 94.414 46.2937 94.9242 46.1917C95.4343 46.0898 96.2506 45.7838 97.169 45.5798C99.0056 45.0698 101.454 44.3558 103.903 43.7438C106.352 42.9279 108.801 42.7239 110.638 42.4179C112.474 42.1119 113.699 41.9079 113.699 41.9079L116.148 51.9035C116.148 51.9035 115.025 52.3115 113.393 52.8215C111.76 53.4335 109.515 53.9434 107.475 54.9634C105.434 55.8814 103.291 56.7993 101.761 57.5133C100.944 57.8193 100.332 58.1253 99.9239 58.3293C99.5158 58.5333 99.2097 58.6353 99.2097 58.6353L100.944 62.6131H101.148Z" stroke="#0ABAAD" stroke-width="2" stroke-miterlimit="10"/>
<path d="M103.699 59.5526L107.78 58.0227L102.271 41.7033L97.4749 43.4372L103.699 59.5526Z" stroke="#0ABAAD" stroke-width="2" stroke-miterlimit="10"/>
<path d="M131.861 25.0782C131.861 25.0782 128.494 25.0782 125.127 25.7922C121.76 26.3022 118.392 26.8121 118.392 26.8121C118.596 28.8521 118.801 30.79 118.903 32.1159C119.005 33.2379 117.984 34.1559 116.352 34.9718C114.719 35.8898 112.576 36.8078 110.434 37.5217C108.291 38.2357 106.046 38.8477 104.413 39.2557C102.781 39.7656 101.76 40.1736 101.76 40.1736C101.76 40.1736 102.169 40.1736 102.985 39.8676C103.801 39.6636 104.924 39.4597 106.352 39.2557C109.209 38.9497 112.882 38.5417 116.556 38.1337C120.331 37.9297 124.004 38.1337 126.759 38.0317C129.514 38.0317 131.351 38.1337 131.351 38.1337C131.351 38.1337 132.984 37.0117 134.616 35.7878C136.249 34.6658 137.983 33.4419 137.983 33.4419L133.392 30.688L131.963 24.8742L131.861 25.0782Z" stroke="#0ABAAD" stroke-width="2" stroke-miterlimit="10"/>
<path d="M117.168 45.4774C117.78 48.1293 119.209 50.0672 121.045 51.5972C122.882 53.1271 125.127 53.8411 127.372 53.5351C131.759 52.6171 135.228 48.5373 134.922 43.1315C134.718 37.9297 130.025 33.5439 124.719 34.5638C122.066 34.9718 119.821 36.3998 118.495 38.3377C117.066 40.2756 116.658 43.0295 117.27 45.5794L117.168 45.4774Z" stroke="#0ABAAD" stroke-width="2" stroke-miterlimit="10"/>
<path d="M144.106 43.6415C144.106 43.6415 142.371 40.7856 140.534 38.1337C138.698 35.4818 136.657 32.7279 136.657 32.7279L134.514 35.9918L136.453 45.8854C136.453 45.8854 138.392 45.2734 140.228 44.7634C142.167 44.1515 144.106 43.7435 144.106 43.7435V43.6415Z" stroke="#0ABAAD" stroke-width="2" stroke-miterlimit="10"/>
<path d="M67.9867 85.0512C67.9867 85.0512 69.8234 83.4193 72.4763 80.9714C75.0272 78.3195 79.0066 75.6676 82.884 72.7097C84.8227 71.2817 86.9654 70.1598 88.9041 68.9358C90.8428 67.8139 92.5774 66.5899 94.312 65.876C97.5772 64.346 99.7199 63.2241 99.7199 63.2241L90.5367 42.7228C90.5367 42.7228 87.8838 44.0488 83.9044 45.8847C81.8636 46.7007 79.7209 48.1286 77.374 49.5566C75.0272 50.9845 72.4763 52.4125 70.1295 54.1464C65.4358 57.6143 60.6401 61.0821 57.5791 64.142C54.3139 67.0999 52.1711 69.0378 52.1711 69.0378L55.6404 72.5057C55.6404 72.5057 59.6198 69.4458 63.5992 66.2839C65.5379 64.652 67.8847 63.53 69.4152 62.5101C71.0478 61.4901 72.0682 60.8781 72.0682 60.8781L78.0883 69.2418C78.0883 69.2418 77.272 69.9558 75.9455 71.0778C74.7211 72.3017 72.7824 73.5257 71.3539 75.2596C68.1908 78.5235 65.1297 81.8893 65.1297 81.8893L68.1908 84.9492L67.9867 85.0512Z" stroke="#0ABAAD" stroke-width="2" stroke-miterlimit="10"/>
<path d="M69.2114 81.2772L72.3745 78.3194L61.1506 65.2639L57.3752 68.6297L69.2114 81.2772Z" stroke="#0ABAAD" stroke-width="2" stroke-miterlimit="10"/>
<path d="M82.2717 38.7453C82.2717 38.7453 81.4554 39.1533 80.333 39.6633C79.2106 40.1733 77.6801 40.9892 76.2516 41.9072C73.2925 43.6411 70.4355 45.477 70.4355 45.477C71.4559 47.313 72.3742 49.0469 72.9864 50.1689C73.4966 51.0868 72.8844 52.4128 71.6599 53.7387C70.5375 55.1667 68.8029 56.7986 67.0683 58.3286C65.3337 59.8585 63.4971 61.1844 62.1706 62.2044C60.8441 63.3264 60.0278 64.0403 60.0278 64.0403C60.0278 64.0403 60.436 63.7343 61.0482 63.3264C61.7624 62.8164 62.6808 62.2044 64.0072 61.5924C66.4561 60.2665 69.7213 58.4305 73.0884 56.6966C76.4556 55.2687 79.9249 53.8407 82.4758 52.7188C83.7002 52.1068 84.8226 51.8008 85.6389 51.5968C86.4552 51.3928 86.8633 51.1888 86.8633 51.1888C86.8633 51.1888 87.8837 49.4549 89.0061 47.823C90.1285 46.089 91.2509 44.3551 91.2509 44.3551L85.945 43.6411L82.4758 38.8473L82.2717 38.7453Z" stroke="#0ABAAD" stroke-width="2" stroke-miterlimit="10"/>
<path d="M76.3536 63.122C79.3127 67.3039 84.9247 69.0378 88.802 66.6919C89.8224 66.0799 90.5367 65.264 91.1489 64.346C91.8631 63.53 92.2713 62.5101 92.5774 61.3881C93.1896 59.1442 92.9855 56.5943 91.8631 54.2484C90.7407 51.9025 88.802 50.1685 86.4552 49.3526C85.3328 48.9446 84.0064 48.7406 82.7819 48.8426C81.5575 48.9446 80.3331 49.4546 79.2107 50.0665C74.517 52.9224 73.2926 58.6342 76.3536 63.122Z" stroke="#0ABAAD" stroke-width="2" stroke-miterlimit="10"/>
<path d="M100.536 51.4947C100.536 51.4947 97.8834 49.4548 95.1285 47.5169C92.3735 45.681 89.5165 44.049 89.5165 44.049L88.7002 47.8229L94.1081 56.1865C94.1081 56.1865 95.6386 54.9626 97.1692 53.6366C98.8018 52.5147 100.434 51.3927 100.434 51.3927L100.536 51.4947Z" stroke="#0ABAAD" stroke-width="2" stroke-miterlimit="10"/>
<path d="M45.0287 119.834C45.0287 119.834 45.2328 119.324 45.5389 118.304C46.0491 117.386 46.6613 115.958 47.4776 114.326C48.2939 112.694 49.1102 110.756 50.1305 108.818C51.355 106.88 52.5794 104.84 53.8038 102.8C54.9262 100.658 56.4568 98.8223 57.8853 96.9864C59.2117 95.1505 60.4362 93.4165 61.5586 92.0906C64.0074 89.4387 65.64 87.6028 65.64 87.6028L49.2122 72.2014C49.2122 72.2014 47.2735 74.3433 44.3145 77.6072C42.886 79.3411 41.4575 81.381 39.7228 83.5229C38.0903 85.7668 36.2536 88.0107 34.8251 90.5607C33.2946 93.0086 31.764 95.5585 30.3355 97.9044C29.1111 100.352 27.9887 102.698 27.0704 104.636C26.152 106.676 25.3358 108.308 24.8256 109.43C24.4174 110.654 24.1113 111.266 24.1113 111.266L28.6009 113.102C28.6009 113.102 28.703 112.796 29.0091 112.286C29.2131 111.776 29.6213 111.062 30.0294 110.246C30.9477 108.614 32.2742 106.37 33.6007 104.228C34.2129 103.106 34.9272 102.086 35.4373 101.066C36.1516 100.148 36.7638 99.2303 37.376 98.4143C38.4984 96.8844 39.2127 95.8644 39.2127 95.8644L47.9878 101.27C47.9878 101.27 47.4776 102.29 46.6613 103.82C46.2532 104.636 45.845 105.452 45.3348 106.472C44.9267 107.492 44.5185 108.512 44.1104 109.634C43.2941 111.776 42.4778 113.816 41.8656 115.448C41.5595 116.264 41.3554 116.876 41.2534 117.386C41.1513 117.896 41.0493 118.1 41.0493 118.1L45.0287 119.732V119.834Z" stroke="#0ABAAD" stroke-width="2" stroke-miterlimit="10"/>
<path d="M44.5187 115.856L46.4574 111.878L30.9479 104.33L28.8052 108.818L44.5187 115.856Z" stroke="#0ABAAD" stroke-width="2" stroke-miterlimit="10"/>
<path d="M40.131 71.5891L31.8661 82.2986C33.4987 83.6246 34.9272 84.8485 36.0496 85.6645C37.5801 86.9905 35.9476 91.3763 33.8048 95.4561C32.7844 97.4961 31.56 99.434 30.8458 100.964C30.0295 102.494 29.5193 103.514 29.5193 103.514C29.5193 103.514 30.5396 101.984 32.1722 99.638C34.0089 97.4961 36.3557 94.5382 38.7025 91.6823C41.0494 88.8264 43.9064 86.3785 45.743 84.3386C46.7634 83.4206 47.4776 82.6046 48.0898 81.9927C48.6 81.4827 49.0082 81.1767 49.0082 81.1767C49.0082 81.1767 49.3143 79.2388 49.6204 77.3008C50.0285 75.2609 50.3346 73.323 50.3346 73.323L45.1308 74.6489L40.029 71.5891H40.131Z" stroke="#0ABAAD" stroke-width="2" stroke-miterlimit="10"/>
<path d="M44.2126 96.3745C46.4574 97.8025 49.0083 98.2105 51.1511 97.9045C53.4979 97.5985 55.6406 96.6805 56.9671 94.8446C59.518 91.1727 58.9058 85.6649 54.9264 82.0951C51.049 78.5252 44.7228 78.8312 41.6617 83.217C40.0291 85.359 39.4169 87.9089 39.9271 90.2548C40.4373 92.7027 41.9678 94.8446 44.2126 96.2725V96.3745Z" stroke="#0ABAAD" stroke-width="2" stroke-miterlimit="10"/>
<path d="M61.8648 76.1789C61.8648 76.1789 58.5997 75.2609 55.4366 74.7509C52.1714 74.139 48.9062 73.629 48.9062 73.629L49.6205 77.4028L57.8854 83.0126L59.7221 79.5447C60.6404 77.7088 61.7628 76.1789 61.7628 76.1789H61.8648Z" stroke="#0ABAAD" stroke-width="2" stroke-miterlimit="10"/>
<path d="M37.3761 159.204C37.3761 159.204 37.4782 156.756 37.6822 153.186C37.8863 151.35 37.6822 149.208 38.0904 147.066C38.3965 144.822 38.8046 142.476 39.1107 140.13C39.3148 137.682 40.1311 135.439 40.6413 133.195C41.2535 131.053 41.6617 128.911 42.2739 127.279C43.4983 123.913 44.3146 121.669 44.3146 121.669L23.2952 113.611C23.2952 113.611 22.2748 116.365 20.7443 120.445C20.03 122.485 19.5198 125.035 18.8056 127.687C18.1934 130.339 17.275 133.195 16.9689 136.051C16.5608 138.906 16.0506 141.864 15.6425 144.516C15.1323 147.27 15.2343 149.82 15.1323 151.962C14.9282 156.348 14.8262 159.306 14.8262 159.306H19.7239C19.7239 159.306 20.3361 154.206 21.0504 149.208C21.2544 146.658 21.9687 144.21 22.3768 142.374C22.785 140.538 23.0911 139.314 23.0911 139.314L33.2947 140.946C33.2947 140.946 33.2947 142.068 33.0906 143.802C32.9886 145.536 32.6825 147.78 32.8866 150.024C32.8866 154.614 33.0906 159.102 33.0906 159.102H37.3761V159.204Z" stroke="#0ABAAD" stroke-width="2" stroke-miterlimit="10"/>
<path d="M35.5395 155.634L35.7436 151.248L18.6015 150.025L18.2954 155.124L35.5395 155.634Z" stroke="#0ABAAD" stroke-width="2" stroke-miterlimit="10"/>
<path d="M14.7241 116.263L11.0508 129.319C12.9895 129.931 14.9282 130.441 16.1526 130.849C19.9279 132.073 16.4587 149.82 16.8668 149.82C16.8668 149.82 16.8668 149.31 17.1729 148.596C17.377 147.78 17.4791 146.658 17.8872 145.23C18.7035 142.578 19.8259 139.008 20.8462 135.337C22.0707 131.767 23.6012 128.401 24.6216 125.851C25.1318 124.627 25.5399 123.505 25.948 122.791C26.3562 122.077 26.5603 121.669 26.5603 121.669C26.5603 121.669 26.1521 119.731 25.6419 117.793C25.2338 115.753 24.8256 113.815 24.8256 113.815L20.5401 117.079L14.622 116.161L14.7241 116.263Z" stroke="#0ABAAD" stroke-width="2" stroke-miterlimit="10"/>
<path d="M27.7849 137.785C30.4378 138.295 32.8867 137.785 34.8254 136.561C36.9681 135.439 38.4987 133.705 39.0088 131.461C39.9272 127.075 37.3763 122.281 32.3765 120.445C27.4788 118.609 21.6627 121.261 20.4383 126.565C19.724 129.115 20.2342 131.767 21.4586 133.807C22.7851 135.847 25.0299 137.275 27.6828 137.785H27.7849Z" stroke="#0ABAAD" stroke-width="2" stroke-miterlimit="10"/>
<path d="M36.6617 112.388C36.6617 112.388 33.2945 112.796 30.1314 113.408C26.9683 114.02 23.7031 114.836 23.7031 114.836L25.8459 118.1L35.6413 120.242C35.6413 120.242 35.8454 118.304 36.0495 116.264C36.2536 114.224 36.6617 112.388 36.6617 112.388Z" stroke="#0ABAAD" stroke-width="2" stroke-miterlimit="10"/>
<path d="M46.151 200.92C46.151 200.92 45.8449 200.41 45.4368 199.39C45.0286 198.37 44.5185 196.942 43.9062 195.31C43.294 193.576 42.4777 191.638 41.8655 189.496C41.3553 187.354 40.7431 185.008 40.1309 182.662C39.4167 180.317 39.1106 177.971 38.8044 175.727C38.4983 173.483 38.1922 171.443 37.8861 169.607C37.682 166.037 37.58 163.589 37.58 163.589L15.1321 164.507C15.1321 164.507 15.2341 167.465 15.5402 171.851C15.8463 173.993 16.2545 176.543 16.6626 179.297C17.0708 182.05 17.4789 184.906 18.2952 187.762C19.0094 190.618 19.7237 193.474 20.438 196.126C21.2542 198.778 22.1726 201.124 22.8868 203.164C23.6011 205.204 24.3153 206.937 24.7235 208.161C25.2336 209.385 25.5398 209.997 25.5398 209.997L30.0293 208.059C30.0293 208.059 29.5192 206.938 29.009 205.102C28.4988 203.266 27.8866 200.818 27.1723 198.37C26.8662 197.146 26.4581 195.922 26.254 194.8C26.0499 193.678 25.8459 192.556 25.6418 191.638C25.3357 189.802 25.1316 188.578 25.1316 188.578L35.1311 186.13C35.1311 186.13 35.5393 187.15 36.0495 188.782C36.3556 189.598 36.6617 190.516 36.9678 191.536C37.3759 192.556 37.8861 193.576 38.2943 194.596C39.2126 196.636 40.1309 198.778 40.8452 200.308C41.4574 201.838 42.1716 202.858 42.1716 202.858L46.151 201.124V200.92Z" stroke="#0ABAAD" stroke-width="2" stroke-miterlimit="10"/>
<path d="M42.9879 198.37L41.4574 194.29L25.2336 200.002L26.9683 204.796L42.9879 198.37Z" stroke="#0ABAAD" stroke-width="2" stroke-miterlimit="10"/>
<path d="M8.29564 170.525C8.29564 170.525 8.29564 171.341 8.39768 172.667C8.60175 173.891 8.80582 175.625 9.11193 177.257C9.62211 180.623 10.1323 183.988 10.1323 183.988C12.173 183.784 14.1117 183.58 15.4382 183.376C19.5196 182.968 23.2949 200.614 23.7031 200.512C23.7031 200.512 23.2949 198.676 22.7848 195.922C22.4787 193.168 22.0705 189.394 21.6624 185.722C21.2542 182.05 21.4583 178.277 21.3563 175.523C21.3563 174.095 21.3563 172.973 21.3563 172.259C21.3563 171.443 21.3563 171.035 21.3563 171.035C21.3563 171.035 20.2339 169.403 19.0094 167.873C17.887 166.241 16.6626 164.507 16.6626 164.507L13.9076 169.199L8.1936 170.627L8.29564 170.525Z" stroke="#0ABAAD" stroke-width="2" stroke-miterlimit="10"/>
<path d="M28.8049 185.11C31.3558 184.498 33.4986 183.07 34.8251 181.234C36.2536 179.399 37.0699 177.155 36.6617 174.911C36.3556 172.667 34.8251 170.831 33.0904 169.403C31.2538 168.077 28.8049 167.261 26.254 167.465C23.6011 167.669 21.2543 168.893 19.6217 170.729C17.9891 172.565 17.3769 175.115 17.785 177.767C18.1932 180.419 19.6217 182.662 21.5604 183.988C23.7031 185.314 26.254 185.722 28.8049 185.11Z" stroke="#0ABAAD" stroke-width="2" stroke-miterlimit="10"/>
<path d="M26.7641 158.285C26.7641 158.285 26.0498 158.693 25.0295 159.407C24.0091 160.121 22.6826 161.039 21.3562 161.957C18.7032 163.793 15.9482 165.833 15.9482 165.833L19.1114 167.975L29.0089 166.037C29.0089 166.037 28.3966 164.099 27.8865 162.263C27.5804 161.345 27.2742 160.325 27.0702 159.611C26.7641 158.897 26.7641 158.387 26.7641 158.387V158.285Z" stroke="#0ABAAD" stroke-width="2" stroke-miterlimit="10"/>
<path d="M68.905 233.865C68.905 233.865 68.3948 233.457 67.6805 232.743C66.9663 231.927 65.9459 230.805 64.7215 229.479C63.4971 228.153 61.9665 226.623 60.6401 224.889C59.3136 223.053 57.783 221.115 56.3545 219.177C54.824 217.341 53.7016 215.097 52.4772 213.262C51.3548 211.324 50.0283 209.59 49.3141 207.958C47.7835 204.694 46.7632 202.552 46.7632 202.552L26.2539 211.936C26.2539 211.936 27.4783 214.588 29.417 218.565C30.3353 220.605 31.8659 222.645 33.1924 224.991C34.7229 227.337 36.0494 229.887 37.886 232.233C39.6206 234.579 41.3552 236.925 43.0899 239.067C44.7224 241.208 46.5591 243.044 47.9876 244.676C49.5181 246.308 50.7426 247.634 51.5589 248.654C52.4772 249.572 52.9874 250.082 52.9874 250.082L56.4566 246.614C56.4566 246.614 55.5383 245.696 54.4159 244.166C53.2935 242.636 51.7629 240.596 50.1303 238.659C48.4978 236.721 47.1713 234.579 46.253 232.947C45.2326 231.315 44.6204 230.295 44.6204 230.295L52.8853 224.175C52.8853 224.175 53.5996 225.093 54.722 226.317C55.8444 227.643 57.2729 229.377 59.0075 230.907C60.6401 232.437 62.2726 234.069 63.4971 235.191C64.7215 236.415 65.6398 237.027 65.6398 237.027L68.7009 233.967L68.905 233.865Z" stroke="#0ABAAD" stroke-width="2" stroke-miterlimit="10"/>
<path d="M65.1295 232.743L62.1705 229.479L49.2119 240.902L52.5791 244.676L65.1295 232.743Z" stroke="#0ABAAD" stroke-width="2" stroke-miterlimit="10"/>
<path d="M22.3765 219.994C22.3765 219.994 23.7029 223.155 25.6416 226.011C27.3762 228.867 29.2129 231.825 29.2129 231.825C31.0495 230.805 32.7841 229.887 33.9065 229.275C37.4778 227.439 47.6814 242.331 47.9875 242.025C47.9875 242.025 46.8651 240.495 45.4366 238.149C44.1101 235.701 42.2735 232.335 40.5389 229.071C38.9063 225.705 37.5798 222.237 36.4574 219.79C35.335 217.24 34.8249 215.506 34.8249 215.506C34.8249 215.506 33.0902 214.486 31.4577 213.466C29.7231 212.344 27.9884 211.222 27.9884 211.222L27.2742 216.526L22.4785 220.096L22.3765 219.994Z" stroke="#0ABAAD" stroke-width="2" stroke-miterlimit="10"/>
<path d="M46.9671 225.705C49.1098 224.175 50.4363 222.033 51.0485 219.789C51.6607 217.545 51.5587 215.199 50.3343 213.262C47.8854 209.59 42.6816 207.958 37.7838 210.304C33.0902 212.548 30.8454 218.463 33.8044 223.053C35.2329 225.399 37.3757 226.827 39.7225 227.337C42.0693 227.847 44.7223 227.235 46.865 225.705H46.9671Z" stroke="#0ABAAD" stroke-width="2" stroke-miterlimit="10"/>
<path d="M35.0292 201.634C35.0292 201.634 34.519 202.348 33.8048 203.266C33.0905 204.286 32.0702 205.612 31.1518 207.04C29.4172 209.794 27.6826 212.65 27.6826 212.65L31.4579 213.466L39.8249 207.958C39.8249 207.958 38.6005 206.428 37.274 204.898C36.5598 204.184 36.0496 203.368 35.6414 202.756C35.2333 202.144 34.9272 201.736 34.9272 201.736L35.0292 201.634Z" stroke="#0ABAAD" stroke-width="2" stroke-miterlimit="10"/>
<path d="M103.699 256.304C103.699 256.304 101.353 255.59 98.1895 253.958C96.5569 253.142 94.6182 252.224 92.5775 251.306C90.6388 250.184 88.5981 248.858 86.5574 247.634C85.537 247.022 84.5166 246.41 83.4963 245.798C82.578 245.084 81.6596 244.37 80.7413 243.656C78.9047 242.33 77.2721 241.004 75.7415 239.984C73.0886 237.536 71.252 235.904 71.252 235.904L56.0486 252.428C56.0486 252.428 58.1913 254.366 61.4565 257.324C63.1911 258.649 65.2318 260.179 67.4766 261.811C68.599 262.627 69.7214 263.443 70.8438 264.361C72.0682 265.075 73.2927 265.891 74.5171 266.605C77.068 268.135 79.5169 269.665 81.8637 270.991C84.3126 272.215 86.6594 273.337 88.5981 274.255C92.4755 276.295 95.3325 277.111 95.3325 277.111L97.1691 272.521C96.863 273.031 79.6189 262.423 79.925 262.117L85.2309 253.346C85.2309 253.346 101.863 260.791 102.067 260.281L103.597 256.304H103.699Z" stroke="#0ABAAD" stroke-width="2" stroke-miterlimit="10"/>
<path d="M99.72 256.916L95.7406 254.978L88.1899 270.583L92.7816 272.725L99.72 256.916Z" stroke="#0ABAAD" stroke-width="2" stroke-miterlimit="10"/>
<path d="M55.4363 261.607C55.4363 261.607 56.0485 262.219 57.0689 263.035C58.0892 263.851 59.4157 264.871 60.8442 265.789C63.5992 267.829 66.2521 269.869 66.2521 269.869C67.5786 268.237 68.803 266.707 69.6193 265.687C70.9458 264.055 75.4353 265.687 79.5168 267.829C80.5371 268.339 81.5575 268.951 82.4758 269.461C83.4962 269.971 84.3125 270.379 85.1288 270.685C86.6593 271.501 87.6797 272.011 87.6797 272.011C87.6797 272.011 86.1491 270.991 83.8023 269.359C81.4555 267.727 78.7005 265.177 75.7415 262.933C72.7824 260.689 70.3335 257.834 68.3949 255.896C66.4562 253.958 65.1297 252.632 65.1297 252.632C65.1297 252.632 63.191 252.326 61.2523 252.02C59.2116 251.612 57.2729 251.306 57.2729 251.306L58.5994 256.508L55.5383 261.607H55.4363Z" stroke="#0ABAAD" stroke-width="2" stroke-miterlimit="10"/>
<path d="M80.2309 257.324C82.9859 252.836 82.0676 247.328 78.5984 244.574C76.7617 243.248 74.4149 242.84 72.1701 243.248C69.9253 243.554 67.6805 244.676 65.9459 246.716C64.2113 248.756 63.395 251.204 63.497 253.652C63.7011 256.1 65.0276 258.344 67.1703 259.975C71.4558 263.341 77.476 261.913 80.2309 257.324Z" stroke="#0ABAAD" stroke-width="2" stroke-miterlimit="10"/>
<path d="M59.9259 239.78C59.9259 239.78 59.7219 240.596 59.4158 241.82C59.2117 243.044 58.9056 244.574 58.5995 246.206C57.9872 249.368 57.5791 252.734 57.5791 252.734L61.3544 252.02L66.9664 243.656C66.9664 243.656 65.2318 242.738 63.4972 241.82C62.6809 241.31 61.7626 240.902 61.0483 240.494C60.4361 240.086 60.028 239.78 60.028 239.78H59.9259Z" stroke="#0ABAAD" stroke-width="2" stroke-miterlimit="10"/>
<path d="M143.187 263.749C143.187 263.749 142.371 263.749 141.351 263.749C140.33 263.749 138.8 263.647 136.963 263.545C135.126 263.443 132.984 263.443 130.739 263.239C128.494 262.933 126.147 262.525 123.698 262.117C121.249 261.913 119.005 261.199 116.76 260.587C114.617 260.077 112.576 259.465 110.74 259.057C107.373 257.834 105.128 257.018 105.128 257.018L97.1689 278.029C97.1689 278.029 99.9239 279.049 104.107 280.579C106.25 281.089 108.699 281.803 111.352 282.415C114.005 283.129 116.862 283.843 119.821 284.251C122.678 284.658 125.637 285.168 128.29 285.576C131.045 285.882 133.596 285.882 135.739 285.984C137.983 286.086 139.718 286.188 141.044 286.188C142.371 286.188 142.983 286.188 142.983 286.188V281.293C142.983 281.293 141.759 281.293 139.82 280.987C137.983 280.681 135.432 280.375 132.882 280.069C131.657 279.865 130.433 279.763 129.208 279.559C128.086 279.253 126.963 279.049 126.045 278.845C124.209 278.437 122.984 278.131 122.984 278.131L124.617 267.931C124.617 267.931 125.739 267.931 127.474 268.135C128.29 268.135 129.31 268.339 130.433 268.339C131.453 268.339 132.677 268.339 133.8 268.339C136.045 268.339 138.392 268.237 140.024 268.237C141.657 268.237 142.983 268.135 142.983 268.135V263.851L143.187 263.749Z" stroke="#0ABAAD" stroke-width="2" stroke-miterlimit="10"/>
<path d="M139.514 265.585L135.228 265.381L134.106 282.618L139.106 282.822L139.514 265.585Z" stroke="#0ABAAD" stroke-width="2" stroke-miterlimit="10"/>
<path d="M100.332 286.699C100.332 286.699 101.148 287.005 102.271 287.413C103.495 287.719 105.128 288.127 106.76 288.637C110.026 289.453 113.393 290.371 113.393 290.371C114.005 288.433 114.515 286.495 114.923 285.271C116.148 281.293 133.902 284.761 133.902 284.353C133.902 284.353 132.065 283.945 129.31 283.435C126.657 282.619 122.984 281.497 119.413 280.477C117.576 279.967 115.842 279.253 114.311 278.539C112.679 277.825 111.25 277.213 109.924 276.703C108.699 276.193 107.577 275.683 106.862 275.377C106.148 275.071 105.74 274.867 105.74 274.867C105.74 274.867 103.801 275.275 101.863 275.785C99.924 276.193 97.8833 276.601 97.8833 276.601L101.148 280.885L100.23 286.801L100.332 286.699Z" stroke="#0ABAAD" stroke-width="2" stroke-miterlimit="10"/>
<path d="M121.658 273.439C122.168 270.787 121.658 268.339 120.433 266.401C119.311 264.361 117.576 262.729 115.331 262.219C113.189 261.607 110.842 262.219 108.903 263.443C106.964 264.565 105.23 266.503 104.413 268.951C103.597 271.399 103.699 274.051 104.822 276.295C105.944 278.539 107.985 280.069 110.638 280.783C113.189 281.395 115.842 281.089 117.78 279.661C119.821 278.233 121.249 275.989 121.658 273.439Z" stroke="#0ABAAD" stroke-width="2" stroke-miterlimit="10"/>
<path d="M96.2507 264.77C96.2507 264.77 96.3528 265.586 96.5568 266.81C96.7609 268.033 97.067 269.563 97.3731 271.195C97.9853 274.357 98.9037 277.621 98.9037 277.621L102.169 275.479L104.21 265.688C104.21 265.688 102.271 265.484 100.23 265.28C99.2098 265.178 98.1894 265.076 97.4752 264.974C96.7609 264.872 96.2507 264.77 96.2507 264.77Z" stroke="#0ABAAD" stroke-width="2" stroke-miterlimit="10"/>
<path d="M192.267 263.749H148.187V286.188H192.267V281.293L172.472 279.661V269.359L192.267 268.033V263.749Z" stroke="#0ABAAD" stroke-width="2" stroke-miterlimit="10"/>
<path d="M188.287 265.789H183.389V283.027H188.287V265.789Z" stroke="#0ABAAD" stroke-width="2" stroke-miterlimit="10"/>
<path d="M153.289 293.43H165.329C165.431 291.39 165.635 289.452 165.737 288.024C166.043 283.639 183.389 284.556 183.389 284.556L154.819 280.273L148.187 284.556L152.473 287.514L153.391 293.328L153.289 293.43Z" stroke="#0ABAAD" stroke-width="2" stroke-miterlimit="10"/>
<path d="M170.023 275.274C170.023 269.971 165.941 265.687 160.839 265.687C155.738 265.687 151.656 269.971 151.656 275.274C151.656 280.578 155.738 284.862 160.839 284.862C165.941 284.862 170.023 280.578 170.023 275.274Z" stroke="#0ABAAD" stroke-width="2" stroke-miterlimit="10"/>
<path d="M142.269 274.357L149.412 285.475L151.656 282.415L150.33 272.419L142.269 274.357Z" stroke="#0ABAAD" stroke-width="2" stroke-miterlimit="10"/>
<path d="M238.285 263.749H194.205V286.188H238.285V281.293L218.49 279.661V269.359L238.285 268.033V263.749Z" stroke="#0ABAAD" stroke-width="2" stroke-miterlimit="10"/>
<path d="M234.305 265.789H229.408V283.027H234.305V265.789Z" stroke="#0ABAAD" stroke-width="2" stroke-miterlimit="10"/>
<path d="M199.409 293.43H211.449C211.551 291.39 211.756 289.452 211.858 288.024C212.164 283.639 229.408 284.556 229.408 284.556L200.838 280.273L194.205 284.556L198.491 287.514L199.409 293.328V293.43Z" stroke="#0ABAAD" stroke-width="2" stroke-miterlimit="10"/>
<path d="M216.041 275.274C216.041 269.971 211.96 265.687 206.858 265.687C201.756 265.687 197.675 269.971 197.675 275.274C197.675 280.578 201.756 284.862 206.858 284.862C211.96 284.862 216.041 280.578 216.041 275.274Z" stroke="#0ABAAD" stroke-width="2" stroke-miterlimit="10"/>
<path d="M188.287 274.357L195.43 285.475L197.674 282.415L196.348 272.419L188.287 274.357Z" stroke="#0ABAAD" stroke-width="2" stroke-miterlimit="10"/>
<path d="M756.322 54.2499H800.401V31.8107H756.322V36.7065L776.117 38.3385V48.6401L756.322 49.966V54.2499Z" stroke="#0ABAAD" stroke-width="2" stroke-miterlimit="10"/>
<path d="M765.199 34.9719H760.301V52.2092H765.199V34.9719Z" stroke="#0ABAAD" stroke-width="2" stroke-miterlimit="10"/>
<path d="M795.3 24.5686H783.259C783.157 26.6085 782.953 28.5464 782.851 29.9743C782.545 34.3602 765.301 33.4422 765.301 33.4422L793.871 37.726L800.504 33.4422L796.32 30.4843L795.402 24.6705L795.3 24.5686Z" stroke="#0ABAAD" stroke-width="2" stroke-miterlimit="10"/>
<path d="M778.565 42.7236C778.565 48.0274 782.647 52.3112 787.749 52.3112C792.85 52.3112 796.932 48.0274 796.932 42.7236C796.932 37.4198 792.748 33.1359 787.749 33.1359C782.749 33.1359 778.565 37.4198 778.565 42.7236Z" stroke="#0ABAAD" stroke-width="2" stroke-miterlimit="10"/>
<path d="M806.32 43.6422L799.177 32.5246L796.932 35.5845L798.259 45.5801L806.32 43.6422Z" stroke="#0ABAAD" stroke-width="2" stroke-miterlimit="10"/>
<path d="M710.303 54.2499H754.383V31.8107H710.303V36.7065L730.098 38.3385V48.6401L710.303 49.966V54.2499Z" stroke="#0ABAAD" stroke-width="2" stroke-miterlimit="10"/>
<path d="M719.181 34.9719H714.283V52.2092H719.181V34.9719Z" stroke="#0ABAAD" stroke-width="2" stroke-miterlimit="10"/>
<path d="M749.281 24.5686H737.139C737.037 26.6085 736.833 28.5464 736.731 29.9743C736.425 34.3602 719.079 33.4422 719.079 33.4422L747.649 37.726L754.281 33.4422L749.996 30.4843L749.077 24.6705L749.281 24.5686Z" stroke="#0ABAAD" stroke-width="2" stroke-miterlimit="10"/>
<path d="M732.548 42.7236C732.548 48.0274 736.629 52.3112 741.731 52.3112C746.833 52.3112 750.914 48.0274 750.914 42.7236C750.914 37.4198 746.833 33.1359 741.731 33.1359C736.629 33.1359 732.548 37.4198 732.548 42.7236Z" stroke="#0ABAAD" stroke-width="2" stroke-miterlimit="10"/>
<path d="M760.301 43.6422L753.159 32.5246L750.914 35.5845L752.24 45.5801L760.301 43.6422Z" stroke="#0ABAAD" stroke-width="2" stroke-miterlimit="10"/>
<path d="M661.326 54.2499H705.304V31.8107H661.326V36.7065L681.121 38.3385V48.6401L661.326 49.966V54.2499Z" stroke="#0ABAAD" stroke-width="2" stroke-miterlimit="10"/>
<path d="M670.101 34.9719H665.204V52.2092H670.101V34.9719Z" stroke="#0ABAAD" stroke-width="2" stroke-miterlimit="10"/>
<path d="M700.202 24.5686H688.06C687.958 26.6085 687.754 28.5464 687.652 29.9743C687.345 34.3602 670.101 33.4422 670.101 33.4422L698.671 37.726L705.304 33.4422L701.12 30.4843L700.202 24.6705V24.5686Z" stroke="#0ABAAD" stroke-width="2" stroke-miterlimit="10"/>
<path d="M683.468 42.7236C683.468 48.0274 687.549 52.3112 692.651 52.3112C697.753 52.3112 701.834 48.0274 701.834 42.7236C701.834 37.4198 697.753 33.1359 692.651 33.1359C687.549 33.1359 683.468 37.4198 683.468 42.7236Z" stroke="#0ABAAD" stroke-width="2" stroke-miterlimit="10"/>
<path d="M711.222 43.6422L704.08 32.5246L701.835 35.5845L703.263 45.5801L711.222 43.6422Z" stroke="#0ABAAD" stroke-width="2" stroke-miterlimit="10"/>
<path d="M615.206 54.2499H659.286V31.8107H615.206V36.7065L635.103 38.3385V48.6401L615.206 49.966V54.2499Z" stroke="#0ABAAD" stroke-width="2" stroke-miterlimit="10"/>
<path d="M624.083 34.9719H619.186V52.2092H624.083V34.9719Z" stroke="#0ABAAD" stroke-width="2" stroke-miterlimit="10"/>
<path d="M654.184 24.5686H642.144C641.94 26.6085 641.838 28.5464 641.735 29.9743C641.429 34.3602 624.083 33.4422 624.083 33.4422L652.653 37.726L659.286 33.4422L655 30.4843L654.082 24.6705L654.184 24.5686Z" stroke="#0ABAAD" stroke-width="2" stroke-miterlimit="10"/>
<path d="M637.45 42.7236C637.45 48.0274 641.532 52.3112 646.633 52.3112C651.735 52.3112 655.817 48.0274 655.817 42.7236C655.817 37.4198 651.735 33.1359 646.633 33.1359C641.532 33.1359 637.45 37.4198 637.45 42.7236Z" stroke="#0ABAAD" stroke-width="2" stroke-miterlimit="10"/>
<path d="M665.204 43.6422L658.061 32.5246L655.816 35.5845L657.143 45.5801L665.204 43.6422Z" stroke="#0ABAAD" stroke-width="2" stroke-miterlimit="10"/>
<path d="M567.351 54.2499H611.431V31.8107H567.351V36.7065L587.146 38.3385V48.6401L567.351 49.966V54.2499Z" stroke="#0ABAAD" stroke-width="2" stroke-miterlimit="10"/>
<path d="M576.228 34.9719H571.331V52.2092H576.228V34.9719Z" stroke="#0ABAAD" stroke-width="2" stroke-miterlimit="10"/>
<path d="M606.227 24.5686H594.085C593.983 26.6085 593.778 28.5464 593.676 29.9743C593.37 34.3602 576.126 33.4422 576.126 33.4422L604.696 37.726L611.329 33.4422L607.043 30.4843L606.125 24.6705L606.227 24.5686Z" stroke="#0ABAAD" stroke-width="2" stroke-miterlimit="10"/>
<path d="M589.493 42.7236C589.493 48.0274 593.575 52.3112 598.676 52.3112C603.778 52.3112 607.86 48.0274 607.86 42.7236C607.86 37.4198 603.778 33.1359 598.676 33.1359C593.575 33.1359 589.493 37.4198 589.493 42.7236Z" stroke="#0ABAAD" stroke-width="2" stroke-miterlimit="10"/>
<path d="M617.349 43.6422L610.206 32.5246L607.962 35.5845L609.288 45.5801L617.349 43.6422Z" stroke="#0ABAAD" stroke-width="2" stroke-miterlimit="10"/>
<path d="M521.333 54.2499H565.31V31.8107H521.333V36.7065L541.128 38.3385V48.6401L521.333 49.966V54.2499Z" stroke="#0ABAAD" stroke-width="2" stroke-miterlimit="10"/>
<path d="M530.108 34.9719H525.21V52.2092H530.108V34.9719Z" stroke="#0ABAAD" stroke-width="2" stroke-miterlimit="10"/>
<path d="M560.209 24.5686H548.168C548.066 26.6085 547.862 28.5464 547.76 29.9743C547.454 34.3602 530.108 33.4422 530.108 33.4422L558.678 37.726L565.31 33.4422L561.127 30.4843L560.209 24.6705V24.5686Z" stroke="#0ABAAD" stroke-width="2" stroke-miterlimit="10"/>
<path d="M543.474 42.7236C543.474 48.0274 547.556 52.3112 552.658 52.3112C557.759 52.3112 561.841 48.0274 561.841 42.7236C561.841 37.4198 557.759 33.1359 552.658 33.1359C547.556 33.1359 543.474 37.4198 543.474 42.7236Z" stroke="#0ABAAD" stroke-width="2" stroke-miterlimit="10"/>
<path d="M571.33 43.6422L564.086 32.5246L561.943 35.5845L563.27 45.5801L571.33 43.6422Z" stroke="#0ABAAD" stroke-width="2" stroke-miterlimit="10"/>
<path d="M472.253 54.2499H516.333V31.8107H472.253V36.7065L492.048 38.3385V48.6401L472.253 49.966V54.2499Z" stroke="#0ABAAD" stroke-width="2" stroke-miterlimit="10"/>
<path d="M481.131 34.9719H476.233V52.2092H481.131V34.9719Z" stroke="#0ABAAD" stroke-width="2" stroke-miterlimit="10"/>
<path d="M511.129 24.5686H499.089C498.885 26.6085 498.783 28.5464 498.681 29.9743C498.375 34.3602 481.029 33.4422 481.029 33.4422L509.599 37.726L516.231 33.4422L511.946 30.4843L511.027 24.6705L511.129 24.5686Z" stroke="#0ABAAD" stroke-width="2" stroke-miterlimit="10"/>
<path d="M494.396 42.7236C494.396 48.0274 498.477 52.3112 503.579 52.3112C508.681 52.3112 512.762 48.0274 512.762 42.7236C512.762 37.4198 508.681 33.1359 503.579 33.1359C498.477 33.1359 494.396 37.4198 494.396 42.7236Z" stroke="#0ABAAD" stroke-width="2" stroke-miterlimit="10"/>
<path d="M522.251 43.6422L515.109 32.5246L512.864 35.5845L514.19 45.5801L522.251 43.6422Z" stroke="#0ABAAD" stroke-width="2" stroke-miterlimit="10"/>
<path d="M426.235 54.2499H470.315V31.8107H426.235V36.7065L446.03 38.3385V48.6401L426.235 49.966V54.2499Z" stroke="#0ABAAD" stroke-width="2" stroke-miterlimit="10"/>
<path d="M435.112 34.9719H430.214V52.2092H435.112V34.9719Z" stroke="#0ABAAD" stroke-width="2" stroke-miterlimit="10"/>
<path d="M465.111 24.5686H452.969C452.867 26.6085 452.663 28.5464 452.56 29.9743C452.254 34.3602 435.01 33.4422 435.01 33.4422L463.58 37.726L470.213 33.4422L465.927 30.4843L465.009 24.6705L465.111 24.5686Z" stroke="#0ABAAD" stroke-width="2" stroke-miterlimit="10"/>
<path d="M448.377 42.7236C448.377 48.0274 452.458 52.3112 457.56 52.3112C462.662 52.3112 466.743 48.0274 466.743 42.7236C466.743 37.4198 462.56 33.1359 457.56 33.1359C452.56 33.1359 448.377 37.4198 448.377 42.7236Z" stroke="#0ABAAD" stroke-width="2" stroke-miterlimit="10"/>
<path d="M476.233 43.6422L469.09 32.5246L466.845 35.5845L468.172 45.5801L476.233 43.6422Z" stroke="#0ABAAD" stroke-width="2" stroke-miterlimit="10"/>
<path d="M378.584 54.2499H422.664V31.8107H378.584V36.7065L398.379 38.3385V48.6401L378.584 49.966V54.2499Z" stroke="#0ABAAD" stroke-width="2" stroke-miterlimit="10"/>
<path d="M387.462 34.9719H382.564V52.2092H387.462V34.9719Z" stroke="#0ABAAD" stroke-width="2" stroke-miterlimit="10"/>
<path d="M417.562 24.5686H405.522C405.42 26.6085 405.216 28.5464 405.114 29.9743C404.808 34.3602 387.564 33.4422 387.564 33.4422L416.134 37.726L422.766 33.4422L418.481 30.4843L417.562 24.6705V24.5686Z" stroke="#0ABAAD" stroke-width="2" stroke-miterlimit="10"/>
<path d="M400.828 42.7236C400.828 48.0274 405.012 52.3112 410.011 52.3112C415.011 52.3112 419.195 48.0274 419.195 42.7236C419.195 37.4198 415.113 33.1359 410.011 33.1359C404.91 33.1359 400.828 37.4198 400.828 42.7236Z" stroke="#0ABAAD" stroke-width="2" stroke-miterlimit="10"/>
<path d="M428.582 43.6422L421.44 32.5246L419.195 35.5845L420.522 45.5801L428.582 43.6422Z" stroke="#0ABAAD" stroke-width="2" stroke-miterlimit="10"/>
<path d="M332.566 54.2499H376.646V31.8107H332.566V36.7065L352.361 38.3385V48.6401L332.566 49.966V54.2499Z" stroke="#0ABAAD" stroke-width="2" stroke-miterlimit="10"/>
<path d="M341.443 34.9719H336.545V52.2092H341.443V34.9719Z" stroke="#0ABAAD" stroke-width="2" stroke-miterlimit="10"/>
<path d="M371.442 24.5686H359.402C359.3 26.6085 359.096 28.5464 358.994 29.9743C358.687 34.3602 341.443 33.4422 341.443 33.4422L370.013 37.726L376.646 33.4422L372.462 30.4843L371.544 24.6705L371.442 24.5686Z" stroke="#0ABAAD" stroke-width="2" stroke-miterlimit="10"/>
<path d="M354.81 42.7236C354.81 48.0274 358.892 52.3112 363.994 52.3112C369.095 52.3112 373.177 48.0274 373.177 42.7236C373.177 37.4198 369.095 33.1359 363.994 33.1359C358.892 33.1359 354.81 37.4198 354.81 42.7236Z" stroke="#0ABAAD" stroke-width="2" stroke-miterlimit="10"/>
<path d="M382.564 43.6422L375.421 32.5246L373.177 35.5845L374.503 45.5801L382.564 43.6422Z" stroke="#0ABAAD" stroke-width="2" stroke-miterlimit="10"/>
<path d="M283.487 54.2499H327.566V31.8107H283.487V36.7065L303.384 38.3385V48.6401L283.487 49.966V54.2499Z" stroke="#0ABAAD" stroke-width="2" stroke-miterlimit="10"/>
<path d="M292.364 34.9719H287.466V52.2092H292.364V34.9719Z" stroke="#0ABAAD" stroke-width="2" stroke-miterlimit="10"/>
<path d="M322.465 24.5686H310.424C310.322 26.6085 310.118 28.5464 310.016 29.9743C309.71 34.3602 292.364 33.4422 292.364 33.4422L320.934 37.726L327.566 33.4422L323.281 30.4843L322.363 24.6705L322.465 24.5686Z" stroke="#0ABAAD" stroke-width="2" stroke-miterlimit="10"/>
<path d="M305.73 42.7236C305.73 48.0274 309.812 52.3112 314.914 52.3112C320.016 52.3112 324.097 48.0274 324.097 42.7236C324.097 37.4198 320.016 33.1359 314.914 33.1359C309.812 33.1359 305.73 37.4198 305.73 42.7236Z" stroke="#0ABAAD" stroke-width="2" stroke-miterlimit="10"/>
<path d="M333.485 43.6422L326.342 32.5246L324.097 35.5845L325.424 45.5801L333.485 43.6422Z" stroke="#0ABAAD" stroke-width="2" stroke-miterlimit="10"/>
<path d="M237.469 54.2499H281.548V31.8107H237.469V36.7065L257.366 38.3385V48.6401L237.469 49.966V54.2499Z" stroke="#0ABAAD" stroke-width="2" stroke-miterlimit="10"/>
<path d="M246.345 34.9719H241.448V52.2092H246.345V34.9719Z" stroke="#0ABAAD" stroke-width="2" stroke-miterlimit="10"/>
<path d="M276.446 24.5686H264.304C264.202 26.6085 263.998 28.5464 263.896 29.9743C263.59 34.3602 246.244 33.4422 246.244 33.4422L274.814 37.726L281.446 33.4422L277.263 30.4843L276.344 24.6705L276.446 24.5686Z" stroke="#0ABAAD" stroke-width="2" stroke-miterlimit="10"/>
<path d="M259.713 42.7236C259.713 48.0274 263.794 52.3112 268.896 52.3112C273.998 52.3112 278.079 48.0274 278.079 42.7236C278.079 37.4198 273.998 33.1359 268.896 33.1359C263.794 33.1359 259.713 37.4198 259.713 42.7236Z" stroke="#0ABAAD" stroke-width="2" stroke-miterlimit="10"/>
<path d="M287.466 43.6422L280.324 32.5246L278.079 35.5845L279.405 45.5801L287.466 43.6422Z" stroke="#0ABAAD" stroke-width="2" stroke-miterlimit="10"/>
<path d="M286.65 263.749H242.57V286.188H286.65V281.292L266.855 279.66V269.359L286.65 268.033V263.749Z" stroke="#0ABAAD" stroke-width="2" stroke-miterlimit="10"/>
<path d="M282.67 265.789H277.773V283.026H282.67V265.789Z" stroke="#0ABAAD" stroke-width="2" stroke-miterlimit="10"/>
<path d="M247.672 293.43H259.712C259.916 291.39 260.018 289.452 260.121 288.024C260.427 283.638 277.773 284.556 277.773 284.556L249.203 280.272L242.57 284.556L246.754 287.514L247.672 293.328V293.43Z" stroke="#0ABAAD" stroke-width="2" stroke-miterlimit="10"/>
<path d="M264.406 275.274C264.406 269.97 260.325 265.687 255.223 265.687C250.121 265.687 246.04 269.97 246.04 275.274C246.04 280.578 250.121 284.862 255.223 284.862C260.325 284.862 264.406 280.578 264.406 275.274Z" stroke="#0ABAAD" stroke-width="2" stroke-miterlimit="10"/>
<path d="M236.652 274.357L243.795 285.474L246.04 282.415L244.713 272.419L236.652 274.357Z" stroke="#0ABAAD" stroke-width="2" stroke-miterlimit="10"/>
<path d="M332.668 263.749H288.589V286.188H332.668V281.292L312.873 279.66V269.359L332.668 268.033V263.749Z" stroke="#0ABAAD" stroke-width="2" stroke-miterlimit="10"/>
<path d="M328.689 265.789H323.791V283.026H328.689V265.789Z" stroke="#0ABAAD" stroke-width="2" stroke-miterlimit="10"/>
<path d="M293.69 293.43H305.833C305.935 291.39 306.139 289.452 306.241 288.024C306.547 283.638 323.893 284.556 323.893 284.556L295.323 280.272L288.691 284.556L292.874 287.514L293.792 293.328L293.69 293.43Z" stroke="#0ABAAD" stroke-width="2" stroke-miterlimit="10"/>
<path d="M310.526 275.274C310.526 269.97 306.445 265.687 301.343 265.687C296.241 265.687 292.16 269.97 292.16 275.274C292.16 280.578 296.241 284.862 301.343 284.862C306.445 284.862 310.526 280.578 310.526 275.274Z" stroke="#0ABAAD" stroke-width="2" stroke-miterlimit="10"/>
<path d="M282.67 274.357L289.813 285.474L292.058 282.415L290.731 272.419L282.67 274.357Z" stroke="#0ABAAD" stroke-width="2" stroke-miterlimit="10"/>
<path d="M381.033 263.749H336.954V286.188H381.033V281.292L361.136 279.66V269.359L381.033 268.033V263.749Z" stroke="#0ABAAD" stroke-width="2" stroke-miterlimit="10"/>
<path d="M377.054 265.789H372.156V283.026H377.054V265.789Z" stroke="#0ABAAD" stroke-width="2" stroke-miterlimit="10"/>
<path d="M342.056 293.43H354.198C354.3 291.39 354.504 289.452 354.606 288.024C354.912 283.638 372.156 284.556 372.156 284.556L343.586 280.272L336.954 284.556L341.239 287.514L342.158 293.328L342.056 293.43Z" stroke="#0ABAAD" stroke-width="2" stroke-miterlimit="10"/>
<path d="M358.79 275.274C358.79 269.97 354.606 265.687 349.606 265.687C344.607 265.687 340.423 269.97 340.423 275.274C340.423 280.578 344.505 284.862 349.606 284.862C354.708 284.862 358.79 280.578 358.79 275.274Z" stroke="#0ABAAD" stroke-width="2" stroke-miterlimit="10"/>
<path d="M331.036 274.357L338.178 285.474L340.423 282.415L339.096 272.419L331.036 274.357Z" stroke="#0ABAAD" stroke-width="2" stroke-miterlimit="10"/>
<path d="M427.051 263.749H382.972V286.188H427.051V281.292L407.256 279.66V269.359L427.051 268.033V263.749Z" stroke="#0ABAAD" stroke-width="2" stroke-miterlimit="10"/>
<path d="M423.072 265.789H418.174V283.026H423.072V265.789Z" stroke="#0ABAAD" stroke-width="2" stroke-miterlimit="10"/>
<path d="M388.074 293.43H400.216C400.318 291.39 400.522 289.452 400.624 288.024C400.93 283.638 418.276 284.556 418.276 284.556L389.706 280.272L383.074 284.556L387.359 287.514L388.278 293.328L388.074 293.43Z" stroke="#0ABAAD" stroke-width="2" stroke-miterlimit="10"/>
<path d="M404.91 275.274C404.91 269.97 400.726 265.687 395.726 265.687C390.727 265.687 386.543 269.97 386.543 275.274C386.543 280.578 390.625 284.862 395.726 284.862C400.828 284.862 404.91 280.578 404.91 275.274Z" stroke="#0ABAAD" stroke-width="2" stroke-miterlimit="10"/>
<path d="M377.054 274.357L384.196 285.474L386.441 282.415L385.115 272.419L377.054 274.357Z" stroke="#0ABAAD" stroke-width="2" stroke-miterlimit="10"/>
<path d="M475.416 263.749H431.337V286.188H475.416V281.292L455.622 279.66V269.359L475.416 268.033V263.749Z" stroke="#0ABAAD" stroke-width="2" stroke-miterlimit="10"/>
<path d="M471.437 265.789H466.539V283.026H471.437V265.789Z" stroke="#0ABAAD" stroke-width="2" stroke-miterlimit="10"/>
<path d="M436.439 293.43H448.581C448.683 291.39 448.887 289.452 448.989 288.024C449.295 283.638 466.539 284.556 466.539 284.556L437.969 280.272L431.337 284.556L435.52 287.514L436.439 293.328V293.43Z" stroke="#0ABAAD" stroke-width="2" stroke-miterlimit="10"/>
<path d="M453.173 275.274C453.173 269.97 448.989 265.687 443.989 265.687C438.99 265.687 434.806 269.97 434.806 275.274C434.806 280.578 438.888 284.862 443.989 284.862C449.091 284.862 453.173 280.578 453.173 275.274Z" stroke="#0ABAAD" stroke-width="2" stroke-miterlimit="10"/>
<path d="M425.419 274.357L432.561 285.474L434.806 282.415L433.48 272.419L425.419 274.357Z" stroke="#0ABAAD" stroke-width="2" stroke-miterlimit="10"/>
<path d="M521.435 263.749H477.355V286.188H521.435V281.292L501.64 279.66V269.359L521.435 268.033V263.749Z" stroke="#0ABAAD" stroke-width="2" stroke-miterlimit="10"/>
<path d="M517.455 265.789H512.558V283.026H517.455V265.789Z" stroke="#0ABAAD" stroke-width="2" stroke-miterlimit="10"/>
<path d="M482.559 293.43H494.599C494.701 291.39 494.905 289.452 495.007 288.024C495.314 283.638 512.558 284.556 512.558 284.556L483.988 280.272L477.355 284.556L481.539 287.514L482.457 293.328L482.559 293.43Z" stroke="#0ABAAD" stroke-width="2" stroke-miterlimit="10"/>
<path d="M499.191 275.274C499.191 269.97 495.109 265.687 490.008 265.687C484.906 265.687 480.824 269.97 480.824 275.274C480.824 280.578 484.906 284.862 490.008 284.862C495.109 284.862 499.191 280.578 499.191 275.274Z" stroke="#0ABAAD" stroke-width="2" stroke-miterlimit="10"/>
<path d="M471.437 274.357L478.58 285.474L480.824 282.415L479.498 272.419L471.437 274.357Z" stroke="#0ABAAD" stroke-width="2" stroke-miterlimit="10"/>
<path d="M569.8 263.749H525.72V286.188H569.8V281.292L549.903 279.66V269.359L569.8 268.033V263.749Z" stroke="#0ABAAD" stroke-width="2" stroke-miterlimit="10"/>
<path d="M565.82 265.789H560.923V283.026H565.82V265.789Z" stroke="#0ABAAD" stroke-width="2" stroke-miterlimit="10"/>
<path d="M530.822 293.43H542.862C542.964 291.39 543.168 289.452 543.27 288.024C543.577 283.638 560.923 284.556 560.923 284.556L532.353 280.272L525.72 284.556L530.006 287.514L530.924 293.328L530.822 293.43Z" stroke="#0ABAAD" stroke-width="2" stroke-miterlimit="10"/>
<path d="M547.556 275.274C547.556 269.97 543.475 265.687 538.373 265.687C533.271 265.687 529.189 269.97 529.189 275.274C529.189 280.578 533.373 284.862 538.373 284.862C543.372 284.862 547.556 280.578 547.556 275.274Z" stroke="#0ABAAD" stroke-width="2" stroke-miterlimit="10"/>
<path d="M519.802 274.357L526.945 285.474L529.19 282.415L527.863 272.419L519.802 274.357Z" stroke="#0ABAAD" stroke-width="2" stroke-miterlimit="10"/>
<path d="M615.818 263.749H571.739V286.188H615.818V281.292L596.023 279.66V269.359L615.818 268.033V263.749Z" stroke="#0ABAAD" stroke-width="2" stroke-miterlimit="10"/>
<path d="M611.839 265.789H606.941V283.026H611.839V265.789Z" stroke="#0ABAAD" stroke-width="2" stroke-miterlimit="10"/>
<path d="M576.84 293.43H588.881C589.085 291.39 589.187 289.452 589.289 288.024C589.595 283.638 606.839 284.556 606.839 284.556L578.269 280.272L571.636 284.556L575.922 287.514L576.84 293.328V293.43Z" stroke="#0ABAAD" stroke-width="2" stroke-miterlimit="10"/>
<path d="M593.574 275.274C593.574 269.97 589.391 265.687 584.391 265.687C579.391 265.687 575.208 269.97 575.208 275.274C575.208 280.578 579.289 284.862 584.391 284.862C589.493 284.862 593.574 280.578 593.574 275.274Z" stroke="#0ABAAD" stroke-width="2" stroke-miterlimit="10"/>
<path d="M565.82 274.357L572.963 285.474L575.208 282.415L573.881 272.419L565.82 274.357Z" stroke="#0ABAAD" stroke-width="2" stroke-miterlimit="10"/>
<path d="M664.183 263.749H620.104V286.188H664.183V281.292L644.388 279.66V269.359L664.183 268.033V263.749Z" stroke="#0ABAAD" stroke-width="2" stroke-miterlimit="10"/>
<path d="M660.204 265.789H655.306V283.026H660.204V265.789Z" stroke="#0ABAAD" stroke-width="2" stroke-miterlimit="10"/>
<path d="M625.205 293.43H637.348C637.45 291.39 637.654 289.452 637.756 288.024C638.062 283.638 655.306 284.556 655.306 284.556L626.736 280.272L620.104 284.556L624.287 287.514L625.205 293.328V293.43Z" stroke="#0ABAAD" stroke-width="2" stroke-miterlimit="10"/>
<path d="M641.939 275.274C641.939 269.97 637.858 265.687 632.756 265.687C627.654 265.687 623.573 269.97 623.573 275.274C623.573 280.578 627.654 284.862 632.756 284.862C637.858 284.862 641.939 280.578 641.939 275.274Z" stroke="#0ABAAD" stroke-width="2" stroke-miterlimit="10"/>
<path d="M614.186 274.357L621.328 285.474L623.573 282.415L622.246 272.419L614.186 274.357Z" stroke="#0ABAAD" stroke-width="2" stroke-miterlimit="10"/>
<path d="M710.201 263.749H666.122V286.188H710.201V281.292L690.406 279.66V269.359L710.201 268.033V263.749Z" stroke="#0ABAAD" stroke-width="2" stroke-miterlimit="10"/>
<path d="M706.222 265.789H701.324V283.026H706.222V265.789Z" stroke="#0ABAAD" stroke-width="2" stroke-miterlimit="10"/>
<path d="M671.224 293.43H683.264C683.468 291.39 683.57 289.452 683.672 288.024C683.978 283.638 701.222 284.556 701.222 284.556L672.652 280.272L666.02 284.556L670.305 287.514L671.224 293.328V293.43Z" stroke="#0ABAAD" stroke-width="2" stroke-miterlimit="10"/>
<path d="M687.958 275.274C687.958 269.97 683.876 265.687 678.774 265.687C673.673 265.687 669.591 269.97 669.591 275.274C669.591 280.578 673.673 284.862 678.774 284.862C683.876 284.862 687.958 280.578 687.958 275.274Z" stroke="#0ABAAD" stroke-width="2" stroke-miterlimit="10"/>
<path d="M660.204 274.357L667.347 285.474L669.591 282.415L668.265 272.419L660.204 274.357Z" stroke="#0ABAAD" stroke-width="2" stroke-miterlimit="10"/>
<path d="M758.567 263.749H714.487V286.188H758.567V281.292L738.67 279.66V269.359L758.567 268.033V263.749Z" stroke="#0ABAAD" stroke-width="2" stroke-miterlimit="10"/>
<path d="M754.587 265.789H749.689V283.026H754.587V265.789Z" stroke="#0ABAAD" stroke-width="2" stroke-miterlimit="10"/>
<path d="M719.589 293.43H731.629C731.833 291.39 731.935 289.452 732.037 288.024C732.343 283.638 749.587 284.556 749.587 284.556L721.017 280.272L714.385 284.556L718.671 287.514L719.589 293.328V293.43Z" stroke="#0ABAAD" stroke-width="2" stroke-miterlimit="10"/>
<path d="M736.323 275.274C736.323 269.97 732.241 265.687 727.14 265.687C722.038 265.687 717.956 269.97 717.956 275.274C717.956 280.578 722.038 284.862 727.14 284.862C732.241 284.862 736.323 280.578 736.323 275.274Z" stroke="#0ABAAD" stroke-width="2" stroke-miterlimit="10"/>
<path d="M708.569 274.357L715.711 285.474L717.956 282.415L716.63 272.419L708.569 274.357Z" stroke="#0ABAAD" stroke-width="2" stroke-miterlimit="10"/>
<path d="M804.585 263.749H760.505V286.188H804.585V281.292L784.688 279.66V269.359L804.585 268.033V263.749Z" stroke="#0ABAAD" stroke-width="2" stroke-miterlimit="10"/>
<path d="M800.605 265.789H795.708V283.026H800.605V265.789Z" stroke="#0ABAAD" stroke-width="2" stroke-miterlimit="10"/>
<path d="M765.607 293.43H777.647C777.749 291.39 777.953 289.452 778.056 288.024C778.362 283.638 795.606 284.556 795.606 284.556L767.036 280.272L760.403 284.556L764.689 287.514L765.607 293.328V293.43Z" stroke="#0ABAAD" stroke-width="2" stroke-miterlimit="10"/>
<path d="M782.341 275.274C782.341 269.97 778.158 265.687 773.158 265.687C768.158 265.687 763.975 269.97 763.975 275.274C763.975 280.578 768.056 284.862 773.158 284.862C778.26 284.862 782.341 280.578 782.341 275.274Z" stroke="#0ABAAD" stroke-width="2" stroke-miterlimit="10"/>
<path d="M754.587 274.357L761.729 285.474L763.974 282.415L762.648 272.419L754.587 274.357Z" stroke="#0ABAAD" stroke-width="2" stroke-miterlimit="10"/>
<path d="M846.113 255.895C846.113 255.895 843.868 256.711 840.399 257.935C839.583 258.241 838.665 258.649 837.644 258.955C836.624 259.261 835.603 259.465 834.481 259.771C832.338 260.383 829.991 260.893 827.645 261.505C825.298 261.913 822.849 262.219 820.604 262.627C818.359 263.035 816.319 263.341 814.482 263.341C810.911 263.545 808.462 263.647 808.462 263.647L808.972 286.086C808.972 286.086 811.931 285.984 816.319 285.678C818.461 285.678 821.012 285.27 823.767 284.862C826.522 284.454 829.379 284.046 832.236 283.536C835.093 282.822 837.95 282.108 840.603 281.394C841.93 281.088 843.256 280.782 844.481 280.374C845.705 279.966 846.827 279.558 847.848 279.15C852.031 277.62 854.684 276.6 854.684 276.6L852.848 272.113C852.848 272.113 847.95 273.439 843.052 274.764C838.052 275.682 833.155 276.498 833.155 276.498L830.91 266.503C830.91 266.503 835.297 265.075 839.583 263.545C843.664 261.709 847.848 259.771 847.848 259.771L846.215 255.793L846.113 255.895Z" stroke="#0ABAAD" stroke-width="2" stroke-miterlimit="10"/>
<path d="M814.89 293.022C814.89 293.022 815.706 293.022 817.033 292.92C818.257 292.92 819.992 292.92 821.625 292.512C824.992 292.002 828.359 291.492 828.359 291.492C828.155 289.452 827.951 287.514 827.849 286.188C827.645 284.046 832.134 282.618 836.42 280.986C838.563 280.272 840.807 279.66 842.44 279.252C843.256 279.048 843.97 278.844 844.379 278.742C844.889 278.538 845.093 278.538 845.093 278.538C845.093 278.538 843.256 278.946 840.399 279.252C837.542 279.558 833.869 280.068 830.196 280.272C826.522 280.272 822.747 280.272 819.992 280.272C818.666 280.272 817.441 280.17 816.625 280.068C815.809 280.068 815.4 279.966 815.4 279.966C815.4 279.966 813.768 281.088 812.135 282.312C810.401 283.434 808.768 284.658 808.768 284.658L813.36 287.412L814.686 293.226L814.89 293.022Z" stroke="#0ABAAD" stroke-width="2" stroke-miterlimit="10"/>
<path d="M802.952 274.356C802.952 274.356 804.789 277.11 806.523 279.864C808.36 282.516 810.299 285.27 810.299 285.27L812.543 282.006L810.809 272.113C810.809 272.113 808.87 272.725 807.034 273.234C805.095 273.744 803.054 274.254 803.054 274.254L802.952 274.356Z" stroke="#0ABAAD" stroke-width="2" stroke-miterlimit="10"/>
<path d="M806.32 54.2494C806.32 54.2494 808.768 54.3514 812.34 54.5554C814.176 54.7594 816.319 54.5554 818.462 54.9634C820.707 55.2694 823.053 55.6774 825.502 55.9833C827.951 56.1873 830.196 57.1053 832.441 57.5133C834.584 58.1253 836.726 58.5332 838.359 59.1452C841.726 60.3692 843.971 61.1851 843.971 61.1851L852.032 40.174C852.032 40.174 849.277 39.154 845.195 37.6241C843.155 36.9101 840.604 36.4001 837.951 35.6861C835.298 35.0741 832.441 34.0542 829.584 33.7482C826.727 33.3402 823.768 32.8302 821.115 32.4223C818.36 31.9123 815.809 32.0143 813.666 31.8103C809.279 31.6063 806.32 31.4023 806.32 31.4023V36.2981C806.32 36.2981 811.319 37.0121 816.421 37.6241C818.972 37.828 821.421 38.644 823.258 38.95C825.094 39.358 826.319 39.664 826.319 39.664L824.686 49.7616C824.686 49.7616 823.564 49.7616 821.829 49.5576C820.094 49.5576 817.85 49.1496 815.605 49.2516C811.013 49.2516 806.524 49.4556 806.524 49.4556V53.7394L806.32 54.2494Z" stroke="#0ABAAD" stroke-width="2" stroke-miterlimit="10"/>
<path d="M809.891 52.4139L814.278 52.7199L815.503 35.4826L810.401 35.1766L809.891 52.4139Z" stroke="#0ABAAD" stroke-width="2" stroke-miterlimit="10"/>
<path d="M417.46 106.573H262.875L242.06 160.121L417.46 161.651V106.573Z" fill="white" stroke="#0ABAAD" stroke-width="2" stroke-miterlimit="10"/>
<path d="M573.677 106.573V163.079L693.161 164.201L694.488 106.573H573.677Z" fill="white" stroke="#0ABAAD" stroke-width="2" stroke-miterlimit="10"/>
<path d="M564.902 106.573H431.541V161.855L564.902 162.977V106.573Z" fill="white" stroke="#0ABAAD" stroke-width="2" stroke-miterlimit="10"/>
<path d="M417.46 110.144H262.875L242.06 163.589L417.46 165.221V110.144Z" stroke="#0ABAAD" stroke-width="2" stroke-miterlimit="10"/>
<path d="M573.677 110.144V166.649L693.161 167.669L694.488 110.144H573.677Z" stroke="#0ABAAD" stroke-width="2" stroke-miterlimit="10"/>
<path d="M564.902 110.144H431.541V165.323L564.902 166.547V110.144Z" stroke="#0ABAAD" stroke-width="2" stroke-miterlimit="10"/>
<path d="M94.8223 145.128H700.814C700.814 145.128 699.488 166.751 706.936 182.458H260.223V230.907C260.223 230.907 260.019 234.068 250.427 241.004H143.595L116.352 223.971L94.8223 145.128Z" stroke="#0ABAAD" stroke-width="2" stroke-miterlimit="10"/>
<path d="M94.8223 153.186H700.814C700.814 153.186 699.488 174.809 706.936 190.517H260.223V238.965C260.223 238.965 260.019 242.127 250.427 248.96H143.595L116.352 231.927L94.8223 153.084V153.186Z" fill="white" stroke="#0ABAAD" stroke-width="2" stroke-miterlimit="10"/>
<path d="M120.841 226.827L103.801 156.653H693.161V167.669H125.943L143.595 241.004L120.841 226.827Z" stroke="#0ABAAD" stroke-width="2" stroke-miterlimit="10"/>
<path d="M313.077 214.179C313.077 218.157 309.914 221.319 305.935 221.319C301.955 221.319 298.792 218.157 298.792 214.179C298.792 210.201 301.955 207.039 305.935 207.039C309.914 207.039 313.077 210.201 313.077 214.179Z" stroke="#0ABAAD" stroke-width="2" stroke-miterlimit="10"/>
<path d="M401.032 214.179C401.032 218.157 397.869 221.319 393.89 221.319C389.91 221.319 386.747 218.157 386.747 214.179C386.747 210.201 389.91 207.039 393.89 207.039C397.869 207.039 401.032 210.201 401.032 214.179Z" stroke="#0ABAAD" stroke-width="2" stroke-miterlimit="10"/>
<path d="M486.845 214.179C486.845 218.157 483.682 221.319 479.702 221.319C475.723 221.319 472.56 218.157 472.56 214.179C472.56 210.201 475.723 207.039 479.702 207.039C483.682 207.039 486.845 210.201 486.845 214.179Z" stroke="#0ABAAD" stroke-width="2" stroke-miterlimit="10"/>
<path d="M574.494 214.179C574.494 218.157 571.33 221.319 567.351 221.319C563.372 221.319 560.208 218.157 560.208 214.179C560.208 210.201 563.372 207.039 567.351 207.039C571.33 207.039 574.494 210.201 574.494 214.179Z" stroke="#0ABAAD" stroke-width="2" stroke-miterlimit="10"/>
<path d="M662.449 214.179C662.449 218.157 659.286 221.319 655.306 221.319C651.327 221.319 648.164 218.157 648.164 214.179C648.164 210.201 651.327 207.039 655.306 207.039C659.286 207.039 662.449 210.201 662.449 214.179Z" stroke="#0ABAAD" stroke-width="2" stroke-miterlimit="10"/>
<path d="M280.017 134.112C280.017 138.09 276.854 141.252 272.875 141.252C268.896 141.252 265.732 138.09 265.732 134.112C265.732 130.134 268.896 126.973 272.875 126.973C276.854 126.973 280.017 130.134 280.017 134.112Z" stroke="#0ABAAD" stroke-width="2" stroke-miterlimit="10"/>
<path d="M407.665 134.112C407.665 138.09 404.502 141.252 400.522 141.252C396.543 141.252 393.38 138.09 393.38 134.112C393.38 130.134 396.543 126.973 400.522 126.973C404.502 126.973 407.665 130.134 407.665 134.112Z" stroke="#0ABAAD" stroke-width="2" stroke-miterlimit="10"/>
<path d="M456.03 134.112C456.03 138.09 452.867 141.252 448.887 141.252C444.908 141.252 441.745 138.09 441.745 134.112C441.745 130.134 444.908 126.973 448.887 126.973C452.867 126.973 456.03 130.134 456.03 134.112Z" stroke="#0ABAAD" stroke-width="2" stroke-miterlimit="10"/>
<path d="M554.903 134.112C554.903 138.09 551.74 141.252 547.76 141.252C543.781 141.252 540.618 138.09 540.618 134.112C540.618 130.134 543.781 126.973 547.76 126.973C551.74 126.973 554.903 130.134 554.903 134.112Z" stroke="#0ABAAD" stroke-width="2" stroke-miterlimit="10"/>
<path d="M687.856 134.112C687.856 138.09 684.693 141.252 680.713 141.252C676.734 141.252 673.571 138.09 673.571 134.112C673.571 130.134 676.734 126.973 680.713 126.973C684.693 126.973 687.856 130.134 687.856 134.112Z" stroke="#0ABAAD" stroke-width="2" stroke-miterlimit="10"/>
<path d="M591.534 134.112C591.534 138.09 588.37 141.252 584.391 141.252C580.412 141.252 577.249 138.09 577.249 134.112C577.249 130.134 580.412 126.973 584.391 126.973C588.37 126.973 591.534 130.134 591.534 134.112Z" stroke="#0ABAAD" stroke-width="2" stroke-miterlimit="10"/>
</g>
<rect width="947" height="318" fill="url(#paint0_radial_251_3321)"/>
<defs>
<radialGradient id="paint0_radial_251_3321" cx="0" cy="0" r="1" gradientUnits="userSpaceOnUse" gradientTransform="translate(473.5 159) rotate(90) scale(159 473.5)">
<stop stop-color="white" stop-opacity="0"/>
<stop offset="1" stop-color="white"/>
</radialGradient>
<clipPath id="clip0_251_3321">
<rect width="942.711" height="279.061" fill="white" transform="translate(2.98975 19.4688)"/>
</clipPath>
</defs>
</svg>
