<svg width="52" height="52" viewBox="0 0 52 52" fill="none" xmlns="http://www.w3.org/2000/svg">
<path id="Vector" d="M32.4696 48.1201C34.7387 49.5862 37.4426 50.2251 40.1267 49.9294C42.8108 49.6337 45.3114 48.4214 47.208 46.4964L48.8661 44.8726C49.593 44.128 50 43.1279 50 42.0865C50 41.0451 49.593 40.045 48.8661 39.3003L41.8285 32.3257C41.0912 31.6 40.0988 31.1934 39.065 31.1934C38.0313 31.1934 37.0389 31.6 36.3016 32.3257V32.3257C35.558 33.0537 34.5595 33.4614 33.5197 33.4614C32.4799 33.4614 31.4813 33.0537 30.7378 32.3257L19.684 21.2549C19.3152 20.891 19.0224 20.4572 18.8226 19.9789C18.6227 19.5006 18.5198 18.9873 18.5198 18.4687C18.5198 17.9502 18.6227 17.4369 18.8226 16.9586C19.0224 16.4803 19.3152 16.0465 19.684 15.6826V15.6826C20.4086 14.9442 20.8146 13.9502 20.8146 12.9149C20.8146 11.8795 20.4086 10.8856 19.684 10.1472L12.6832 3.13567C11.9397 2.40764 10.9412 2 9.90137 2C8.86154 2 7.86302 2.40764 7.11949 3.13567L5.49827 4.79629C3.57618 6.69583 2.36574 9.20027 2.07049 11.8885C1.77524 14.5767 2.41318 17.2848 3.87704 19.5574C11.5043 30.8154 21.2092 40.5101 32.4696 48.1201V48.1201Z" stroke="#F2633B" stroke-width="2.92" stroke-linecap="round" stroke-linejoin="round"/>
</svg>
