<svg width="56" height="56" viewBox="0 0 56 56" fill="none" xmlns="http://www.w3.org/2000/svg">
<g id="List-1--Streamline-Solar">
<path id="Vector" fill-rule="evenodd" clip-rule="evenodd" d="M2.27344 13.2997C2.27344 12.0819 3.26066 11.0947 4.47844 11.0947H51.5185C52.7362 11.0947 53.7235 12.0819 53.7235 13.2997C53.7235 14.5175 52.7362 15.5047 51.5185 15.5047H4.47844C3.26066 15.5047 2.27344 14.5175 2.27344 13.2997ZM2.27344 27.9997C2.27344 26.7819 3.26066 25.7947 4.47844 25.7947H36.8185C38.0362 25.7947 39.0235 26.7819 39.0235 27.9997C39.0235 29.2175 38.0362 30.2047 36.8185 30.2047H4.47844C3.26066 30.2047 2.27344 29.2175 2.27344 27.9997ZM2.27344 42.6997C2.27344 41.4819 3.26066 40.4947 4.47844 40.4947H19.1784C20.3962 40.4947 21.3834 41.4819 21.3834 42.6997C21.3834 43.9175 20.3962 44.9047 19.1784 44.9047H4.47844C3.26066 44.9047 2.27344 43.9175 2.27344 42.6997Z" fill="#F2633B"/>
</g>
</svg>
