<svg width="188" height="88" viewBox="0 0 188 88" fill="none" xmlns="http://www.w3.org/2000/svg">
<g id="Logo" clip-path="url(#clip0_251_15304)">
<g id="Group">
<path id="Vector" d="M9.41762 87.5724H8.71317L7.39697 84.2171H2.33609L1.01989 87.5724H0.333984L4.4865 76.8945H5.24656L9.41762 87.5724ZM2.4844 83.6424H7.21159L4.83872 77.6361L2.46586 83.6424H2.4844Z" fill="#483729" stroke="#483729" stroke-width="0.25" stroke-miterlimit="10"/>
<path id="Vector_2" d="M14.5335 87.5724H11.623V76.8945H14.5521C17.7777 76.8945 19.7242 78.8596 19.7242 82.1223C19.7242 85.7928 18.0001 87.591 14.515 87.591L14.5335 87.5724ZM14.4594 77.4692H12.2904V86.9792H14.4223C17.5552 86.9792 19.0568 85.422 19.0568 82.1408C19.0568 79.2118 17.3513 77.4692 14.4408 77.4692H14.4594Z" fill="#483729" stroke="#483729" stroke-width="0.25" stroke-miterlimit="10"/>
<path id="Vector_3" d="M20.9844 76.8765H21.6888L25.3593 86.6831L29.0299 76.8765H29.6972L25.7116 87.5544H25.0071L21.0215 76.8765H20.9844Z" fill="#483729" stroke="#483729" stroke-width="0.25" stroke-miterlimit="10"/>
<path id="Vector_4" d="M38.7809 87.5724H38.0765L36.7603 84.2171H31.6994L30.3832 87.5724H29.6973L33.8498 76.8945H34.6098L38.7809 87.5724ZM31.8477 83.6424H36.5749L34.202 77.6361L31.8291 83.6424H31.8477Z" fill="#483729" stroke="#483729" stroke-width="0.25" stroke-miterlimit="10"/>
<path id="Vector_5" d="M41.6185 77.9141V87.5724H40.9512V76.8945H41.6371L48.0512 86.3119V76.8945H48.7186V87.5724H48.181L41.6185 77.9141Z" fill="#483729" stroke="#483729" stroke-width="0.25" stroke-miterlimit="10"/>
<path id="Vector_6" d="M56.4301 77.3027C53.8718 77.3027 52.0922 79.1565 52.0922 82.2524C52.0922 85.0516 53.3157 87.202 56.5042 87.202C57.5053 87.202 58.3024 87.0352 59.2664 86.6644V87.2576C58.4136 87.5913 57.5053 87.7767 56.4301 87.7767C52.7781 87.7767 51.4062 85.3853 51.4062 82.2894C51.4062 78.5262 53.5937 76.728 56.3374 76.728C57.4126 76.728 58.3024 76.9134 59.0625 77.2286V77.8218C58.2282 77.451 57.3384 77.2842 56.4486 77.2842L56.4301 77.3027Z" fill="#483729" stroke="#483729" stroke-width="0.25" stroke-miterlimit="10"/>
<path id="Vector_7" d="M61.3789 76.8765H67.1072V77.4511H62.0463V81.7334H66.4954V82.3266H62.0463V86.9797H67.1628V87.5544H61.3789V76.8765Z" fill="#483729" stroke="#483729" stroke-width="0.25" stroke-miterlimit="10"/>
</g>
<g id="Group_2">
<path id="Vector_8" d="M85.0723 87.5724H83.6448V83.0306L83.7375 79.1191H83.6819L80.6046 84.2356H79.7519L76.6746 79.1562H76.6375L76.7116 82.9936V87.591H75.3027V76.9131H76.8043L80.1968 82.493L83.5707 76.9131H85.0352V87.591L85.0723 87.5724Z" fill="#483729" stroke="#483729" stroke-width="0.25" stroke-miterlimit="10"/>
<path id="Vector_9" d="M87.8906 76.8765H94.1009V78.1185H89.3181V81.4183H93.5076V82.6603H89.3181V86.3123H94.1565V87.5544H87.8906V76.8765Z" fill="#483729" stroke="#483729" stroke-width="0.25" stroke-miterlimit="10"/>
<path id="Vector_10" d="M100.069 87.5729H98.6231V78.1371H95.3789V76.895H103.313V78.1371H100.069V87.5729Z" fill="#483729" stroke="#483729" stroke-width="0.25" stroke-miterlimit="10"/>
<path id="Vector_11" d="M112.582 87.5729H111.062L110.043 84.7551H105.556L104.537 87.5729H103.109L107.002 76.895H108.671L112.582 87.5729ZM107.762 78.341L105.89 83.5131H109.69L107.781 78.341H107.762Z" fill="#483729" stroke="#483729" stroke-width="0.25" stroke-miterlimit="10"/>
<path id="Vector_12" d="M114.344 76.8765H115.771V86.3123H120.61V87.5544H114.344V76.8765Z" fill="#483729" stroke="#483729" stroke-width="0.25" stroke-miterlimit="10"/>
</g>
<g id="Group_3">
<path id="Vector_13" d="M130.526 82.9379H128.765V87.5724H128.098V76.8945H130.526C132.714 76.8945 134.141 77.6731 134.141 79.8977C134.141 81.9183 132.695 82.9379 130.526 82.9379ZM130.489 77.4692H128.746V82.3632H130.508C132.287 82.3632 133.437 81.4734 133.437 79.8977C133.437 78.0624 132.213 77.4692 130.471 77.4692H130.489Z" fill="#483729" stroke="#483729" stroke-width="0.25" stroke-miterlimit="10"/>
<path id="Vector_14" d="M135.809 82.2709C135.809 79.1565 137.292 76.728 140.554 76.728C143.817 76.728 145.263 79.1194 145.263 82.2338C145.263 85.3482 143.761 87.7582 140.536 87.7582C137.31 87.7582 135.809 85.4409 135.809 82.2709ZM144.577 82.2338C144.577 79.5273 143.372 77.3027 140.536 77.3027C137.699 77.3027 136.476 79.5273 136.476 82.2338C136.476 84.9404 137.699 87.1835 140.536 87.1835C143.372 87.1835 144.577 84.9589 144.577 82.2338Z" fill="#483729" stroke="#483729" stroke-width="0.25" stroke-miterlimit="10"/>
<path id="Vector_15" d="M146.746 76.8765H147.451L149.712 86.6089L152.456 76.8765H153.142L155.885 86.6089L158.166 76.8765H158.814L156.275 87.5544H155.515L152.789 77.9517L150.083 87.5544H149.304L146.765 76.8765H146.746Z" fill="#483729" stroke="#483729" stroke-width="0.25" stroke-miterlimit="10"/>
<path id="Vector_16" d="M164.043 87.5724H161.133V76.8945H164.062C167.287 76.8945 169.234 78.8596 169.234 82.1223C169.234 85.7928 167.51 87.591 164.025 87.591L164.043 87.5724ZM163.969 77.4692H161.8V86.9792H163.932C167.065 86.9792 168.567 85.422 168.567 82.1408C168.567 79.2118 166.861 77.4692 163.951 77.4692H163.969Z" fill="#483729" stroke="#483729" stroke-width="0.25" stroke-miterlimit="10"/>
<path id="Vector_17" d="M171.941 76.8765H177.67V77.4511H172.609V81.7334H177.058V82.3266H172.609V86.9797H177.725V87.5544H171.941V76.8765Z" fill="#483729" stroke="#483729" stroke-width="0.25" stroke-miterlimit="10"/>
<path id="Vector_18" d="M186.64 87.5724L183.303 82.493H181.208V87.5724H180.541V76.8945H183.118C185.379 76.8945 186.862 77.6175 186.862 79.6196C186.862 81.1583 185.639 82.1408 183.971 82.3632L187.4 87.5724H186.64ZM186.195 79.6567C186.195 78.0068 184.842 77.4692 183.099 77.4692H181.208V81.9183H183.248C184.99 81.9183 186.195 81.1027 186.195 79.6567Z" fill="#483729" stroke="#483729" stroke-width="0.25" stroke-miterlimit="10"/>
</g>
<path id="Vector_19" d="M47.7957 10.5904C49.7461 7.21218 48.5886 2.89253 45.2105 0.942138C41.8323 -1.00825 37.5126 0.149196 35.5623 3.52737L7.31958 52.4451C5.36919 55.8233 6.52664 60.143 9.90481 62.0933C13.283 64.0437 17.6026 62.8863 19.553 59.5081L47.7957 10.5904Z" fill="#003088"/>
<path id="Vector_20" d="M32.1992 62.102L32.0509 62.0093C28.7511 60.0998 27.6203 55.9103 29.5112 52.6476C34.572 43.8976 44.0079 27.6212 49.1058 18.8157C51.0338 15.4788 55.2975 14.348 58.6344 16.276C61.9898 18.2039 63.1391 22.4862 61.2112 25.8416C56.1874 34.6101 46.8998 50.7196 41.8204 59.5066C39.8739 62.8805 35.5546 64.0484 32.1806 62.0834L32.1992 62.102Z" fill="#003088"/>
<path id="Vector_21" d="M75.1533 57.8383C73.6888 52.1101 79.2502 47.1048 85.0526 49.5704C86.5542 50.2007 87.7591 51.4242 88.408 52.9258C90.8735 58.7282 85.8683 64.271 80.14 62.8251C77.7115 62.2133 75.7836 60.2854 75.1718 57.8569L75.1533 57.8383Z" fill="#2A7DE1"/>
<path id="Vector_22" d="M69.9634 47.5869C73.8642 47.5869 77.0264 44.4247 77.0264 40.5239C77.0264 36.6231 73.8642 33.4609 69.9634 33.4609C66.0626 33.4609 62.9004 36.6231 62.9004 40.5239C62.9004 44.4247 66.0626 47.5869 69.9634 47.5869Z" fill="#2A7DE1"/>
<path id="Vector_23" d="M59.6548 63.0483C63.5556 63.0483 66.7178 59.8861 66.7178 55.9854C66.7178 52.0846 63.5556 48.9224 59.6548 48.9224C55.754 48.9224 52.5918 52.0846 52.5918 55.9854C52.5918 59.8861 55.754 63.0483 59.6548 63.0483Z" fill="#2A7DE1"/>
</g>
<defs>
<clipPath id="clip0_251_15304">
<rect width="187.827" height="88" fill="white"/>
</clipPath>
</defs>
</svg>
