<svg width="94" height="88" viewBox="0 0 94 88" fill="none" xmlns="http://www.w3.org/2000/svg">
<g id="Logo" clip-path="url(#clip0_277_29718)">
<path id="Vector" d="M47.7957 10.5904C49.7461 7.21218 48.5886 2.89253 45.2105 0.942138C41.8323 -1.00825 37.5126 0.149196 35.5623 3.52737L7.31958 52.4451C5.36919 55.8233 6.52664 60.143 9.90481 62.0933C13.283 64.0437 17.6026 62.8863 19.553 59.5081L47.7957 10.5904Z" fill="#003088"/>
<path id="Vector_2" d="M32.2011 62.102L32.0528 62.0093C28.7531 60.0998 27.6222 55.9103 29.5131 52.6476C34.574 43.8976 44.0098 27.6212 49.1078 18.8157C51.0358 15.4788 55.2995 14.348 58.6363 16.276C61.9917 18.2039 63.1411 22.4862 61.2131 25.8416C56.1893 34.6101 46.9018 50.7196 41.8224 59.5066C39.8759 62.8805 35.5565 64.0484 32.1826 62.0834L32.2011 62.102Z" fill="#003088"/>
<path id="Vector_3" d="M75.1552 57.8383C73.6907 52.1101 79.2521 47.1048 85.0546 49.5704C86.5561 50.2007 87.7611 51.4242 88.4099 52.9258C90.8755 58.7282 85.8702 64.271 80.142 62.8251C77.7135 62.2133 75.7855 60.2854 75.1738 57.8569L75.1552 57.8383Z" fill="#2A7DE1"/>
<path id="Vector_4" d="M69.9614 47.5869C73.8622 47.5869 77.0244 44.4247 77.0244 40.5239C77.0244 36.6231 73.8622 33.4609 69.9614 33.4609C66.0606 33.4609 62.8984 36.6231 62.8984 40.5239C62.8984 44.4247 66.0606 47.5869 69.9614 47.5869Z" fill="#2A7DE1"/>
<path id="Vector_5" d="M59.6567 63.0488C63.5575 63.0488 66.7197 59.8866 66.7197 55.9858C66.7197 52.0851 63.5575 48.9229 59.6567 48.9229C55.756 48.9229 52.5938 52.0851 52.5938 55.9858C52.5938 59.8866 55.756 63.0488 59.6567 63.0488Z" fill="#2A7DE1"/>
</g>
<defs>
<clipPath id="clip0_277_29718">
<rect width="94" height="88" fill="white"/>
</clipPath>
</defs>
</svg>
