<svg width="41" height="41" viewBox="0 0 41 41" fill="none" xmlns="http://www.w3.org/2000/svg">
<g id="Crane-Tower-Thin--Streamline-Phosphor-Thin">
<path id="Vector" d="M38.5273 13.2813H16.6201L12.8647 5.76883C12.7534 5.54645 12.526 5.40607 12.2773 5.40625H7.02734C6.66491 5.40625 6.37109 5.70007 6.37109 6.0625V13.2813H3.08984C2.58466 13.2813 2.26893 13.8281 2.52151 14.2656C2.63873 14.4687 2.8554 14.5937 3.08984 14.5938H6.37109V34.2812H3.08984C2.58466 34.2812 2.26893 34.8281 2.52151 35.2656C2.63873 35.4687 2.8554 35.5937 3.08984 35.5938H20.1523C20.6575 35.5937 20.9733 35.0468 20.7207 34.6093C20.6034 34.4063 20.3868 34.2812 20.1523 34.2812H16.8711V14.5938H33.9336V29.6875C33.9336 30.0499 33.6398 30.3438 33.2773 30.3438H30.6523C30.2899 30.3438 29.9961 30.0499 29.9961 29.6875V28.375C29.9961 27.8698 29.4492 27.5541 29.0117 27.8067C28.8087 27.9239 28.6836 28.1406 28.6836 28.375V29.6875C28.6836 30.7748 29.565 31.6563 30.6523 31.6562H33.2773C34.3646 31.6562 35.2461 30.7748 35.2461 29.6875V14.5938H38.5273C39.0325 14.5938 39.3483 14.0469 39.0957 13.6094C38.9785 13.4063 38.7618 13.2813 38.5273 13.2813ZM7.68359 6.71875H11.8721L15.1534 13.2813H7.68359V6.71875ZM7.68359 34.2812V25.0937H15.5586V34.2812H7.68359ZM15.5586 23.7812H7.68359V14.5938H15.5586V23.7812Z" fill="#51565B"/>
</g>
</svg>
