<svg width="41" height="41" viewBox="0 0 41 41" fill="none" xmlns="http://www.w3.org/2000/svg">
<g id="Cube-Thin--Streamline-Phosphor-Thin">
<path id="Vector" d="M36.7612 10.5732L21.7885 2.37559C21.1778 2.04147 20.439 2.04147 19.8284 2.37559L4.85563 10.5732C4.20141 10.9311 3.79438 11.6173 3.79395 12.3631V28.6357C3.79438 29.3815 4.20141 30.0677 4.85565 30.4256L19.8284 38.6232C20.4386 38.9589 21.1782 38.9589 21.7885 38.6232L36.7612 30.4256C37.4154 30.0677 37.8224 29.3815 37.8229 28.6357V12.3631C37.8224 11.6173 37.4154 10.9311 36.7612 10.5732ZM20.4817 3.56999C20.6848 3.45669 20.932 3.45669 21.1351 3.56999L35.8951 11.6519L20.8084 19.9073L5.72168 11.6519L20.4817 3.56999ZM5.509 29.2329C5.29074 29.1135 5.15503 28.8845 5.15509 28.6357V12.8922L20.1278 21.0864V37.2348L5.509 29.2329ZM36.1078 29.2329L21.489 37.2297V21.0864L36.4617 12.8922V28.6357C36.4612 28.8839 36.3255 29.1138 36.1078 29.2329Z" fill="#54565A"/>
</g>
</svg>
