<svg width="41" height="41" viewBox="0 0 41 41" fill="none" xmlns="http://www.w3.org/2000/svg">
<g id="Fan-Thin--Streamline-Phosphor-Thin">
<path id="Vector" d="M38.833 23.9888C37.012 17.1787 28.9889 14.2344 23.1951 18.2501C22.9325 18.0803 22.655 17.9348 22.3659 17.8155L25.5062 5.27978C25.5822 4.97687 25.4563 4.65925 25.1935 4.49063C18.5633 0.30907 9.89271 4.87303 9.58648 12.7057C9.42788 16.7626 11.6944 20.5261 15.3544 22.2832V22.5341C15.3544 22.7629 15.3702 22.9913 15.4017 23.2178L2.97321 26.7673C2.67204 26.8522 2.45893 27.1202 2.44408 27.4328C2.22828 32.2084 5.36357 36.4911 9.98114 37.7283C10.8464 37.9605 11.7383 38.0785 12.6341 38.0792C18.5776 38.0625 23.247 32.986 22.7678 27.0618C23.0452 26.9185 23.3087 26.7499 23.5551 26.5581L32.8451 35.5481C32.9819 35.6809 33.1654 35.7547 33.3561 35.7536C33.4725 35.753 33.5871 35.725 33.6906 35.6717C37.9358 33.4684 40.0753 28.6075 38.833 23.9888ZM20.4458 26.1708C17.6462 26.1708 15.8965 23.1403 17.2963 20.7158C18.6961 18.2913 22.1955 18.2913 23.5953 20.7158C23.9144 21.2686 24.0825 21.8958 24.0825 22.5341C24.0825 24.5426 22.4543 26.1708 20.4458 26.1708ZM10.9903 13.0787C10.9889 6.41465 18.1548 2.20745 23.9734 5.45616L20.964 17.4682C20.7931 17.4518 20.6203 17.4427 20.4458 17.4427C18.3013 17.4456 16.3876 18.789 15.6562 20.8049C12.7814 19.3015 10.9826 16.3228 10.9903 13.0787ZM16.9909 35.4444C11.2208 38.7767 3.99542 34.6753 3.89876 28.0128L15.809 24.6125C16.627 26.4418 18.4419 27.6212 20.4458 27.6255C20.7469 27.6247 21.0475 27.5979 21.344 27.5455C21.479 30.7841 19.801 33.8289 16.9909 35.4444ZM36.5564 30.9968C35.8107 32.2877 34.7464 33.3658 33.4652 34.1279L24.5552 25.5144C25.9286 23.6218 25.831 21.0357 24.3189 19.252C29.9964 15.6591 37.4343 19.5597 37.7071 26.273C37.7742 27.9262 37.3701 29.5644 36.5418 30.9968H36.5564Z" fill="#51565B"/>
</g>
</svg>
