<svg width="41" height="41" viewBox="0 0 41 41" fill="none" xmlns="http://www.w3.org/2000/svg">
<g id="Jeep-Thin--Streamline-Phosphor-Thin">
<path id="Vector" d="M38.55 15.431H36.5271L34.9431 8.0636C34.7522 7.19117 33.9828 6.56707 33.0897 6.56033H8.52743C7.632 6.56413 6.85915 7.18885 6.66775 8.0636L5.09002 15.431H3.06719C2.57943 15.4318 2.27539 15.9603 2.51991 16.3823C2.63304 16.5776 2.84152 16.6979 3.06719 16.6983H4.96806V32.5388C4.96806 33.5886 5.81911 34.4396 6.86892 34.4396H10.6706C11.7205 34.4396 12.5715 33.5886 12.5715 32.5388V28.1034H29.0456V32.5388C29.0456 33.5886 29.8967 34.4396 30.9465 34.4396H34.7482C35.798 34.4396 36.6491 33.5886 36.6491 32.5388V16.6983H38.55C39.0377 16.6975 39.3418 16.169 39.0972 15.747C38.9841 15.5517 38.7756 15.4314 38.55 15.431ZM7.90806 8.32814C7.97077 8.03618 8.2288 7.82764 8.52743 7.82758H33.0897C33.3883 7.82764 33.6464 8.03618 33.7091 8.32814L35.2314 15.431H6.39371L7.90806 8.32814ZM11.3043 32.5388C11.3043 32.8887 11.0206 33.1724 10.6706 33.1724H6.86892C6.51896 33.1724 6.2353 32.8887 6.2353 32.5388V28.1034H11.3043V32.5388ZM34.7482 33.1724H30.9465C30.5966 33.1724 30.3129 32.8887 30.3129 32.5388V28.1034H35.3819V32.5388C35.3819 32.8887 35.0982 33.1724 34.7482 33.1724ZM35.3819 26.8362H23.9767V21.1336C23.9759 20.6458 23.4475 20.3418 23.0254 20.5863C22.8301 20.6995 22.7098 20.9079 22.7094 21.1336V26.8362H18.9077V21.1336C18.907 20.6458 18.3785 20.3418 17.9564 20.5863C17.7612 20.6995 17.6408 20.9079 17.6405 21.1336V26.8362H6.2353V16.6983H35.3819V26.8362ZM10.037 21.7672C10.037 20.7917 11.0931 20.182 11.9379 20.6698C12.7827 21.1575 12.7827 22.3769 11.9379 22.8647C11.7452 22.9759 11.5267 23.0345 11.3043 23.0345C10.6044 23.0345 10.037 22.4671 10.037 21.7672ZM29.0456 21.7672C29.0456 20.7917 30.1017 20.182 30.9465 20.6698C31.7913 21.1575 31.7913 22.3769 30.9465 22.8647C30.7539 22.9759 30.5353 23.0345 30.3129 23.0345C29.613 23.0345 29.0456 22.4671 29.0456 21.7672Z" fill="#51565B"/>
</g>
</svg>
