<svg width="40" height="41" viewBox="0 0 40 41" fill="none" xmlns="http://www.w3.org/2000/svg">
<g id="Stethoscope-Thin--Streamline-Phosphor-Thin">
<path id="Vector" d="M33.2495 24.91C33.2495 26.0416 32.0245 26.7489 31.0445 26.1831C30.0645 25.6173 30.0645 24.2027 31.0445 23.6369C31.268 23.5079 31.5215 23.44 31.7795 23.44C32.5914 23.44 33.2495 24.0982 33.2495 24.91ZM32.4833 31.4864C32.1169 35.6632 28.6223 38.8692 24.4295 38.875H20.0195C15.5564 38.8699 11.9396 35.2531 11.9345 30.79V22.6774C6.14497 22.2906 1.64613 17.4825 1.64453 11.68V2.86C1.64453 2.45408 1.97361 2.125 2.37953 2.125H6.78953C7.35534 2.125 7.70895 2.7375 7.42606 3.2275C7.29477 3.45492 7.05212 3.595 6.78953 3.595H3.11453V11.68C3.11406 17.007 7.46979 21.3057 12.7963 21.235C17.9983 21.167 22.2245 16.8121 22.2245 11.5275V3.595H18.5495C17.9837 3.595 17.6301 2.9825 17.913 2.4925C18.0443 2.26508 18.2869 2.125 18.5495 2.125H22.9595C23.3655 2.125 23.6945 2.45408 23.6945 2.86V11.5275C23.6945 17.4075 19.1302 22.2934 13.4045 22.6793V30.79C13.4045 34.4434 16.3662 37.405 20.0195 37.405H24.4295C27.8142 37.4004 30.651 34.8449 31.0078 31.4791C25.9471 30.9133 23.3966 25.0813 26.417 20.9815C29.4373 16.8817 35.7632 17.5889 37.8036 22.2545C39.5895 26.3384 36.9075 30.9838 32.4778 31.4791L32.4833 31.4864ZM36.9245 24.91C36.9245 20.9494 32.637 18.474 29.207 20.4543C25.777 22.4346 25.777 27.3854 29.207 29.3657C29.9892 29.8173 30.8764 30.055 31.7795 30.055C34.621 30.055 36.9245 27.7515 36.9245 24.91Z" fill="#51565B"/>
</g>
</svg>
