<svg width="41" height="41" viewBox="0 0 41 41" fill="none" xmlns="http://www.w3.org/2000/svg">
<g id="Rocket-Launch-Thin--Streamline-Phosphor-Thin">
<path id="Vector" d="M39.1569 4.29922C39.084 3.14468 38.1638 2.22452 37.0093 2.15163C34.7124 2.01572 28.8132 2.22436 23.9266 7.11099L22.7896 8.24988H11.3051C10.6957 8.24829 10.1111 8.49096 9.68199 8.92363L3.10714 15.4947C1.85659 16.7446 2.42813 18.8796 4.13593 19.3377C4.22627 19.3619 4.31801 19.3806 4.41063 19.3936L12.0267 20.4559L20.8526 29.2817L21.9149 36.9017C22.164 38.6522 24.2147 39.4766 25.6061 38.3855C25.679 38.3284 25.7484 38.2669 25.8138 38.2013L32.3868 31.6265C32.8195 31.1974 33.0621 30.6127 33.0605 30.0033V18.5189L34.1975 17.3819C39.0841 12.4953 39.2928 6.60568 39.1569 4.29922ZM4.00484 17.3609C3.91218 17.0849 3.98668 16.7801 4.19625 16.578L10.7654 10.0051C10.9086 9.86199 11.1027 9.78149 11.3051 9.78114H21.2583L12.1148 18.9228L4.6231 17.8777C4.33454 17.8392 4.09391 17.638 4.00484 17.3609ZM31.5274 30.0033C31.5275 30.2065 31.4469 30.4013 31.3034 30.545L24.7286 37.118C24.3123 37.5352 23.6004 37.3453 23.4472 36.7762C23.4394 36.7469 23.4333 36.7173 23.4289 36.6873L22.3838 29.1937L31.5274 20.0502V30.0033ZM21.5742 27.8385L13.47 19.7343L25.008 8.19436C29.4563 3.74605 34.8177 3.55656 36.9174 3.68097C37.3006 3.70189 37.6066 4.00789 37.6275 4.3911C37.7519 6.49657 37.5605 11.856 33.1141 16.3005L21.5742 27.8385ZM15.8721 31.5021C15.0663 33.2592 12.3866 37.3438 4.73028 37.3438C4.30744 37.3438 3.96465 37.001 3.96465 36.5782C3.96465 28.9219 8.04929 26.2422 9.80642 25.4364C10.3428 25.1918 10.9427 25.6195 10.8864 26.2063C10.8603 26.4786 10.6908 26.7163 10.4419 26.8298C9.01398 27.4825 5.76579 29.6358 5.51123 35.7973C11.6726 35.5427 13.826 32.2945 14.4787 30.8666C14.7233 30.3303 15.4567 30.2598 15.7989 30.7398C15.9577 30.9626 15.9856 31.2532 15.8721 31.5021Z" fill="#51565B"/>
</g>
</svg>
