<svg width="41" height="41" viewBox="0 0 41 41" fill="none" xmlns="http://www.w3.org/2000/svg">
<g id="Sailboat-Thin--Streamline-Phosphor-Thin">
<path id="Vector" d="M39.1216 30.3633C39.0161 30.1434 38.7937 30.0035 38.5497 30.0038H22.7091V24.9347H34.748C35.2357 24.9396 35.5458 24.4146 35.3061 23.9898C35.2829 23.9486 35.2551 23.9101 35.2232 23.875L22.7091 10.1159V4.02517C22.7082 3.53741 22.1796 3.23359 21.7576 3.4783C21.6915 3.51667 21.6328 3.56671 21.5845 3.62599L5.11024 23.9019C4.80294 24.2807 5.02094 24.8501 5.50262 24.9269C5.53526 24.9321 5.56825 24.9347 5.60128 24.9348H21.4419V30.0038H3.06679C2.57903 30.0041 2.2745 30.5323 2.51865 30.9545C2.53462 30.9821 2.55263 31.0085 2.57257 31.0334L7.25979 36.8944C7.62063 37.3451 8.16673 37.6074 8.74406 37.6072H32.8725C33.4498 37.6074 33.9959 37.3451 34.3567 36.8944L39.044 31.0334C39.1964 30.8435 39.2266 30.583 39.1216 30.3633ZM33.3223 23.6675H22.7091V12.0009L33.3223 23.6675ZM6.9319 23.6675L21.4419 5.81041V23.6675H6.9319ZM33.3667 36.1024C33.2465 36.2525 33.0647 36.3399 32.8725 36.34H8.74406C8.5518 36.3399 8.37 36.2525 8.24984 36.1024L4.38473 31.271H37.2318L33.3667 36.1024Z" fill="#51565B"/>
</g>
</svg>
